<svg width="41" height="40" viewBox="0 0 41 40" fill="none" xmlns="http://www.w3.org/2000/svg">
<g clip-path="url(#clip0)">
<path d="M20.8076 40C31.8533 40 40.8076 31.0457 40.8076 20C40.8076 8.9543 31.8533 0 20.8076 0C9.76192 0 0.807617 8.9543 0.807617 20C0.807617 31.0457 9.76192 40 20.8076 40Z" fill="white"/>
<path d="M40.2296 24.7866L26.5989 11.1559L20.9198 10.2805L14.6572 16.5432L20.3019 29.461L11.3904 31.5151L19.8179 39.9754C20.1459 39.9915 20.4757 40 20.8075 40C30.2034 40 38.0843 33.5205 40.2296 24.7866Z" fill="white"/>
<path d="M20.8072 33.0369C26.1255 33.0369 30.4368 32.1747 30.4368 31.111C30.4368 30.0473 26.1255 29.1851 20.8072 29.1851C15.4889 29.1851 11.1776 30.0473 11.1776 31.111C11.1776 32.1747 15.4889 33.0369 20.8072 33.0369Z" fill="white"/>
<path d="M20.808 29.1851C20.7929 29.1851 20.7783 29.1853 20.7632 29.1853V33.0368C20.7783 33.0368 20.7929 33.037 20.808 33.037C26.1263 33.037 30.4376 32.1748 30.4376 31.1111C30.4376 30.0474 26.1263 29.1851 20.808 29.1851Z" fill="white"/>
<path d="M20.8079 8.48486C16.5681 8.48486 13.1311 11.9219 13.1311 16.1617C13.1311 22.6753 20.8079 31.5152 20.8079 31.5152C20.8079 31.5152 28.4847 23.0823 28.4847 16.1617C28.4847 11.9219 25.0477 8.48486 20.8079 8.48486ZM20.8079 20C18.6881 20 16.9695 18.2815 16.9695 16.1617C16.9695 14.0418 18.6881 12.3233 20.8079 12.3233C22.9277 12.3233 24.6463 14.0418 24.6463 16.1617C24.6463 18.2815 22.9277 20 20.8079 20Z" fill="url(#paint0_linear)"/>
<path d="M28.4848 16.1617C28.4848 11.9219 25.0478 8.48486 20.808 8.48486C20.7929 8.48486 20.7783 8.48596 20.7632 8.48596V12.3243C20.7781 12.3242 20.7929 12.3232 20.808 12.3232C22.9279 12.3232 24.6464 14.0417 24.6464 16.1616C24.6464 18.2814 22.9279 20 20.808 20C20.7929 20 20.7781 19.9991 20.7632 19.9989V31.4629C20.7922 31.4968 20.808 31.5152 20.808 31.5152C20.808 31.5152 28.4848 23.0823 28.4848 16.1617Z" fill="url(#paint1_linear)"/>
</g>
<defs>
<linearGradient id="paint0_linear" x1="20.8079" y1="8.48486" x2="20.8079" y2="31.5152" gradientUnits="userSpaceOnUse">
<stop offset="0.317708" stop-color="#FFB21E"/>
<stop offset="1" stop-color="#FFE600"/>
</linearGradient>
<linearGradient id="paint1_linear" x1="24.624" y1="8.48486" x2="24.624" y2="31.5152" gradientUnits="userSpaceOnUse">
<stop offset="0.317708" stop-color="#FFB21E"/>
<stop offset="1" stop-color="#FFE600"/>
</linearGradient>
<clipPath id="clip0">
<rect x="0.807617" width="40" height="40" fill="white"/>
</clipPath>
</defs>
</svg>
