<svg width="101" height="100" viewBox="0 0 101 100" fill="none" xmlns="http://www.w3.org/2000/svg">
<g clip-path="url(#clip0)">
<path d="M50.8076 100C78.4219 100 100.808 77.6142 100.808 50C100.808 22.3858 78.4219 0 50.8076 0C23.1934 0 0.807617 22.3858 0.807617 50C0.807617 77.6142 23.1934 100 50.8076 100Z" fill="url(#paint0_linear)"/>
<path d="M100.808 50C100.808 47.965 100.683 45.9592 100.447 43.9879L73.8153 17.3564H25.2261V80.418L44.4011 99.593C46.4987 99.8611 48.637 100 50.8077 100C78.422 100 100.808 77.6143 100.808 50Z" fill="url(#paint1_linear)"/>
<path d="M73.8154 17.3555H25.2256V80.416H73.8154V17.3555Z" fill="white"/>
<path d="M73.8154 17.3555H49.5205V80.418H73.8154V17.3555Z" fill="#FFF5CB"/>
<path d="M65.218 27.6778H33.8215V32.3848H65.218V27.6778Z" fill="#01D2FC"/>
<path d="M65.2197 27.6778H49.5205V32.3848H65.2197V27.6778Z" fill="#004EB1"/>
<path d="M65.218 40.248H33.8215V44.955H65.218V40.248Z" fill="#01D2FC"/>
<path d="M65.2197 40.248H49.5205V44.955H65.2197V40.248Z" fill="#004EB1"/>
<path d="M65.218 52.8184H33.8215V57.5254H65.218V52.8184Z" fill="#01D2FC"/>
<path d="M65.2197 52.8184H49.5205V57.5274H65.2197V52.8184Z" fill="#004EB1"/>
<path d="M65.2197 65.3906H49.5205V70.0976H65.2197V65.3906Z" fill="url(#paint2_linear)"/>
<path d="M69.8703 64.7461L63.5457 68.1248L64.2599 60.99L82.8738 33.1877L88.4841 36.9439L69.8703 64.7461Z" fill="url(#paint3_linear)"/>
<path d="M88.4841 36.944L69.8703 64.7461L63.5457 68.1248L85.6789 35.0658L88.4841 36.944Z" fill="url(#paint4_linear)"/>
<path d="M69.8703 64.7461L64.2599 60.99L63.5457 68.1248L69.8703 64.7461Z" fill="#0088FF"/>
<path d="M69.8703 64.7461L63.5457 68.1248L67.0652 62.8682L69.8703 64.7461Z" fill="#004EB1"/>
</g>
<defs>
<linearGradient id="paint0_linear" x1="50.8076" y1="0" x2="50.8076" y2="100" gradientUnits="userSpaceOnUse">
<stop stop-color="#245EF1"/>
<stop offset="1" stop-color="#514A9D"/>
</linearGradient>
<linearGradient id="paint1_linear" x1="63.0169" y1="17.3564" x2="63.0169" y2="100" gradientUnits="userSpaceOnUse">
<stop stop-color="#245EF1"/>
<stop offset="1" stop-color="#514A9D"/>
</linearGradient>
<linearGradient id="paint2_linear" x1="57.3701" y1="65.3906" x2="57.3701" y2="70.0976" gradientUnits="userSpaceOnUse">
<stop offset="0.317708" stop-color="#FFB21E"/>
<stop offset="1" stop-color="#FFE600"/>
</linearGradient>
<linearGradient id="paint3_linear" x1="76.0149" y1="33.1877" x2="76.0149" y2="68.1248" gradientUnits="userSpaceOnUse">
<stop offset="0.317708" stop-color="#FFB21E"/>
<stop offset="1" stop-color="#FFE600"/>
</linearGradient>
<linearGradient id="paint4_linear" x1="76.0149" y1="35.0658" x2="76.0149" y2="68.1248" gradientUnits="userSpaceOnUse">
<stop offset="0.317708" stop-color="#FFB21E"/>
<stop offset="1" stop-color="#FFE600"/>
</linearGradient>
<clipPath id="clip0">
<rect x="0.807617" width="100" height="100" fill="white"/>
</clipPath>
</defs>
</svg>
