<svg width="41" height="40" viewBox="0 0 41 40" fill="none" xmlns="http://www.w3.org/2000/svg">
<g clip-path="url(#clip0)">
<path d="M20.8076 40C31.8533 40 40.8076 31.0457 40.8076 20C40.8076 8.9543 31.8533 0 20.8076 0C9.76192 0 0.807617 8.9543 0.807617 20C0.807617 31.0457 9.76192 40 20.8076 40Z" fill="white"/>
<path d="M13.0832 21.7292C12.2604 24.7966 10.7916 30.2857 10.8155 30.2857L20.5262 39.9964C20.6201 39.9977 20.7137 40 20.8078 40C31.3848 40 40.0428 31.7891 40.7587 21.3939L28.8017 9.43688C28.8348 9.40383 28.1252 16.8206 27.5703 22.5728L14.4344 9.43688L13.0832 21.7292Z" fill="white"/>
<path d="M30.7996 11.3813H10.8152V30.2858H30.7996V11.3813Z" fill="url(#paint0_linear)"/>
<path d="M30.8003 11.3813H20.7668V30.2858H30.8003V11.3813Z" fill="url(#paint1_linear)"/>
<path d="M30.7996 11.3813H10.8152V15.9185H30.7996V11.3813Z" fill="url(#paint2_linear)"/>
<path d="M30.8003 11.3813H20.7668V15.9185H30.8003V11.3813Z" fill="url(#paint3_linear)"/>
<path d="M15.3522 18.2949H12.9758V20.6712H15.3522V18.2949Z" fill="white"/>
<path d="M15.3522 21.9136H12.9758V24.2899H15.3522V21.9136Z" fill="white"/>
<path d="M15.3522 25.5325H12.9758V27.9088H15.3522V25.5325Z" fill="white"/>
<path d="M19.7269 18.2949H17.3506V20.6712H19.7269V18.2949Z" fill="white"/>
<path d="M19.7269 21.9136H17.3506V24.2899H19.7269V21.9136Z" fill="white"/>
<path d="M19.7269 25.5325H17.3506V27.9088H19.7269V25.5325Z" fill="white"/>
<path d="M24.1024 18.2949H21.7261V20.6712H24.1024V18.2949Z" fill="white"/>
<path d="M24.1024 21.9136H21.7261V24.2899H24.1024V21.9136Z" fill="white"/>
<path d="M24.1024 25.5325H21.7261V27.9088H24.1024V25.5325Z" fill="white"/>
<path d="M28.4769 18.2949H26.1006V20.6712H28.4769V18.2949Z" fill="white"/>
<path d="M28.4769 21.9136H26.1006V24.2899H28.4769V21.9136Z" fill="white"/>
<path d="M28.4769 25.5325H26.1006V27.9088H28.4769V25.5325Z" fill="white"/>
<path d="M14.4339 9.43677H12.8135V13.218H14.4339V9.43677Z" fill="url(#paint4_linear)"/>
<path d="M28.8008 9.43677H27.1804V13.218H28.8008V9.43677Z" fill="url(#paint5_linear)"/>
</g>
<defs>
<linearGradient id="paint0_linear" x1="20.8074" y1="11.3813" x2="20.8074" y2="30.2858" gradientUnits="userSpaceOnUse">
<stop offset="0.317708" stop-color="#FFB21E"/>
<stop offset="1" stop-color="#FFE600"/>
</linearGradient>
<linearGradient id="paint1_linear" x1="25.7836" y1="11.3813" x2="25.7836" y2="30.2858" gradientUnits="userSpaceOnUse">
<stop offset="0.317708" stop-color="#FFB21E"/>
<stop offset="1" stop-color="#FFE600"/>
</linearGradient>
<linearGradient id="paint2_linear" x1="20.8074" y1="11.3813" x2="20.8074" y2="15.9185" gradientUnits="userSpaceOnUse">
<stop offset="0.317708" stop-color="#FFB21E"/>
<stop offset="1" stop-color="#FFE600"/>
</linearGradient>
<linearGradient id="paint3_linear" x1="25.7836" y1="11.3813" x2="25.7836" y2="15.9185" gradientUnits="userSpaceOnUse">
<stop offset="0.317708" stop-color="#FFB21E"/>
<stop offset="1" stop-color="#FFE600"/>
</linearGradient>
<linearGradient id="paint4_linear" x1="13.6237" y1="9.43677" x2="13.6237" y2="13.218" gradientUnits="userSpaceOnUse">
<stop offset="0.317708" stop-color="#FFB21E"/>
<stop offset="1" stop-color="#FFE600"/>
</linearGradient>
<linearGradient id="paint5_linear" x1="27.9906" y1="9.43677" x2="27.9906" y2="13.218" gradientUnits="userSpaceOnUse">
<stop offset="0.317708" stop-color="#FFB21E"/>
<stop offset="1" stop-color="#FFE600"/>
</linearGradient>
<clipPath id="clip0">
<rect x="0.807617" width="40" height="40" fill="white"/>
</clipPath>
</defs>
</svg>
