<svg width="31" height="30" viewBox="0 0 31 30" fill="none" xmlns="http://www.w3.org/2000/svg">
<g clip-path="url(#clip0)">
<path d="M15.8076 30C24.0919 30 30.8076 23.2843 30.8076 15C30.8076 6.71573 24.0919 0 15.8076 0C7.52335 0 0.807617 6.71573 0.807617 15C0.807617 23.2843 7.52335 30 15.8076 30Z" fill="#3B5998"/>
<path d="M19.5787 15.5872H16.9021V25.3929H12.8469V15.5872H10.9182V12.1411H12.8469V9.91107C12.8469 8.31636 13.6044 5.81921 16.9382 5.81921L19.9421 5.83178V9.17682H17.7626C17.4051 9.17682 16.9024 9.35544 16.9024 10.1162V12.1443H19.933L19.5787 15.5872Z" fill="white"/>
</g>
<defs>
<clipPath id="clip0">
<rect x="0.807617" width="30" height="30" fill="white"/>
</clipPath>
</defs>
</svg>
