<svg width="36" height="36" viewBox="0 0 36 36" fill="none" xmlns="http://www.w3.org/2000/svg">
<circle cx="18" cy="18" r="18" fill="white"/>
<path d="M18 33C26.2843 33 33 26.2843 33 18C33 9.71573 26.2843 3 18 3C9.71573 3 3 9.71573 3 18C3 26.2843 9.71573 33 18 33Z" fill="#3B5998"/>
<path d="M21.7711 18.5871H19.0945V28.3928H15.0393V18.5871H13.1106V15.141H15.0393V12.9109C15.0393 11.3162 15.7968 8.81909 19.1306 8.81909L22.1344 8.83166V12.1767H19.955C19.5975 12.1767 19.0948 12.3553 19.0948 13.116V15.1442H22.1254L21.7711 18.5871Z" fill="white"/>
</svg>
