<svg width="101" height="100" viewBox="0 0 101 100" fill="none" xmlns="http://www.w3.org/2000/svg">
<g clip-path="url(#clip0)">
<path d="M50.8076 100C78.4219 100 100.808 77.6142 100.808 50C100.808 22.3858 78.4219 0 50.8076 0C23.1934 0 0.807617 22.3858 0.807617 50C0.807617 77.6142 23.1934 100 50.8076 100Z" fill="url(#paint0_linear)"/>
<path d="M73.0299 22.2222L28.5854 88.8889L38.0521 98.3556C42.1245 99.4269 46.3989 100 50.8077 100C78.4134 100 100.794 77.628 100.807 50.0256L73.0299 22.2222Z" fill="url(#paint1_linear)"/>
<path d="M73.0299 22.2222H28.5854V88.8889H73.0299V22.2222Z" fill="white"/>
<path d="M73.0299 22.2222H50.9202V88.8889H73.0299V22.2222Z" fill="#EDECEB"/>
<path d="M43.2319 35.5219H58.3834C60.3359 35.5219 61.9188 33.9391 61.9188 31.9865V16.835C61.9188 14.8825 60.3359 13.2997 58.3834 13.2997H43.2319C41.2794 13.2997 39.6965 14.8825 39.6965 16.835V31.9865C39.6965 33.9391 41.2794 35.5219 43.2319 35.5219Z" fill="#01D2FC"/>
<path d="M58.3833 13.2997H50.9197V35.5219H58.3833C60.3358 35.5219 61.9187 33.9391 61.9187 31.9865V16.835C61.9187 14.8825 60.3358 13.2997 58.3833 13.2997Z" fill="#01D2FC"/>
<path d="M56.363 72.2222H45.252V88.8889H56.363V72.2222Z" fill="#01D2FC"/>
<path d="M56.3633 72.2222H50.9202V88.8889H56.3633V72.2222Z" fill="#01D2FC"/>
<path d="M45.252 38.8889H34.1409V50H45.252V38.8889Z" fill="url(#paint2_linear)"/>
<path d="M67.4744 38.8889H56.3633V50H67.4744V38.8889Z" fill="#01D2FC"/>
<path d="M45.252 55.5555H34.1409V66.6667H45.252V55.5555Z" fill="#01D2FC"/>
<path d="M67.4744 55.5555H56.3633V66.6667H67.4744V55.5555Z" fill="url(#paint3_linear)"/>
<path d="M57.5417 22.166H53.0525V17.6768H48.563V22.166H44.0737V26.6556H48.563V31.1448H53.0525V26.6556H57.5417V22.166Z" fill="url(#paint4_linear)"/>
<path d="M53.0525 22.166V17.6768H50.9202V31.1448H53.0525V26.6556H57.5417V22.166H53.0525Z" fill="url(#paint5_linear)"/>
</g>
<defs>
<linearGradient id="paint0_linear" x1="50.8076" y1="0" x2="50.8076" y2="100" gradientUnits="userSpaceOnUse">
<stop stop-color="#245EF1"/>
<stop offset="1" stop-color="#514A9D"/>
</linearGradient>
<linearGradient id="paint1_linear" x1="64.6964" y1="22.2222" x2="64.6964" y2="100" gradientUnits="userSpaceOnUse">
<stop stop-color="#245EF1"/>
<stop offset="1" stop-color="#514A9D"/>
</linearGradient>
<linearGradient id="paint2_linear" x1="39.6964" y1="38.8889" x2="39.6964" y2="50" gradientUnits="userSpaceOnUse">
<stop offset="0.317708" stop-color="#FFB21E"/>
<stop offset="1" stop-color="#FFE600"/>
</linearGradient>
<linearGradient id="paint3_linear" x1="61.9188" y1="55.5555" x2="61.9188" y2="66.6667" gradientUnits="userSpaceOnUse">
<stop offset="0.317708" stop-color="#FFB21E"/>
<stop offset="1" stop-color="#FFE600"/>
</linearGradient>
<linearGradient id="paint4_linear" x1="50.8077" y1="17.6768" x2="50.8077" y2="31.1448" gradientUnits="userSpaceOnUse">
<stop offset="0.317708" stop-color="#FFB21E"/>
<stop offset="1" stop-color="#FFE600"/>
</linearGradient>
<linearGradient id="paint5_linear" x1="54.2309" y1="17.6768" x2="54.2309" y2="31.1448" gradientUnits="userSpaceOnUse">
<stop offset="0.317708" stop-color="#FFB21E"/>
<stop offset="1" stop-color="#FFE600"/>
</linearGradient>
<clipPath id="clip0">
<rect x="0.807617" width="100" height="100" fill="white"/>
</clipPath>
</defs>
</svg>
