<svg width="121" height="120" viewBox="0 0 121 120" fill="none" xmlns="http://www.w3.org/2000/svg">
<g clip-path="url(#clip0)">
<path d="M120.808 60C120.808 93.1375 93.9451 120 60.8076 120C27.6701 120 0.807617 93.1375 0.807617 60C0.807617 26.8625 27.6701 0 60.8076 0C93.9451 0 120.808 26.8625 120.808 60Z" fill="url(#paint0_linear)"/>
<path d="M80.4064 116.722C103.919 108.6 120.808 86.2738 120.808 60C120.808 59.5056 120.801 59.0121 120.789 58.5205L86.4864 24.2194L32.2295 61.4062L49.0624 78.2391L44.6935 81.0095L80.4064 116.722Z" fill="url(#paint1_linear)"/>
<path d="M69.8312 87.5729V81.5625H51.7843V87.5729C51.7843 90.2966 50.0805 92.7301 47.5216 93.6621L19.772 103.768C30.5029 113.833 44.9343 120 60.8077 120C76.6812 120 91.1126 113.833 101.844 103.768L74.0939 93.6621C71.535 92.7301 69.8312 90.2966 69.8312 87.5729Z" fill="#F9ECC7"/>
<path d="M101.844 103.768L74.0939 93.6621C71.535 92.7301 69.8312 90.2966 69.8312 87.5729V81.5625H60.707V119.999C60.7409 119.999 60.7739 120 60.8077 120C76.6812 120 91.1126 113.833 101.844 103.768Z" fill="#F9ECC7"/>
<path d="M91.3706 56.2272C91.3706 60.5082 87.9008 63.9789 83.6198 63.9789C79.3397 63.9789 75.8689 60.5082 75.8689 56.2272C75.8689 51.9471 79.3397 48.4763 83.6198 48.4763C87.9008 48.4763 91.3706 51.9471 91.3706 56.2272Z" fill="#F9ECC7"/>
<path d="M45.7463 56.2272C45.7463 60.5082 42.2756 63.9789 37.9955 63.9789C33.7145 63.9789 30.2446 60.5082 30.2446 56.2272C30.2446 51.9471 33.7145 48.4763 37.9955 48.4763C42.2756 48.4763 45.7463 51.9471 45.7463 56.2272Z" fill="#F9ECC7"/>
<path d="M71.1274 85.2457L65.9519 87.9044C62.7228 89.5633 58.8923 89.5633 55.6632 87.9044L50.4877 85.2457C42.8174 81.3052 37.9954 73.407 37.9954 64.7836V44.61C37.9954 32.0105 48.2081 21.7969 60.8076 21.7969C73.407 21.7969 83.6198 32.0105 83.6198 44.6091V64.7836C83.6198 73.407 78.7977 81.3052 71.1274 85.2457Z" fill="#F9ECC7"/>
<path d="M60.8077 21.7969C60.7739 21.7969 60.7409 21.7978 60.707 21.7978V89.1449C62.5051 89.1614 64.3069 88.7494 65.9521 87.9044L71.1276 85.2457C78.7979 81.3052 83.6199 73.407 83.6199 64.7836V44.6091C83.6199 32.0105 73.4072 21.7969 60.8077 21.7969Z" fill="#F9ECC7"/>
<path d="M31.2764 19.1409V39.18C31.2764 43.0838 32.9472 46.5976 35.6123 49.0466V60.3516C35.6123 62.9407 37.7107 65.0391 40.2998 65.0391V51.8436C41.6713 52.3169 43.1425 52.5778 44.6751 52.5778H56.7061C64.1053 52.5778 70.1048 46.5793 70.1048 39.1791V21.4838C70.1048 20.1901 69.0556 19.14 67.761 19.14H31.2764V19.1409Z" fill="#414952"/>
<path d="M74.4619 19.1409H72.0971C71.1395 19.1409 70.3054 19.6563 69.8486 20.4226C69.4613 19.6627 68.673 19.1409 67.7612 19.1409H60.707V51.9698C64.956 50.6423 68.2949 47.2567 69.5574 42.9803C70.1928 48.3846 74.786 52.5787 80.3607 52.5787C80.6829 52.5787 81.0006 52.5613 81.3156 52.5338V65.039C83.9047 65.039 86.0031 62.9406 86.0031 60.3515V51.0031C89.1442 49.0942 91.2417 45.6408 91.2417 41.6967V35.9197C91.2417 26.6528 83.7298 19.1409 74.4619 19.1409Z" fill="#333940"/>
<path d="M78.8546 94.4531L60.7299 103.203L42.7609 94.4531L19.0615 103.09C29.8611 113.556 44.5809 120 60.8077 120C76.8185 120 91.3635 113.728 102.123 103.508L78.8546 94.4531Z" fill="#C8FFFA"/>
<path d="M60.8076 120C76.8183 120 91.3633 113.728 102.123 103.508L78.8544 94.4531L60.7297 103.203L60.8076 120Z" fill="#9BF5F0"/>
<path d="M64.5768 113.242H57.0383L54.6946 103.359H66.9205L64.5768 113.242Z" fill="#4A7AFF"/>
<path d="M56.1484 119.82C57.6865 119.939 59.2393 120 60.8076 120C62.3759 120 63.9286 119.938 65.4667 119.82L64.5768 113.242H57.0374L56.1484 119.82Z" fill="#2864F0"/>
<path d="M73.5417 91.7971L60.8855 103.203L67.2136 111.953L78.8546 94.4531L73.5417 91.7971Z" fill="#E9EDF5"/>
<path d="M48.0735 91.7971L60.7298 103.203L54.4017 111.953L42.7607 94.4531L48.0735 91.7971Z" fill="white"/>
<path d="M102.336 103.304L78.8546 94.4531L70.6377 119.194C82.8371 117.183 93.795 111.496 102.336 103.304Z" fill="#27488F"/>
<path d="M70.6377 119.194C73.7111 118.687 76.7058 117.948 79.6025 116.993L78.8546 113.242L84.8229 111.445V96.7026L78.8546 94.4531L70.6377 119.194Z" fill="#12254C"/>
<path d="M19.0615 103.09L42.7609 94.4531L50.9777 119.194C38.7783 117.183 27.7316 111.475 19.0615 103.09Z" fill="#27488F"/>
<path d="M50.9777 119.194C47.9042 118.687 44.9095 117.948 42.0128 116.993L42.7608 113.242L36.7925 111.445V96.7026L42.7608 94.4531L50.9777 119.194Z" fill="#1B3B6B"/>
</g>
<defs>
<linearGradient id="paint0_linear" x1="60.8076" y1="0" x2="60.8076" y2="120" gradientUnits="userSpaceOnUse">
<stop offset="0.317708" stop-color="#FFB21E"/>
<stop offset="1" stop-color="#FFE600"/>
</linearGradient>
<linearGradient id="paint1_linear" x1="76.5186" y1="24.2194" x2="76.5186" y2="116.722" gradientUnits="userSpaceOnUse">
<stop offset="0.317708" stop-color="#FFB21E"/>
<stop offset="1" stop-color="#FFE600"/>
</linearGradient>
<clipPath id="clip0">
<rect x="0.807617" width="120" height="120" fill="white"/>
</clipPath>
</defs>
</svg>
