<svg width="101" height="100" viewBox="0 0 101 100" fill="none" xmlns="http://www.w3.org/2000/svg">
<g clip-path="url(#clip0)">
<path d="M50.8076 100C78.4219 100 100.808 77.6142 100.808 50C100.808 22.3858 78.4219 0 50.8076 0C23.1934 0 0.807617 22.3858 0.807617 50C0.807617 77.6142 23.1934 100 50.8076 100Z" fill="#00EC89"/>
<path d="M50.8076 100C78.4219 100 100.808 77.6142 100.808 50C100.808 22.3858 78.4219 0 50.8076 0C23.1934 0 0.807617 22.3858 0.807617 50C0.807617 77.6142 23.1934 100 50.8076 100Z" fill="url(#paint0_linear)"/>
<path d="M100.808 50C100.808 45.9838 100.331 42.0795 99.4371 38.3375L75.4459 14.6254C75.4459 14.6254 66.4328 21.753 59.2486 15.6475L50.8664 7.17914L27.4004 79.7057L47.5887 99.894C48.6533 99.9618 49.726 100 50.8078 100C78.4221 100 100.808 77.6143 100.808 50Z" fill="url(#paint1_linear)"/>
<path d="M81.7331 32.8434L87.6849 26.5395L83.3556 25.0715C82.8372 24.8957 82.3361 24.6698 81.8624 24.3953C76.9701 21.562 76.016 17.4573 75.641 15.5948L75.4459 14.6258L69.9863 15.7948C60.9527 17.7286 55.2164 12.1453 54.7878 11.712L50.8662 7.17914L46.8308 11.7043C46.4449 12.0971 40.7058 17.7377 31.6253 15.7944L26.24 14.6412L26.0476 15.6145C25.5802 17.9801 24.5707 23.4373 20.5705 24.4903L13.8357 26.4424L19.8783 32.8434C20.2937 33.3145 27.3054 41.51 22.215 51.6014C18.8861 58.2004 18.5263 64.9397 21.1742 71.0903C24.9472 79.8547 34.6564 86.794 49.2517 91.1584L50.8058 91.6231L52.3599 91.1584C66.955 86.7942 76.6642 79.8547 80.4374 71.0903C83.0851 64.9397 82.7251 58.2004 79.3964 51.6014C74.3062 41.5108 81.3187 33.3135 81.7331 32.8434Z" fill="white"/>
<path d="M79.3975 51.6016C82.7256 58.2012 83.085 64.9394 80.4385 71.0898C76.665 79.8555 66.9561 86.7949 52.3604 91.1582L50.8076 91.623V7.24609L50.8662 7.17968L54.7881 11.7109C55.2158 12.1445 60.9521 17.7285 69.9854 15.7949L75.4463 14.625L75.6416 15.5937C76.0166 17.457 76.9697 21.5625 81.8623 24.3945C82.3369 24.6699 82.8369 24.8945 83.3564 25.0703L87.6846 26.5391L81.7334 32.8437C81.3193 33.3144 74.3057 41.5098 79.3975 51.6016Z" fill="#FFF5CA"/>
<path d="M77.7328 29.1794C72.4119 27.5977 71.1221 21.0989 71.1221 21.0989C58.5455 23.7917 50.8059 15.3967 50.8059 15.3967C50.8059 15.3967 43.0664 23.7917 30.4896 21.0989C30.4896 21.0989 29.1998 27.5977 23.8789 29.1794C23.8789 29.1794 34.0369 40.2106 27.0586 54.0448C20.7352 66.5803 27.7957 79.0809 50.8059 85.9612C73.816 79.0809 80.8766 66.5803 74.5531 54.0448C67.5746 40.2106 77.7328 29.1794 77.7328 29.1794Z" fill="#01D2FC"/>
<path d="M74.5537 54.045C80.876 66.5801 73.8154 79.0801 50.8076 85.961V15.3985C50.9092 15.5098 58.6299 23.7735 71.1221 21.0996C71.1221 21.0996 72.4111 27.5977 77.7334 29.1797C77.7334 29.1797 67.5752 40.211 74.5537 54.045Z" fill="#01D2FC"/>
<path d="M50.8056 32.2541L56.5232 43.8395L69.3083 45.6971L60.0569 54.7151L62.2407 67.4484L50.8056 61.4365L39.3702 67.4484L41.5542 54.7151L32.3029 45.6971L45.0878 43.8395L50.8056 32.2541Z" fill="url(#paint2_linear)"/>
<path d="M60.0576 54.7147L62.242 67.4488L50.8057 61.4361V32.2551L56.5227 43.8404L69.3072 45.698L60.0576 54.7147Z" fill="url(#paint3_linear)"/>
</g>
<defs>
<linearGradient id="paint0_linear" x1="50.8076" y1="0" x2="50.8076" y2="100" gradientUnits="userSpaceOnUse">
<stop stop-color="#245EF1"/>
<stop offset="1" stop-color="#514A9D"/>
</linearGradient>
<linearGradient id="paint1_linear" x1="64.1041" y1="7.17914" x2="64.1041" y2="100" gradientUnits="userSpaceOnUse">
<stop stop-color="#245EF1"/>
<stop offset="1" stop-color="#514A9D"/>
</linearGradient>
<linearGradient id="paint2_linear" x1="50.8056" y1="32.2541" x2="50.8056" y2="67.4484" gradientUnits="userSpaceOnUse">
<stop offset="0.317708" stop-color="#FFB21E"/>
<stop offset="1" stop-color="#FFE600"/>
</linearGradient>
<linearGradient id="paint3_linear" x1="60.0564" y1="32.2551" x2="60.0564" y2="67.4488" gradientUnits="userSpaceOnUse">
<stop offset="0.317708" stop-color="#FFB21E"/>
<stop offset="1" stop-color="#FFE600"/>
</linearGradient>
<clipPath id="clip0">
<rect x="0.807617" width="100" height="100" fill="white"/>
</clipPath>
</defs>
</svg>
