<svg width="40" height="40" viewBox="0 0 40 40" fill="none" xmlns="http://www.w3.org/2000/svg">
<circle cx="20" cy="20" r="20" fill="white"/>
<g clip-path="url(#clip0)">
<path d="M31.5143 26.879L28.7428 25.0312L26.279 23.389C25.8036 23.0726 25.1646 23.1763 24.8135 23.6269L23.289 25.5868C22.9615 26.0121 22.3724 26.1343 21.9028 25.8743C20.8683 25.2989 19.645 24.7571 16.946 22.0545C14.2469 19.352 13.7016 18.1321 13.1262 17.0977C12.8662 16.6281 12.9884 16.039 13.4137 15.7115L15.3736 14.187C15.8241 13.836 15.9279 13.197 15.6115 12.7215L14.0197 10.3336L12.1214 7.48613C11.7984 7.00147 11.1516 6.85596 10.6521 7.15552L8.46285 8.46888C7.87121 8.81746 7.4363 9.38034 7.24822 10.0408C6.64954 12.2236 6.52884 17.0386 14.2455 24.7553C21.9623 32.472 26.7768 32.3509 28.9596 31.7522C29.6201 31.5642 30.183 31.1293 30.5315 30.5376L31.8449 28.3484C32.1445 27.8488 31.999 27.2021 31.5143 26.879Z" fill="url(#paint0_linear)"/>
<path d="M21.224 10.8791C25.2689 10.8836 28.547 14.1616 28.5515 18.2066C28.5515 18.4447 28.7444 18.6377 28.9825 18.6377C29.2206 18.6377 29.4136 18.4447 29.4136 18.2066C29.4086 13.6857 25.7449 10.0221 21.224 10.0171C20.986 10.0171 20.793 10.2101 20.793 10.4481C20.7929 10.6861 20.9859 10.8791 21.224 10.8791Z" fill="url(#paint1_linear)"/>
<path d="M21.2239 13.4654C23.8412 13.4684 25.9621 15.5894 25.9652 18.2067C25.9652 18.4447 26.1582 18.6377 26.3962 18.6377C26.6343 18.6377 26.8273 18.4448 26.8273 18.2067C26.8237 15.1135 24.3171 12.6068 21.2239 12.6033C20.9859 12.6033 20.7928 12.7962 20.7928 13.0343C20.7928 13.2724 20.9858 13.4654 21.2239 13.4654Z" fill="url(#paint2_linear)"/>
<path d="M21.224 16.0515C22.4137 16.0529 23.3777 17.017 23.3791 18.2067C23.3791 18.4447 23.5721 18.6377 23.8102 18.6377C24.0482 18.6377 24.2412 18.4447 24.2412 18.2067C24.2393 16.5411 22.8896 15.1914 21.224 15.1895C20.986 15.1895 20.793 15.3824 20.793 15.6205C20.7929 15.8585 20.9859 16.0515 21.224 16.0515Z" fill="url(#paint3_linear)"/>
</g>
<defs>
<linearGradient id="paint0_linear" x1="19.5005" y1="7" x2="19.5005" y2="32" gradientUnits="userSpaceOnUse">
<stop offset="0.317708" stop-color="#FFB21E"/>
<stop offset="1" stop-color="#FFE600"/>
</linearGradient>
<linearGradient id="paint1_linear" x1="25.1033" y1="10.0171" x2="25.1033" y2="18.6377" gradientUnits="userSpaceOnUse">
<stop offset="0.317708" stop-color="#FFB21E"/>
<stop offset="1" stop-color="#FFE600"/>
</linearGradient>
<linearGradient id="paint2_linear" x1="23.8101" y1="12.6033" x2="23.8101" y2="18.6377" gradientUnits="userSpaceOnUse">
<stop offset="0.317708" stop-color="#FFB21E"/>
<stop offset="1" stop-color="#FFE600"/>
</linearGradient>
<linearGradient id="paint3_linear" x1="22.5171" y1="15.1895" x2="22.5171" y2="18.6377" gradientUnits="userSpaceOnUse">
<stop offset="0.317708" stop-color="#FFB21E"/>
<stop offset="1" stop-color="#FFE600"/>
</linearGradient>
<clipPath id="clip0">
<rect x="7" y="7" width="25" height="25" fill="white"/>
</clipPath>
</defs>
</svg>
