<svg width="50" height="50" viewBox="0 0 50 50" fill="none" xmlns="http://www.w3.org/2000/svg">
<circle cx="25" cy="25" r="25" fill="url(#paint0_linear)"/>
<g clip-path="url(#clip0)">
<path d="M36.5143 31.879L33.7428 30.0312L31.279 28.389C30.8036 28.0726 30.1646 28.1763 29.8135 28.6269L28.289 30.5868C27.9615 31.0121 27.3724 31.1343 26.9028 30.8743C25.8683 30.2989 24.645 29.7571 21.946 27.0545C19.2469 24.352 18.7016 23.1321 18.1262 22.0977C17.8662 21.6281 17.9884 21.039 18.4137 20.7115L20.3736 19.187C20.8241 18.836 20.9279 18.197 20.6115 17.7215L19.0197 15.3336L17.1214 12.4861C16.7984 12.0015 16.1516 11.856 15.6521 12.1555L13.4628 13.4689C12.8712 13.8175 12.4363 14.3803 12.2482 15.0408C11.6495 17.2236 11.5288 22.0386 19.2455 29.7553C26.9623 37.472 31.7768 37.3509 33.9596 36.7522C34.6201 36.5642 35.183 36.1293 35.5315 35.5376L36.8449 33.3484C37.1445 32.8488 36.999 32.2021 36.5143 31.879Z" fill="white"/>
<path d="M26.224 15.8791C30.2689 15.8836 33.547 19.1616 33.5515 23.2066C33.5515 23.4447 33.7444 23.6377 33.9825 23.6377C34.2206 23.6377 34.4136 23.4447 34.4136 23.2066C34.4086 18.6857 30.7449 15.0221 26.224 15.0171C25.986 15.0171 25.793 15.2101 25.793 15.4481C25.7929 15.6861 25.9859 15.8791 26.224 15.8791Z" fill="white"/>
<path d="M26.2239 18.4654C28.8412 18.4684 30.9621 20.5894 30.9652 23.2067C30.9652 23.4447 31.1582 23.6377 31.3962 23.6377C31.6343 23.6377 31.8273 23.4448 31.8273 23.2067C31.8237 20.1135 29.3171 17.6068 26.2239 17.6033C25.9859 17.6033 25.7928 17.7962 25.7928 18.0343C25.7928 18.2724 25.9858 18.4654 26.2239 18.4654Z" fill="white"/>
<path d="M26.224 21.0515C27.4137 21.0529 28.3777 22.017 28.3791 23.2067C28.3791 23.4447 28.5721 23.6377 28.8102 23.6377C29.0482 23.6377 29.2412 23.4447 29.2412 23.2067C29.2393 21.5411 27.8896 20.1914 26.224 20.1895C25.986 20.1895 25.793 20.3824 25.793 20.6205C25.7929 20.8585 25.9859 21.0515 26.224 21.0515Z" fill="white"/>
</g>
<defs>
<linearGradient id="paint0_linear" x1="25" y1="0" x2="25" y2="50" gradientUnits="userSpaceOnUse">
<stop offset="0.317708" stop-color="#FFB21E"/>
<stop offset="1" stop-color="#FFE600"/>
</linearGradient>
<clipPath id="clip0">
<rect x="12" y="12" width="25" height="25" fill="white"/>
</clipPath>
</defs>
</svg>
