<svg width="41" height="40" viewBox="0 0 41 40" fill="none" xmlns="http://www.w3.org/2000/svg">
<g clip-path="url(#clip0)">
<path d="M20.8076 40C31.8533 40 40.8076 31.0457 40.8076 20C40.8076 8.9543 31.8533 0 20.8076 0C9.76192 0 0.807617 8.9543 0.807617 20C0.807617 31.0457 9.76192 40 20.8076 40Z" fill="white"/>
<path d="M40.8076 20.0001C40.8076 19.0376 40.7381 18.0914 40.6066 17.1652L34.1925 10.7512L29.1478 15.9223L25.329 12.1036L20.8075 11.9941L17.7806 13.9238L21.1109 17.254L20.5083 17.9897L12.6884 10.1699L11.9484 25.9207L25.4781 39.4504C34.2707 37.3467 40.8076 29.4373 40.8076 20.0001Z" fill="white"/>
<path d="M26.8087 21.5906C25.8898 22.7845 24.971 23.9784 24.0523 25.1722C21.2995 23.0536 18.8326 20.5866 16.714 17.8339C17.9078 16.9151 19.1017 15.9963 20.2956 15.0775C18.6241 12.9058 17.1969 10.5336 16.0529 8C15.4583 8.26844 13.9695 8.9407 12.3867 9.65531C9.61063 10.9088 8.56211 14.3148 10.1563 16.9104C13.8627 22.9452 18.941 28.0236 24.9758 31.73C27.5713 33.3241 30.9773 32.2756 32.2309 29.4995C32.9455 27.9168 33.6177 26.4279 33.8863 25.8334C31.3526 24.6893 28.9804 23.2621 26.8087 21.5906Z" fill="url(#paint0_linear)"/>
<path d="M26.8083 21.5906C25.8895 22.7845 24.9706 23.9783 24.0519 25.1721C22.7072 24.1371 21.4312 23.0185 20.2302 21.8246L16.6621 25.1625C19.1571 27.6624 21.9456 29.8692 24.9753 31.73C27.5709 33.324 30.9769 32.2756 32.2304 29.4995C32.945 27.9167 33.6173 26.4279 33.8858 25.8333C31.3522 24.6892 28.98 23.2621 26.8083 21.5906Z" fill="url(#paint1_linear)"/>
</g>
<defs>
<linearGradient id="paint0_linear" x1="21.647" y1="8" x2="21.647" y2="32.4785" gradientUnits="userSpaceOnUse">
<stop offset="0.317708" stop-color="#FFB21E"/>
<stop offset="1" stop-color="#FFE600"/>
</linearGradient>
<linearGradient id="paint1_linear" x1="25.2739" y1="21.5906" x2="25.2739" y2="32.4785" gradientUnits="userSpaceOnUse">
<stop offset="0.317708" stop-color="#FFB21E"/>
<stop offset="1" stop-color="#FFE600"/>
</linearGradient>
<clipPath id="clip0">
<rect x="0.807617" width="40" height="40" fill="white"/>
</clipPath>
</defs>
</svg>
