<svg width="40" height="40" viewBox="0 0 40 40" fill="none" xmlns="http://www.w3.org/2000/svg">
<circle cx="20" cy="20" r="20" fill="url(#paint0_linear)"/>
<g clip-path="url(#clip0)">
<path d="M29.6116 25.9032L27.3944 24.4249L25.4233 23.1112C25.0429 22.8581 24.5317 22.9411 24.2509 23.3015L23.0313 24.8694C22.7693 25.2097 22.298 25.3074 21.9223 25.0994C21.0948 24.6391 20.1161 24.2057 17.9569 22.0436C15.7976 19.8816 15.3614 18.9057 14.901 18.0781C14.693 17.7024 14.7908 17.2312 15.131 16.9692L16.6989 15.7496C17.0594 15.4688 17.1424 14.9576 16.8893 14.5772L15.6159 12.6668L14.0973 10.3889C13.8388 10.0012 13.3214 9.88477 12.9218 10.1244L11.1704 11.1751C10.6971 11.454 10.3491 11.9043 10.1987 12.4327C9.71973 14.1789 9.62317 18.0309 15.7965 24.2042C21.9699 30.3776 25.8216 30.2807 27.5678 29.8018C28.0962 29.6513 28.5465 29.3034 28.8253 28.8301L29.876 27.0787C30.1157 26.6791 29.9993 26.1617 29.6116 25.9032Z" fill="white"/>
<path d="M21.379 13.1033C24.615 13.1069 27.2374 15.7293 27.241 18.9653C27.241 19.1558 27.3954 19.3102 27.5858 19.3102C27.7762 19.3102 27.9307 19.1558 27.9307 18.9653C27.9267 15.3486 24.9957 12.4177 21.379 12.4137C21.1886 12.4137 21.0342 12.5681 21.0342 12.7585C21.0341 12.9489 21.1885 13.1033 21.379 13.1033Z" fill="white"/>
<path d="M21.379 15.1722C23.4729 15.1747 25.1696 16.8715 25.1721 18.9653C25.1721 19.1557 25.3264 19.3101 25.5169 19.3101C25.7073 19.3101 25.8617 19.1557 25.8617 18.9653C25.8589 16.4907 23.8536 14.4854 21.379 14.4825C21.1886 14.4825 21.0342 14.6369 21.0342 14.8274C21.0342 15.0179 21.1886 15.1722 21.379 15.1722Z" fill="white"/>
<path d="M21.379 17.2412C22.3307 17.2423 23.102 18.0135 23.1031 18.9653C23.1031 19.1557 23.2575 19.3101 23.4479 19.3101C23.6384 19.3101 23.7928 19.1557 23.7928 18.9653C23.7913 17.6328 22.7115 16.553 21.379 16.5515C21.1886 16.5515 21.0342 16.7059 21.0342 16.8964C21.0341 17.0868 21.1885 17.2412 21.379 17.2412Z" fill="white"/>
</g>
<defs>
<linearGradient id="paint0_linear" x1="20" y1="0" x2="20" y2="40" gradientUnits="userSpaceOnUse">
<stop offset="0.317708" stop-color="#FFB21E"/>
<stop offset="1" stop-color="#FFE600"/>
</linearGradient>
<clipPath id="clip0">
<rect x="10" y="10" width="20" height="20" fill="white"/>
</clipPath>
</defs>
</svg>
