<svg width="121" height="120" viewBox="0 0 121 120" fill="none" xmlns="http://www.w3.org/2000/svg">
<g clip-path="url(#clip0)">
<path d="M60.8076 120C93.9447 120 120.808 93.1371 120.808 60C120.808 26.8629 93.9447 0 60.8076 0C27.6705 0 0.807617 26.8629 0.807617 60C0.807617 93.1371 27.6705 120 60.8076 120Z" fill="url(#paint0_linear)"/>
<path d="M120.683 63.8147L77.7609 20.8922L61.042 73.9453L95.8221 108.725C109.987 98.5282 119.523 82.3083 120.683 63.8147Z" fill="url(#paint1_linear)"/>
<path d="M85.8013 44.5172H35.8794V85.4766H85.8013V44.5172Z" fill="#754C24"/>
<path d="M85.8011 44.5172H60.7957V85.4766H85.8011V44.5172Z" fill="#603813"/>
<path d="M87.3986 82.855L70.5255 80.6966C68.4541 80.4315 66.9023 78.6686 66.9023 76.5805V68.9272H54.7132V76.5805C54.7132 78.6688 53.1614 80.4318 51.09 80.6966L34.2168 82.855C29.0519 83.5157 25.1824 87.9116 25.1824 93.1187V108.28C35.1457 115.644 47.4672 120 60.8076 120C74.148 120 86.4696 115.644 96.4328 108.28V93.1185C96.4328 87.9114 92.5635 83.5157 87.3986 82.855Z" fill="#F9ECC7"/>
<path d="M87.3984 82.855L70.5253 80.6966C68.4539 80.4315 66.9021 78.6686 66.9021 76.5805V68.9272H60.7964V120C60.8001 120 60.8039 120 60.8076 120C74.148 120 86.4696 115.644 96.4329 108.28V93.1185C96.4326 87.9114 92.5633 83.5157 87.3984 82.855Z" fill="#F9ECC7"/>
<path d="M72.33 70.11L69.0105 71.8973C63.9098 74.6437 57.7706 74.6437 52.6699 71.8973L49.3504 70.11C43.2206 66.8092 39.3979 60.4094 39.3979 53.4473V32.9725H82.2822V53.4473C82.2825 60.4094 78.4598 66.8092 72.33 70.11Z" fill="#F9ECC7"/>
<path d="M82.282 32.9725H60.7961V73.9565C63.6206 73.9638 66.4467 73.2778 69.0103 71.8973L72.3297 70.11C78.4596 66.8093 82.2822 60.4094 82.2822 53.4473L82.282 32.9725Z" fill="#F9ECC7"/>
<path d="M87.3986 82.8548L73.1181 81.0281C70.0394 84.3121 65.6646 86.3671 60.8076 86.3671C55.9506 86.3671 51.5758 84.3121 48.4971 81.0278L34.2166 82.8546C29.0517 83.5153 25.1821 87.9112 25.1821 93.1183V108.28C35.1456 115.644 47.4672 120 60.8076 120C74.148 120 86.4695 115.644 96.4328 108.28V93.1183C96.4328 87.9112 92.5635 83.5155 87.3986 82.8548Z" fill="url(#paint2_linear)"/>
<path d="M87.3984 82.8548L73.1179 81.0281C70.0392 84.3121 65.6643 86.3671 60.8074 86.3671C60.8036 86.3671 60.7999 86.3669 60.7961 86.3669V120C60.7999 120 60.8036 120 60.8074 120C74.1478 120 86.4694 115.644 96.4326 108.28V93.1183C96.4326 87.9112 92.5633 83.5155 87.3984 82.8548Z" fill="url(#paint3_linear)"/>
<path d="M59.929 86.3439C55.4245 86.1126 51.3888 84.1129 48.4969 81.0278L42.3342 81.8163L47.6656 88.6961C50.0466 91.7688 54.5477 92.1445 57.4052 89.5092L60.8074 86.3711C60.5124 86.3711 60.2196 86.3617 59.929 86.3439Z" fill="url(#paint4_linear)"/>
<path d="M60.8076 86.3711L64.2098 89.5089C67.0673 92.1445 71.5685 91.7688 73.9495 88.6959L79.2808 81.816L73.1182 81.0276C70.2262 84.1127 66.1905 86.1121 61.6861 86.3437C61.3954 86.3617 61.1027 86.3711 60.8076 86.3711Z" fill="url(#paint5_linear)"/>
<path d="M60.7517 14.2796C46.9564 14.3274 35.8792 25.7159 35.8792 39.5112V74.3675L38.8023 67.4307C39.6437 65.434 40.077 63.2893 40.077 61.1227V47.1687C62.4092 44.3393 70.6266 34.0723 70.6266 34.0723C70.6266 34.0723 73.6517 41.2653 81.6034 47.1945V61.1227C81.6034 63.2893 82.0367 65.434 82.8781 67.4307L85.8013 74.3675V39.2403C85.801 25.4255 74.5777 14.2318 60.7517 14.2796Z" fill="#8C6239"/>
<path d="M85.8009 39.2403C85.8009 25.4403 74.6018 14.2564 60.7964 14.2801V41.1765C67.7547 37.6587 70.6265 34.0723 70.6265 34.0723C70.6265 34.0723 73.6516 41.2653 81.6033 47.1945V61.1227C81.6033 63.2893 82.0366 65.4341 82.878 67.4307L85.8012 74.3675L85.8009 39.2403Z" fill="#754C24"/>
</g>
<defs>
<linearGradient id="paint0_linear" x1="60.8076" y1="0" x2="60.8076" y2="120" gradientUnits="userSpaceOnUse">
<stop offset="0.317708" stop-color="#FFB21E"/>
<stop offset="1" stop-color="#FFE600"/>
</linearGradient>
<linearGradient id="paint1_linear" x1="90.8627" y1="20.8922" x2="90.8627" y2="108.725" gradientUnits="userSpaceOnUse">
<stop offset="0.317708" stop-color="#FFB21E"/>
<stop offset="1" stop-color="#FFE600"/>
</linearGradient>
<linearGradient id="paint2_linear" x1="60.812" y1="81.028" x2="60.812" y2="120" gradientUnits="userSpaceOnUse">
<stop stop-color="#0129A0"/>
<stop offset="0.13" stop-color="#0053E2" stop-opacity="0.9"/>
<stop offset="0.54" stop-color="#009DF1"/>
<stop offset="0.84" stop-color="#00CBFA"/>
<stop offset="1" stop-color="#00DCFE"/>
</linearGradient>
<linearGradient id="paint3_linear" x1="78.6166" y1="81.0283" x2="78.6166" y2="120" gradientUnits="userSpaceOnUse">
<stop stop-color="#0129A0"/>
<stop offset="0.13" stop-color="#0053E2" stop-opacity="0.9"/>
<stop offset="0.54" stop-color="#009DF1"/>
<stop offset="0.84" stop-color="#00CBFA"/>
<stop offset="1" stop-color="#00DCFE"/>
</linearGradient>
<linearGradient id="paint4_linear" x1="51.572" y1="81.0279" x2="51.572" y2="91.2663" gradientUnits="userSpaceOnUse">
<stop stop-color="#0129A0"/>
<stop offset="0.13" stop-color="#0053E2" stop-opacity="0.9"/>
<stop offset="0.54" stop-color="#009DF1"/>
<stop offset="0.84" stop-color="#00CBFA"/>
<stop offset="1" stop-color="#00DCFE"/>
</linearGradient>
<linearGradient id="paint5_linear" x1="70.0454" y1="81.0276" x2="70.0454" y2="91.2662" gradientUnits="userSpaceOnUse">
<stop stop-color="#0129A0"/>
<stop offset="0.13" stop-color="#0053E2" stop-opacity="0.9"/>
<stop offset="0.54" stop-color="#009DF1"/>
<stop offset="0.84" stop-color="#00CBFA"/>
<stop offset="1" stop-color="#00DCFE"/>
</linearGradient>
<clipPath id="clip0">
<rect x="0.807617" width="120" height="120" fill="white"/>
</clipPath>
</defs>
</svg>
