<svg width="838" height="759" viewBox="0 0 838 759" fill="none" xmlns="http://www.w3.org/2000/svg">
<g clip-path="url(#clip0)">
<path d="M946.807 0H569.308C567.587 5.5092 568.699 10.8453 565.766 15.9246C547.966 46.7798 521.245 56.698 475.684 72.4493C424.808 90.0377 398.808 95.5 344.308 113.5C294.808 141 278.173 169.671 263.308 212C246.109 261.049 249.839 278.691 232.064 328.301C212.219 383.746 167.863 392.302 115.497 401.637C72.4886 409.307 30.3217 430.807 10.8379 472.206C-11.3641 519.418 7.5665 565.831 26.3768 610.342C46.2455 657.381 38.7887 709.346 41.6993 759H946.807V0Z" fill="url(#paint0_linear)"/>
<path d="M41.6997 759H946.808V275.709C902.524 332.018 855.571 388.867 766.258 346.408C721.734 325.233 700.253 287.572 672.663 254.34C647.527 224.089 608.944 195.287 563.457 211.579C545.393 218.061 530.696 229.383 518.5 241.829C472.629 288.76 463.176 376.14 404.772 411.079C344.781 446.904 325.538 348.958 269.083 359.438C233.724 365.92 228.191 403.43 222.418 429.661C217.607 451.528 206.543 476.247 182.488 481.692C146.888 489.773 121.872 455.201 98.8042 437.483C85.1655 427.047 70.5165 422.682 56.4208 423.049C36.1107 435.015 20.2062 452.122 10.718 472.206C-11.484 519.418 7.44663 565.831 26.2569 610.342C46.2459 657.381 38.7891 709.346 41.6997 759Z" fill="url(#paint1_linear)"/>
</g>
<path d="M335.132 376C335.132 376 249.764 376 234.576 376C219.389 376 219.267 359.03 232.739 355.661C246.579 352.17 256.378 360.114 256.378 360.114C256.378 360.114 260.052 318.472 294.592 323.406C321.904 327.258 320.312 353.976 320.312 353.976C320.312 353.976 325.946 342.903 340.644 347.116C356.076 351.569 354.362 376 335.132 376Z" fill="white"/>
<path d="M691.764 274.906C691.764 274.906 791.098 274.906 808.76 274.906C826.423 274.906 826.574 255.133 811.025 251.119C794.872 247.105 783.549 256.322 783.549 256.322C783.549 256.322 779.322 207.856 739.015 213.506C707.313 217.966 709.125 249.186 709.125 249.186C709.125 249.186 702.633 236.401 685.423 241.158C667.459 246.51 669.421 274.906 691.764 274.906Z" fill="white"/>
<path d="M730.304 681.662C729.398 681.662 728.644 680.918 728.493 680.026L704.489 432.94C704.338 432.048 705.093 431.156 706.15 431.007C707.056 430.859 707.962 431.602 708.113 432.643L732.116 679.729C732.267 680.621 731.512 681.513 730.455 681.662H730.304Z" fill="#F2B9A7"/>
<path d="M634.745 681.661H634.594C633.688 681.512 632.933 680.769 632.933 679.728L656.936 432.642C657.087 431.75 657.842 431.006 658.899 431.006C659.805 431.155 660.559 431.898 660.559 432.939L636.556 680.026C636.405 680.918 635.65 681.661 634.745 681.661Z" fill="#F2B9A7"/>
<path d="M708.264 450.78H656.786V454.199H708.264V450.78Z" fill="#F2B9A7"/>
<path d="M711.132 480.365H653.917V483.784H711.132V480.365Z" fill="#F2B9A7"/>
<path d="M714 510.099H651.049V513.518H714V510.099Z" fill="#F2B9A7"/>
<path d="M716.869 539.684H648.181V543.103H716.869V539.684Z" fill="#F2B9A7"/>
<path d="M719.737 569.417H645.312V572.837H719.737V569.417Z" fill="#F2B9A7"/>
<path d="M722.605 599.002H642.444V602.422H722.605V599.002Z" fill="#F2B9A7"/>
<path d="M725.474 628.587H639.576V632.006H725.474V628.587Z" fill="#F2B9A7"/>
<path d="M728.342 658.321H637.614V661.74H728.342V658.321Z" fill="#F2B9A7"/>
<path d="M655.577 434.278H709.471C711.132 434.278 712.641 432.94 712.641 431.156C712.641 429.521 711.283 428.034 709.471 428.034H655.577C653.917 428.034 652.407 429.372 652.407 431.156C652.407 432.94 653.917 434.278 655.577 434.278Z" fill="#F2B9A7"/>
<path d="M674.59 302.855C674.59 302.855 679.571 304.491 686.817 315.195C693.913 326.048 709.009 365.742 709.009 365.742L659.191 372.581C659.191 372.581 639.566 325.453 638.207 323.52C635.943 320.398 635.641 317.127 635.641 317.127L641.076 310.883L674.59 302.855Z" fill="url(#paint2_linear)"/>
<g opacity="0.61">
<path opacity="0.61" d="M674.288 334.67C674.59 333.927 674.891 333.332 675.344 332.589C676.552 329.913 674.74 323.223 677.307 322.777C679.722 322.331 696.177 350.28 695.271 351.173C694.969 351.47 688.478 344.482 687.874 344.631C685.308 345.523 682.138 340.171 679.42 339.874C677.76 339.725 675.797 339.13 675.042 337.495" fill="#F9D8CD"/>
</g>
<path d="M711.575 373.919C711.575 373.919 712.33 390.421 712.179 396.516C712.028 400.828 712.028 410.342 711.575 414.951C711.424 416.14 711.726 417.181 712.179 418.222C714.897 423.574 716.859 429.223 717.765 435.17L720.482 452.118L699.347 454.794L683.647 404.396C683.647 404.396 688.931 384.028 690.591 383.879C691.95 383.879 711.575 373.919 711.575 373.919Z" fill="url(#paint3_linear)"/>
<path d="M745.843 528.533C749.617 514.41 751.731 499.543 751.731 484.23C751.731 469.958 749.919 456.132 746.598 443.049L714.745 446.469C710.82 430.412 704.479 415.397 696.176 401.571L721.387 381.649C713.99 369.013 704.781 357.119 693.761 346.266C689.534 342.104 685.005 338.09 680.476 334.373C679.269 333.332 678.061 332.44 676.853 331.548C671.57 327.534 666.135 323.966 660.549 320.547L640.32 345.374C638.66 344.334 637.15 343.442 635.489 342.55C633.678 341.509 631.866 340.468 629.904 339.576C619.034 333.927 607.259 329.467 595.182 326.345L598.805 294.679C584.464 290.962 569.368 288.88 553.818 288.88C539.326 288.88 525.286 290.665 511.851 293.935L515.474 325.453C499.17 329.17 483.772 335.414 469.732 343.442L449.654 318.614C436.822 325.899 424.745 334.968 413.725 345.82C403.459 355.93 394.854 366.931 387.759 378.527L412.819 398.3C404.214 411.978 397.572 426.993 393.345 442.901L361.492 439.333C357.717 453.456 355.604 468.323 355.604 483.636C355.604 497.908 357.416 511.734 360.737 524.965L392.439 521.546C396.213 537.602 402.553 552.766 410.856 566.592L385.797 586.365C393.194 599.002 402.403 610.896 413.423 621.748C423.688 631.858 434.86 640.332 446.635 647.319L466.562 622.789C480.45 631.263 495.698 637.804 512.002 642.116L508.53 673.336C522.871 677.053 537.967 679.134 553.516 679.134C568.009 679.134 581.898 677.35 595.333 674.079L591.861 643.008C608.165 639.142 623.714 633.047 637.754 624.87L657.681 649.401C670.513 642.116 682.59 633.047 693.61 622.194C703.876 612.085 712.48 601.083 719.576 589.487L694.667 569.714C703.272 556.037 709.914 541.022 713.99 524.965L745.843 528.533ZM655.416 487.501C653.756 539.981 610.279 582.649 556.989 584.433C498.113 586.217 450.107 538.94 451.918 480.96C453.579 428.48 497.056 385.812 550.346 384.028C609.222 382.095 657.379 429.52 655.416 487.501Z" fill="white"/>
<path d="M553.668 608.368C519.852 608.368 488.301 595.583 464.298 571.945C439.389 547.414 426.255 514.707 427.312 479.919C429.425 414.505 483.168 361.728 549.441 359.646C584.766 358.457 617.978 371.391 642.887 396.07C667.796 420.6 680.93 453.307 679.873 488.096H678.816H679.873C677.759 553.51 624.017 606.287 557.744 608.368C556.536 608.368 555.027 608.368 553.668 608.368ZM553.819 361.728C552.46 361.728 551.101 361.728 549.743 361.728C484.527 363.809 431.841 415.694 429.727 479.919C428.671 514.113 441.502 546.225 465.958 570.309C490.414 594.393 523.173 607.179 557.895 605.99C623.111 603.908 675.797 552.023 677.91 487.798C678.967 453.605 666.135 421.492 641.679 397.259C617.978 374.365 586.88 361.728 553.819 361.728Z" fill="#F9D8CA"/>
<path d="M303.552 619.816C305.212 613.869 305.967 607.625 305.967 601.083C305.967 594.988 305.212 589.19 303.854 583.541L290.418 585.027C288.757 578.189 286.04 571.796 282.568 565.998L293.286 557.524C290.116 552.172 286.191 547.117 281.662 542.508C277.284 538.197 272.604 534.629 267.622 531.656L259.018 542.211C253.13 538.643 246.79 535.818 239.845 534.034L241.355 520.654C235.316 519.019 228.976 518.275 222.334 518.275C216.144 518.275 210.256 519.019 204.52 520.357L206.03 533.737C199.085 535.372 192.594 537.9 186.706 541.319L178.101 530.763C172.667 533.886 167.534 537.751 162.854 542.211C158.476 546.522 154.853 551.131 151.834 556.037L162.401 564.362C158.778 570.161 155.91 576.553 154.098 583.243L140.512 581.757C138.851 587.703 138.096 593.947 138.096 600.489C138.096 606.584 138.851 612.382 140.21 618.032L153.645 616.545C155.306 623.384 157.872 629.776 161.495 635.574L150.928 643.9C154.098 649.252 158.023 654.307 162.552 658.915C166.93 663.227 171.61 666.795 176.592 669.768L185.046 659.361C190.933 662.929 197.425 665.754 204.218 667.538L202.708 680.77C208.747 682.405 215.087 683.148 221.73 683.148C227.919 683.148 233.807 682.405 239.543 681.067L238.034 667.984C244.978 666.349 251.469 663.821 257.508 660.253L265.962 670.66C271.396 667.538 276.529 663.673 281.209 659.213C285.587 654.901 289.21 650.293 292.229 645.387L281.662 637.061C285.285 631.263 288.153 624.87 289.814 618.032L303.552 619.816ZM265.207 602.421C264.452 624.573 246.035 642.71 223.541 643.454C198.632 644.197 178.252 624.127 179.007 599.597C179.762 577.445 198.179 559.308 220.673 558.564C245.733 557.821 266.113 577.891 265.207 602.421Z" fill="white"/>
<path d="M222.183 653.712C207.842 653.712 194.557 648.211 184.292 638.251C173.724 627.844 168.139 614.018 168.591 599.299C169.497 571.647 192.293 549.198 220.372 548.306C235.317 547.86 249.357 553.361 259.924 563.768C270.491 574.175 276.077 588.001 275.624 602.719H275.171H275.624C274.718 630.371 251.923 652.82 223.844 653.712C223.391 653.712 222.787 653.712 222.183 653.712ZM222.183 549.198C221.579 549.198 220.976 549.198 220.372 549.198C192.746 550.09 170.403 572.093 169.497 599.299C169.044 613.72 174.479 627.398 184.895 637.656C195.312 647.914 209.05 653.266 223.844 652.82C251.47 651.928 273.813 629.925 274.718 602.719C275.171 588.298 269.737 574.621 259.32 564.362C249.357 554.55 236.223 549.198 222.183 549.198Z" fill="#F9D8CA"/>
<path d="M289.21 689.838C289.21 692.217 267.622 694.001 241.053 694.001C214.483 694.001 192.896 692.068 192.896 689.838C192.896 687.46 214.483 685.676 241.053 685.676C267.622 685.676 289.21 687.46 289.21 689.838Z" fill="#FCF2EB"/>
<path d="M296.457 490.028C297.514 489.285 299.778 487.501 300.08 486.163C300.231 485.568 301.288 483.784 302.194 482.149C302.647 481.108 304.005 479.176 304.458 478.73C305.062 477.986 305.817 476.202 306.421 476.797C307.175 477.392 306.27 479.176 305.666 480.365C305.515 480.811 305.213 481.108 305.213 481.554C305.213 482 305.213 482.298 305.515 482.595C305.666 482.744 306.572 482.744 307.024 482.744C309.44 482.446 310.497 482.446 312.308 481.703C314.12 480.811 314.12 480.811 315.78 479.77C316.082 479.622 316.384 479.176 317.139 479.027C317.441 479.027 317.894 479.027 317.894 479.473C317.894 479.77 316.535 481.108 316.384 481.257C315.327 482.149 316.384 481.406 315.327 482.298C315.176 482.446 315.025 482.595 315.025 482.744C315.025 482.892 315.025 483.041 315.176 483.338C315.176 483.636 315.025 483.933 314.874 484.23C314.573 484.676 314.12 485.122 313.818 485.568C313.214 486.163 313.818 486.46 313.214 487.055C312.459 487.65 310.648 488.244 310.044 488.839C309.44 489.285 308.987 489.731 308.232 490.028C307.477 490.474 306.723 490.623 305.817 490.92C303.552 491.515 302.647 493.299 300.835 494.935" fill="#FEAF84"/>
<path d="M306.723 490.326C306.723 490.326 309.591 489.731 311.704 488.542C313.818 487.352 316.686 486.163 318.045 484.379C318.196 484.23 318.196 483.933 318.196 483.784C318.196 483.636 317.29 483.487 316.535 483.933C315.931 484.23 312.61 485.866 312.61 485.866" fill="#FEAF84"/>
<path d="M306.119 489.434C306.119 489.434 309.591 488.393 311.855 487.204C313.969 486.014 317.743 484.379 318.951 482.446C319.102 482.298 319.102 482 318.951 481.852C318.951 481.703 318.045 481.554 317.29 482C316.686 482.298 312.761 484.379 312.761 484.379" fill="#FEAF84"/>
<path d="M307.024 487.352C307.024 487.352 310.497 486.312 312.761 485.122C314.874 483.933 317.743 482.446 319.101 480.96C319.252 480.811 319.252 480.514 319.101 480.365C319.101 480.216 318.196 480.068 317.441 480.514C316.837 480.811 313.516 482.446 313.516 482.446" fill="#FEAF84"/>
<path d="M304.005 493.002C304.005 493.002 303.703 492.258 303.25 491.366C302.495 489.88 300.986 487.947 298.721 487.055C298.721 487.055 288.154 494.786 283.776 497.313C283.323 497.462 283.021 497.759 282.568 497.908C282.568 497.908 282.417 497.908 282.266 498.057C278.794 499.841 273.963 501.773 270.038 504.449C267.019 494.637 262.188 474.567 255.395 469.215C253.734 467.877 251.772 467.431 249.809 468.472C249.809 468.472 239.544 475.31 246.337 492.407C248.752 498.354 251.923 503.26 255.093 507.125C258.565 511.437 262.188 514.559 264.302 516.194C264.302 516.194 267.472 519.316 270.642 519.167C273.661 518.87 276.681 516.343 276.681 516.343C285.285 510.545 304.005 493.002 304.005 493.002Z" fill="url(#paint4_linear)"/>
<path opacity="0.08" d="M304.005 493.002C304.005 493.002 303.703 492.258 303.25 491.366C299.778 494.786 285.738 507.125 278.492 512.477C270.642 518.275 268.227 516.789 268.227 516.789C267.774 516.64 267.321 516.343 266.868 516.045C264.151 514.113 262.792 510.991 262.792 507.869C262.943 497.016 261.584 487.352 261.584 487.352C261.584 487.352 257.508 499.692 255.093 507.125C258.565 511.437 262.188 514.559 264.302 516.194C264.302 516.194 267.472 519.316 270.642 519.167C273.661 518.87 276.68 516.343 276.68 516.343C285.285 510.545 304.005 493.002 304.005 493.002Z" fill="black"/>
<path d="M253.131 432.345C253.131 432.345 256.301 437.549 252.829 441.414C249.357 445.428 245.885 435.17 245.885 435.17L253.131 432.345Z" fill="#301B2C"/>
<path d="M215.088 477.986C215.088 480.365 215.541 483.19 216.144 486.609C217.654 495.38 221.579 505.936 224.145 512.477C225.655 516.343 225.957 520.505 225.051 524.519C223.24 532.547 225.353 533.142 225.353 533.142C225.353 533.142 236.373 539.981 245.582 542.805C251.47 544.59 256.451 544.589 257.508 539.386C257.508 539.089 257.659 538.791 257.659 538.494C258.716 538.345 258.716 537.156 258.565 536.71C258.565 536.561 258.565 536.264 258.414 535.818C258.263 535.223 258.263 534.48 258.263 534.183C257.961 518.127 260.678 519.019 261.584 501.03C262.49 482.595 261.282 474.27 256.301 469.809C252.828 466.539 250.111 465.201 244.978 464.309C239.997 463.417 234.26 464.755 227.919 466.241C218.258 468.471 215.088 470.999 215.088 477.986Z" fill="url(#paint5_linear)"/>
<path opacity="0.08" d="M215.088 477.986C215.088 480.365 215.541 483.19 216.144 486.609C217.654 495.38 221.579 505.936 224.145 512.477C225.655 516.343 225.957 520.505 225.051 524.519C223.24 532.547 225.353 533.142 225.353 533.142C225.353 533.142 236.373 539.981 245.582 542.805L254.187 542.062L257.508 539.535C257.508 539.237 257.659 538.94 257.659 538.643C250.262 538.94 235.166 533.737 231.996 532.547C229.731 531.655 228.523 529.425 228.825 527.195C229.429 524.073 230.033 519.465 230.033 516.045C230.033 512.477 228.372 506.53 227.014 502.219C225.957 498.948 225.655 495.38 225.806 491.961C226.259 486.014 225.806 480.365 225.806 480.365L219.013 476.797L215.088 477.986Z" fill="black"/>
<path d="M223.994 546.522C223.24 546.671 221.277 543.252 221.277 543.252L222.183 542.211C222.636 541.616 223.391 541.17 224.145 540.873H224.296C224.9 540.724 225.655 540.873 226.108 541.468C226.712 542.36 227.618 543.252 228.674 543.252C228.674 543.252 228.674 543.252 228.825 543.252C229.429 543.103 224.749 546.374 223.994 546.522Z" fill="#F4D5B5"/>
<path d="M251.319 461.336C249.054 461.782 246.035 461.484 245.28 461.484C245.28 461.633 245.28 462.525 245.431 463.417C245.431 463.566 245.431 463.566 245.431 463.714C245.431 464.606 245.582 465.35 245.582 465.35L244.978 470.256L240.751 468.323L234.411 466.539C234.411 466.539 234.26 462.079 233.958 459.998C233.958 459.552 233.807 459.254 233.807 459.106C233.656 458.511 231.241 454.199 229.58 449.888C228.674 447.658 227.92 445.577 227.769 443.941C227.769 443.644 227.769 443.495 227.769 443.347C227.769 442.157 227.769 440.968 227.92 439.927C228.07 436.657 228.674 433.535 230.788 431.899C233.656 429.521 252.828 421.641 253.281 435.319C253.281 435.319 253.432 436.359 253.583 438.143C253.734 439.333 253.885 440.819 253.885 442.455C254.489 450.037 254.64 460.592 251.319 461.336Z" fill="#FEAF84"/>
<path d="M245.432 463.863C241.205 462.673 238.487 460.443 238.487 460.443C243.167 461.633 245.281 461.484 245.281 461.484C245.281 461.633 245.281 462.525 245.432 463.417C245.432 463.565 245.432 463.714 245.432 463.863Z" fill="#F29D77"/>
<path d="M244.525 473.824C244.525 473.824 246.79 508.166 244.827 520.357C244.827 520.357 247.243 526.898 248.903 527.493C250.564 528.087 251.621 524.222 253.281 519.911C254.791 515.748 247.545 473.526 247.545 473.526L244.525 473.824Z" fill="#FFE600"/>
<path d="M242.714 471.594L244.526 473.824L247.545 473.526C247.545 473.526 247.696 472.486 247.696 469.809C247.696 469.809 245.884 468.769 244.828 468.769L242.714 471.594Z" fill="#FFE600"/>
<path d="M234.109 462.822C234.109 462.822 232.75 463.565 231.392 465.498C231.392 465.498 233.203 466.242 234.713 467.134C236.071 468.026 242.865 472.634 242.865 472.634L244.827 468.62C244.827 468.769 238.034 463.863 234.109 462.822Z" fill="url(#paint6_linear)"/>
<path d="M244.828 468.769C244.828 468.769 247.243 469.512 247.847 471.296C247.847 471.296 249.054 469.066 247.545 464.904C247.545 464.904 246.337 463.714 245.281 463.268L244.828 468.769Z" fill="url(#paint7_linear)"/>
<path d="M226.108 540.873C226.108 540.873 227.316 542.36 227.769 542.657C228.071 542.806 228.222 542.36 228.071 542.062C227.92 541.765 226.259 540.427 226.108 540.873Z" fill="#E5BB98"/>
<path d="M220.22 671.552C220.22 671.552 220.673 680.472 220.673 681.662C220.673 682.256 225.051 683 227.165 681.662C227.316 678.391 228.372 671.552 228.523 669.619" fill="#FFBE9D"/>
<path d="M220.824 572.836C220.824 572.836 208.294 551.726 225.202 533.142C225.202 533.142 236.826 538.345 246.186 538.94C253.583 539.386 257.357 538.643 257.357 538.643C257.357 538.643 260.528 554.55 259.924 574.918L220.824 572.836Z" fill="#3E2739"/>
<path d="M247.545 668.43L248.601 681.662L251.923 683.148L255.093 681.662L255.546 669.917" fill="#FFBE9D"/>
<path d="M260.075 620.41C259.622 631.858 256.3 653.415 256.3 676.756C253.13 678.688 248.903 678.242 247.394 677.053C244.978 656.983 238.336 636.318 245.431 619.072C242.714 608.666 238.185 586.811 236.373 576.702C236.373 576.553 236.373 576.256 236.222 576.107L237.883 571.35C237.43 558.564 245.884 549.05 254.64 552.32C256.602 553.064 259.471 558.564 259.773 562.43C260.075 565.552 259.773 613.572 259.924 614.761C260.075 616.099 260.075 617.288 259.924 618.329C260.075 618.924 260.075 619.667 260.075 620.41Z" fill="#3E2739"/>
<path d="M246.035 658.469C247.696 675.417 247.545 676.904 247.545 676.904C245.281 657.875 239.242 639.737 244.526 621.748C245.13 619.667 245.28 617.586 244.677 615.653C241.959 604.503 238.034 585.622 236.525 576.553L238.789 574.621C238.789 574.621 242.563 558.416 243.469 557.821C244.375 557.226 243.318 563.322 242.714 570.904C242.11 578.486 240.903 583.095 242.865 592.015C244.828 601.083 248.3 613.423 249.055 618.478C246.337 626.357 244.375 641.521 246.035 658.469Z" fill="#301B2C"/>
<path d="M235.769 619.072C233.656 630.371 229.278 663.227 228.523 676.309C228.221 678.539 220.824 678.093 219.616 677.053C219.616 676.904 219.616 673.187 219.616 673.039C219.314 657.726 214.785 630.074 221.428 615.95C225.504 607.476 238.034 606.881 235.769 619.072Z" fill="#3E2739"/>
<path d="M240.148 573.728C239.695 558.713 232.6 547.86 224.146 553.807C220.523 556.334 216.447 558.267 217.051 562.132C218.258 568.822 221.278 609.112 221.127 616.396C220.825 633.047 234.411 626.803 235.317 622.194C237.582 610.301 240.299 581.905 240.148 573.728Z" fill="#3E2739"/>
<path d="M247.545 689.541C247.545 689.69 247.846 689.838 247.997 689.838H252.677C252.677 689.838 258.414 689.838 260.527 689.838H267.925C269.132 689.838 269.887 689.392 269.887 688.946C270.038 688.054 269.132 687.757 268.679 687.608C268.679 687.608 258.112 683.148 257.508 683L255.093 681.662C255.093 681.662 253.13 682.108 251.772 682.108C250.413 682.108 248.601 681.662 248.601 681.662C248.601 681.662 245.733 684.932 247.545 689.541Z" fill="#001118"/>
<path d="M219.767 689.541C219.767 689.69 220.069 689.838 220.22 689.838H224.9C224.9 689.838 230.637 689.838 232.75 689.838H240.147C241.355 689.838 242.11 689.392 242.11 688.946C242.261 688.054 241.355 687.757 240.902 687.608C240.902 687.608 230.335 683.148 229.731 683L227.165 681.81C227.165 681.81 225.202 682.256 223.843 682.256C222.485 682.256 220.673 681.81 220.673 681.81C220.673 681.81 217.956 684.932 219.767 689.541Z" fill="#001118"/>
<path d="M253.282 435.467C252.678 436.062 251.923 436.805 250.564 437.251C247.998 438.441 243.922 439.184 237.582 439.333C237.582 439.333 236.374 439.779 236.676 442.306C236.676 442.603 236.827 442.901 236.827 443.347C237.582 446.915 238.789 450.037 237.129 449.888C235.166 449.591 234.411 442.306 231.392 444.833C230.335 445.725 230.637 447.212 230.788 448.55C230.939 449.442 231.392 450.78 231.996 452.118C233.355 455.091 234.411 457.619 234.26 459.551C234.26 459.997 233.958 460.146 233.808 460.295C233.657 460.295 233.355 460.295 233.204 460.295C232.751 460.146 232.298 458.511 231.392 456.875C230.033 454.348 228.373 451.226 226.863 446.915C226.561 446.171 226.259 445.279 226.108 444.536C225.957 443.941 225.806 443.198 225.656 442.603C224.448 437.4 225.203 432.643 231.543 428.034C239.695 422.236 250.564 426.844 250.564 426.844C250.564 426.844 256.452 431.602 253.282 435.467Z" fill="#301B2C"/>
<path d="M218.862 569.566L199.841 542.062L236.525 513.964L255.546 541.467L218.862 569.566Z" fill="#C98455"/>
<path d="M255.546 541.468L232.751 558.862L232.298 559.308L218.862 569.566L197.576 542.657L211.616 531.804L214.635 529.425L234.26 514.41L255.546 541.468Z" fill="#E59A67"/>
<path d="M232.751 558.862L232.298 559.308C232.298 559.308 231.09 557.821 230.486 556.78C229.882 555.74 229.731 554.253 229.731 554.253L228.826 553.361H228.071C228.071 553.361 226.712 552.469 221.428 546.076C217.352 541.17 213.125 534.48 211.465 531.804L214.635 529.425L226.108 540.873L232.751 558.862Z" fill="#D38E5F"/>
<path d="M228.825 551.428C228.825 551.428 230.788 553.658 231.241 555.442C231.543 556.632 235.015 551.874 235.015 551.874L232.449 548.157" fill="#FEAF84"/>
<path d="M219.315 469.364C219.315 469.364 209.503 471.296 204.219 516.64L215.088 521.695C215.088 521.695 227.165 485.717 225.958 478.878C224.75 472.188 224.448 468.472 219.315 469.364Z" fill="url(#paint8_linear)"/>
<path d="M204.219 516.64C204.219 516.64 215.088 539.386 228.826 552.32L233.355 549.198C233.355 549.198 224.901 526.155 214.484 513.072C204.219 499.989 204.219 516.64 204.219 516.64Z" fill="url(#paint9_linear)"/>
<path d="M239.091 553.807L238.487 554.253C238.487 554.253 236.826 552.915 234.713 552.023C234.562 551.874 234.411 551.726 234.26 551.726C235.015 551.428 236.072 550.834 235.166 550.834C233.958 550.834 233.505 550.239 233.505 550.239L232.298 550.834L233.203 551.726C232.298 552.023 231.241 553.212 230.939 553.658L230.637 553.212C230.637 553.212 230.486 554.402 230.939 555.74C231.241 557.078 232.599 559.01 232.599 559.01C232.75 559.308 233.656 560.2 234.26 560.2C234.864 560.2 235.015 559.754 235.166 559.605C235.468 559.308 235.619 559.605 236.072 559.308C236.524 559.01 236.524 558.713 236.826 558.416C236.977 558.267 237.581 558.267 238.034 558.118C238.487 557.97 238.487 557.375 238.789 557.226C239.242 556.929 239.695 556.929 239.997 556.334C239.997 555.591 239.091 553.807 239.091 553.807Z" fill="#FEAF84"/>
<path d="M232.75 550.239C232.75 550.239 233.203 550.09 233.958 550.388C234.713 550.685 235.619 550.685 236.676 551.28C237.732 551.874 240.299 553.51 240.45 553.956C240.601 554.402 240.299 554.848 239.091 554.848C237.883 554.848 233.354 552.469 233.354 552.469" fill="#FEAF84"/>
<path opacity="0.43" d="M253.886 442.603C244.828 444.536 237.582 442.157 237.582 442.157C237.28 442.306 236.827 442.306 236.525 442.455C233.808 443.049 230.033 443.793 227.769 444.239C227.014 444.387 226.41 444.536 226.108 444.536C225.957 443.941 225.806 443.198 225.656 442.603C225.806 442.009 226.108 441.563 226.108 441.414C226.108 441.265 227.014 440.671 227.92 440.076C228.826 439.481 229.882 438.738 230.184 438.589C230.788 438.143 241.809 434.427 241.96 434.427C242.111 434.427 247.092 436.062 250.564 437.251C251.772 437.697 252.829 437.995 253.584 438.292C253.735 439.481 253.886 440.968 253.886 442.603Z" fill="#FEAF84"/>
<path d="M255.244 434.129C254.489 430.561 251.62 420.898 240.147 421.79C223.239 423.276 222.937 434.129 224.9 442.157C224.9 442.157 224.145 442.603 224.447 443.347C224.447 443.347 224.749 443.941 225.504 443.941C225.504 443.941 227.466 443.793 229.731 443.198C236.071 442.009 247.846 439.184 254.791 435.616C254.942 435.616 255.244 435.616 255.395 435.319C256.3 434.575 255.244 434.129 255.244 434.129Z" fill="#FFB21E"/>
<path d="M231.24 424.168C231.24 424.168 244.072 421.046 248.45 438.441C248.45 438.441 250.564 437.846 253.583 436.508C253.583 436.508 250.866 422.979 240.298 421.938C240.147 421.938 234.713 420.154 231.24 424.168Z" fill="#FFBF4D"/>
<path d="M236.524 441.117C236.524 441.117 245.582 444.09 255.395 441.117C255.395 441.117 262.49 439.035 255.395 435.467L236.524 441.117Z" fill="#FFB21E"/>
<path d="M408.622 689.838C408.622 692.217 387.034 694.001 360.465 694.001C333.895 694.001 312.307 692.068 312.307 689.838C312.307 687.46 333.895 685.676 360.465 685.676C387.034 685.676 408.622 687.46 408.622 689.838Z" fill="#FCF2EB"/>
<path d="M308.987 514.113C304.911 513.667 302.495 511.883 300.08 510.991C297.664 510.099 297.513 512.031 295.853 511.883C294.192 511.734 285.889 512.923 288.154 513.815C290.418 514.856 295.4 513.667 295.551 514.707C295.702 515.599 295.853 515.599 295.249 517.829C294.645 520.059 297.966 520.505 300.08 521.1C302.193 521.695 304.609 519.316 305.816 519.465C307.024 519.613 310.647 519.613 310.647 519.613C310.647 519.613 336.462 522.587 340.387 521.695C344.312 520.803 346.576 497.759 346.576 497.759L335.405 496.867C335.405 496.867 333.141 511.883 332.537 512.477C327.555 512.18 308.987 514.113 308.987 514.113Z" fill="#FFCCB0"/>
<path d="M343.708 469.215C343.708 469.215 339.179 471.445 337.066 483.933L334.65 499.395C334.65 499.395 335.858 501.327 345.822 501.476" fill="#7E3838"/>
<path d="M388.695 478.581C388.695 480.96 388.242 483.784 387.638 487.204C386.128 495.975 382.203 506.531 379.637 513.072C378.127 516.937 377.825 521.1 378.731 525.114C380.543 533.142 378.429 533.737 378.429 533.737C378.429 533.737 367.409 540.576 358.2 543.4C352.312 545.184 347.331 545.184 346.274 539.981C346.274 539.684 346.123 539.386 346.123 539.089C345.066 538.94 345.066 537.751 345.217 537.305C345.217 537.156 345.217 536.859 345.368 536.413C345.519 535.818 345.519 535.075 345.519 534.778C345.821 518.721 343.104 519.613 342.198 501.625C341.292 483.19 344.01 474.121 344.462 468.769C349.293 466.985 353.067 466.093 358.049 465.201C361.37 464.606 365.295 464.606 369.22 465.35C371.183 465.796 373.598 466.242 375.712 466.688C385.675 469.215 388.846 471.594 388.695 478.581Z" fill="#7E3838"/>
<path d="M379.939 547.266C380.694 547.414 382.656 543.995 382.656 543.995L381.75 542.954C381.298 542.36 380.543 541.914 379.788 541.616H379.637C379.033 541.468 378.278 541.616 377.825 542.211C377.222 543.103 376.316 543.995 375.259 543.995C375.259 543.995 375.259 543.995 375.108 543.995C374.504 543.846 379.184 547.117 379.939 547.266Z" fill="#F4D5B5"/>
<path d="M377.825 541.616C377.825 541.616 376.618 543.103 376.165 543.4C375.863 543.549 375.712 543.103 375.863 542.806C376.014 542.508 377.674 541.17 377.825 541.616Z" fill="#E5BB98"/>
<path d="M390.658 671.998C390.658 671.998 390.205 680.918 390.205 682.108C390.205 682.702 385.827 683.446 383.713 682.108C383.562 678.837 382.506 671.998 382.355 670.066" fill="#FFBE9D"/>
<path d="M381.448 573.58C381.448 573.58 393.978 552.469 377.07 533.885C377.07 533.885 365.446 539.089 356.086 539.684C348.689 540.13 344.915 539.386 344.915 539.386C344.915 539.386 341.744 555.294 342.348 575.661L381.448 573.58Z" fill="#FFB41D"/>
<path d="M353.067 669.025L352.01 682.256L348.538 683.743L345.519 682.108L344.915 670.512" fill="#FFBE9D"/>
<path d="M391.11 673.188C390.657 657.875 391.865 626.654 384.468 612.977C384.468 612.68 384.468 612.382 384.317 612.085C383.26 604.8 384.77 569.566 385.223 562.727C385.374 560.349 383.26 558.267 380.694 556.483C383.864 554.848 385.827 553.807 385.827 553.807C384.468 543.252 382.203 538.643 381.147 530.02C380.09 521.249 385.374 503.557 386.128 493.894C384.921 496.124 379.939 499.097 377.675 491.218C375.41 483.338 379.033 467.877 379.033 467.877C377.222 467.134 374.806 466.836 374.806 466.836C372.089 472.932 369.975 484.23 369.975 484.23C354.426 482.298 346.576 483.784 346.425 483.784C346.123 477.094 346.576 468.62 346.727 468.472C344.765 468.769 343.406 469.512 343.406 469.512C342.802 472.04 342.349 480.216 342.047 485.122C341.292 492.705 342.198 514.41 342.198 524.966C342.198 531.656 341.594 551.874 341.141 562.43C341.141 562.727 340.99 563.173 340.99 563.471C340.99 564.065 340.991 565.998 340.84 568.823C340.689 581.311 340.84 610.301 340.84 611.193C340.689 612.531 340.689 613.72 340.84 614.761C340.84 615.356 340.84 616.099 340.84 616.694C341.292 628.141 344.161 654.158 344.01 677.499C347.18 679.432 351.407 678.986 352.917 677.796C355.332 657.726 362.578 632.601 355.483 615.356C357.747 606.882 361.069 593.799 363.333 583.838C364.843 593.65 367.711 607.922 370.126 616.991C370.126 616.991 370.126 616.991 370.126 617.14C372.844 628.29 380.694 664.119 382.203 677.202C382.656 679.432 389.903 678.54 391.261 677.499C391.261 677.053 391.11 673.336 391.11 673.188ZM362.427 565.403C362.427 565.106 362.276 564.809 362.276 564.66C362.427 564.66 362.578 564.511 362.578 564.511C362.578 564.66 362.578 565.106 362.427 565.403Z" fill="url(#paint10_linear)"/>
<path d="M355.03 659.213C353.369 676.161 353.067 677.648 353.067 677.648C355.332 658.618 361.823 636.021 356.691 618.18C356.087 616.099 355.936 614.018 356.54 612.085C359.257 600.935 363.182 586.663 364.692 577.445L362.427 575.513C362.427 575.513 358.653 559.308 357.747 558.713C356.842 558.119 357.898 564.214 358.502 571.796C359.106 579.378 360.314 583.987 358.351 592.907C356.389 601.976 352.916 609.706 352.162 614.761C354.728 622.492 356.691 642.116 355.03 659.213Z" fill="url(#paint11_linear)"/>
<path d="M353.068 689.987C353.068 690.136 352.766 690.284 352.615 690.284H347.935C347.935 690.284 342.198 690.284 340.085 690.284H332.688C331.48 690.284 330.725 689.838 330.725 689.392C330.574 688.5 331.48 688.203 331.933 688.054C331.933 688.054 342.5 683.594 343.104 683.446L345.671 682.256C345.671 682.256 347.633 682.702 348.992 682.702C350.35 682.702 352.162 682.256 352.162 682.256C352.162 682.256 354.728 685.527 353.068 689.987Z" fill="#001118"/>
<path d="M391.261 689.987C391.261 690.136 390.959 690.284 390.808 690.284H386.128C386.128 690.284 380.392 690.284 378.278 690.284H370.881C369.673 690.284 368.918 689.838 368.918 689.392C368.767 688.5 369.673 688.203 370.126 688.054C370.126 688.054 380.693 683.594 381.297 683.446L383.864 682.256C383.864 682.256 385.826 682.702 387.185 682.702C388.544 682.702 390.355 682.256 390.355 682.256C390.355 682.256 393.072 685.527 391.261 689.987Z" fill="#001118"/>
<path d="M362.729 561.686C361.069 561.686 359.559 563.024 359.559 564.808V569.715H361.522V564.957C361.522 564.214 362.125 563.47 363.031 563.47H384.921C385.676 563.47 386.43 564.065 386.43 564.957V569.715H388.393V564.808C388.393 563.173 387.034 561.686 385.223 561.686H362.729Z" fill="#7E3838"/>
<path d="M376.165 550.685C376.165 550.685 374.957 554.104 373.146 555.294C372.391 555.74 369.07 557.672 368.617 558.564C368.315 559.308 366.805 561.686 366.805 562.43C366.805 563.173 367.409 565.255 368.013 565.403C368.617 565.552 367.711 567.039 368.315 567.633C368.919 568.228 369.976 568.377 370.579 567.931C371.183 567.485 371.938 568.228 372.542 568.079C373.146 567.782 373.448 567.485 373.901 567.336C374.354 567.187 374.505 567.782 375.561 567.336C376.467 566.89 376.316 566.593 376.769 566.444C377.222 566.147 377.373 566.593 378.128 565.849C378.731 565.106 379.335 563.917 379.788 562.876C380.241 561.835 380.543 560.051 380.392 558.416C380.241 557.524 381.147 554.253 382.506 552.172L376.165 550.685Z" fill="#FFCCB0"/>
<path d="M368.617 565.106C369.221 563.916 368.919 563.024 369.07 562.132C369.07 561.389 369.523 561.24 369.523 560.497C370.127 561.389 369.523 561.538 369.523 563.322C369.523 564.065 369.523 564.957 369.07 565.552C368.919 565.552 368.617 565.403 368.617 565.106Z" fill="#F2A181"/>
<path d="M362.729 561.686H369.221C369.221 561.835 369.221 561.984 369.07 562.132C369.07 562.578 369.07 563.173 369.07 563.619H362.88C362.125 563.619 361.37 564.214 361.37 565.106V569.863H359.408V564.957C359.559 563.024 360.918 561.686 362.729 561.686Z" fill="#7E3838"/>
<path d="M386.128 524.073C386.128 524.073 383.411 528.98 382.656 532.399C381.901 535.67 374.957 554.55 374.957 554.55L379.184 557.821C379.184 557.821 393.525 536.264 394.733 528.979C395.035 526.898 391.261 521.249 391.261 521.249L386.128 524.073Z" fill="#FFCCB0"/>
<path d="M381.902 504.747C381.902 504.747 384.166 520.059 386.129 524.073C387.94 528.087 394.733 528.831 394.733 528.831C394.733 528.831 396.545 516.343 395.035 504.301" fill="#FFCCB0"/>
<path d="M395.488 506.531C388.242 507.274 384.769 507.125 382.203 506.828C379.033 496.124 376.768 482.892 377.523 479.027C378.731 472.188 378.58 467.282 383.411 469.215C383.26 469.215 396.997 473.675 395.488 506.531Z" fill="#7E3838"/>
<path d="M396.394 575.067H351.407V571.499C351.407 570.458 352.313 569.715 353.219 569.715H394.432C395.488 569.715 396.243 570.607 396.243 571.499V575.067H396.394Z" fill="#605C5A"/>
<path d="M395.186 591.123H352.463C352.01 591.123 351.708 590.825 351.708 590.379V574.918H395.789V590.379C395.94 590.825 395.638 591.123 395.186 591.123Z" fill="#605C5A"/>
<path d="M395.941 575.067H351.86V575.81H395.941V575.067Z" fill="#474341"/>
<path d="M360.917 577.148H357.294C356.992 577.148 356.841 576.999 356.841 576.702V573.58C356.841 573.283 356.992 573.134 357.294 573.134H360.917C361.219 573.134 361.37 573.283 361.37 573.58V576.702C361.37 576.851 361.219 577.148 360.917 577.148Z" fill="#FFB41D"/>
<path d="M390.355 577.148H386.732C386.43 577.148 386.279 576.999 386.279 576.702V573.58C386.279 573.283 386.43 573.134 386.732 573.134H390.355C390.657 573.134 390.808 573.283 390.808 573.58V576.702C390.808 576.851 390.506 577.148 390.355 577.148Z" fill="#FFB41D"/>
<path d="M351.256 443.793C351.105 442.603 349.595 442.009 348.689 443.347C347.935 444.536 347.935 446.469 348.085 447.955C348.236 449.739 349.746 449.888 350.803 449.888" fill="#FFCCB0"/>
<path d="M355.181 459.106C355.181 459.106 356.237 464.755 355.935 465.052C355.482 465.796 353.671 466.539 353.671 466.539C353.671 466.539 353.822 471.148 358.804 471.445C367.71 471.891 369.522 465.647 369.522 465.647C369.522 465.647 367.559 464.904 367.408 464.458C367.258 463.863 367.107 452.713 367.107 452.713" fill="#FFCCB0"/>
<path d="M358.653 431.453C357.143 432.048 352.916 431.899 352.01 433.683C351.105 435.467 350.652 439.779 350.501 440.819C350.048 443.198 349.746 445.577 349.444 447.956C349.142 451.078 348.538 456.727 351.859 458.808C352.765 459.403 353.218 459.552 354.275 459.7C355.784 459.7 357.143 459.849 358.653 459.849C360.917 459.998 363.333 459.998 365.446 459.106C368.163 457.768 369.22 453.605 369.522 450.929L371.636 435.17L358.653 431.453Z" fill="#FFCCB0"/>
<path d="M370.881 447.955C369.824 447.509 368.918 447.063 368.465 448.104C368.163 448.699 368.163 449.293 367.56 449.591C366.956 449.888 366.352 449.442 366.05 448.847C365.899 448.253 365.899 447.658 366.05 447.063C366.201 445.725 366.503 444.387 366.654 443.198C366.805 441.86 367.107 440.522 366.352 439.481C366.05 438.887 365.446 438.441 364.993 438.143C363.182 436.954 360.917 436.657 358.804 436.508C356.69 436.359 354.426 436.508 352.312 436.062C351.407 435.913 350.501 435.616 349.746 435.17C348.538 434.427 365.144 426.845 368.616 427.885C371.032 428.629 373.145 428.926 373.598 432.643C373.749 432.94 373.9 433.089 374.202 433.237C376.466 434.873 378.882 435.913 379.033 439.333C379.184 443.347 377.674 449.145 375.712 452.862C375.259 453.754 374.957 454.497 374.202 455.24C373.447 455.984 372.089 456.43 371.032 456.43C369.975 456.43 368.013 456.727 367.711 455.686C367.56 454.943 369.069 453.456 369.371 452.713" fill="#7C4E50"/>
<path d="M367.711 452.416C367.711 452.416 367.711 453.159 368.164 453.605C368.617 454.051 369.372 453.902 369.824 453.605C371.334 452.862 372.089 451.226 372.24 449.739C372.391 447.955 371.032 446.32 369.522 446.915C368.617 447.361 368.164 448.55 368.315 449.442" fill="#FFCCB0"/>
<path d="M355.181 459.7L359.86 459.849C359.86 459.849 358.804 462.079 355.634 462.525" fill="#F2A181"/>
<path d="M368.013 440.373C368.013 440.373 362.729 444.833 349.143 440.968C348.086 440.671 345.067 438.589 349.143 436.805L368.013 440.373Z" fill="#FFB41D"/>
<path d="M349.294 435.616C349.596 432.197 351.408 422.533 362.579 422.236C379.034 421.939 380.543 432.345 379.336 440.373C379.336 440.373 380.091 440.671 379.94 441.563C379.94 441.563 379.789 442.157 379.034 442.157C379.034 442.157 377.222 442.157 374.807 441.86C368.617 441.265 356.842 439.927 349.747 437.103C349.596 437.103 349.294 437.103 349.143 436.805C348.388 435.913 349.294 435.616 349.294 435.616Z" fill="#FFB41D"/>
<path d="M371.485 423.425C371.485 423.425 358.804 421.641 356.389 439.035C356.389 439.035 354.275 438.738 351.256 437.697C351.256 437.697 352.464 424.466 362.578 422.236C362.578 422.236 367.56 419.857 371.485 423.425Z" fill="#FFBF4D"/>
<path d="M817.259 689.838C817.259 692.217 795.671 694.001 769.102 694.001C742.532 694.001 720.944 692.068 720.944 689.838C720.944 687.46 742.532 685.676 769.102 685.676C795.671 685.676 817.259 687.46 817.259 689.838Z" fill="#FCF2EB"/>
<path d="M685.921 451.969L713.245 534.48C713.245 534.48 731.512 536.116 751.59 533.142C766.233 530.912 780.424 522.735 780.424 522.735L757.93 446.469C757.93 446.469 740.57 451.077 727.738 452.564C705.848 455.091 685.921 451.969 685.921 451.969Z" fill="#E59A67"/>
<path opacity="0.2" d="M746.607 509.058C746.909 507.869 747.06 506.531 747.06 505.193C747.06 504.003 746.909 502.665 746.607 501.625L743.739 501.922C743.437 500.584 742.833 499.246 742.079 497.908L744.343 496.124C743.739 494.934 742.833 493.894 741.928 493.002C741.022 492.11 740.116 491.366 739.059 490.772L737.248 493.002C736.04 492.258 734.681 491.664 733.323 491.366L733.625 488.542C732.417 488.244 731.058 488.096 729.7 488.096C728.492 488.096 727.133 488.244 726.077 488.542L726.378 491.366C724.869 491.664 723.661 492.258 722.302 493.002L720.491 490.772C719.283 491.366 718.226 492.258 717.321 493.15C716.415 494.042 715.66 494.934 715.056 495.975L717.321 497.759C716.566 498.948 715.962 500.287 715.66 501.625L712.792 501.327C712.49 502.517 712.339 503.855 712.339 505.193C712.339 506.382 712.49 507.72 712.792 508.761L715.66 508.463C715.962 509.95 716.566 511.288 717.321 512.477L715.056 514.261C715.66 515.451 716.566 516.491 717.472 517.383C718.377 518.275 719.283 519.019 720.34 519.613L722.151 517.383C723.359 518.127 724.718 518.721 726.077 519.019L725.775 521.695C726.982 521.992 728.341 522.141 729.7 522.141C730.907 522.141 732.266 521.992 733.323 521.695L733.021 519.019C734.53 518.721 735.889 518.127 737.097 517.383L738.908 519.613C740.116 519.019 741.173 518.127 742.079 517.235C742.984 516.343 743.739 515.451 744.343 514.41L742.079 512.626C742.833 511.437 743.437 510.099 743.739 508.612L746.607 509.058ZM738.606 505.49C738.455 510.099 734.681 513.815 730.002 513.964C724.869 514.113 720.642 509.95 720.793 504.895C720.944 500.287 724.718 496.57 729.398 496.421C734.53 496.272 738.757 500.435 738.606 505.49Z" stroke="#C0621C" stroke-width="0.5389" stroke-miterlimit="10"/>
<path opacity="0.2" d="M760.044 481.108C760.346 480.216 760.346 479.324 760.346 478.432C760.346 477.54 760.195 476.648 760.044 475.905L758.082 476.054C757.78 475.013 757.478 474.121 756.874 473.229L758.384 472.04C757.931 471.296 757.327 470.553 756.723 469.81C756.119 469.215 755.364 468.62 754.609 468.174L753.402 469.661C752.496 469.215 751.59 468.769 750.684 468.472L750.835 466.539C749.93 466.242 749.024 466.242 748.118 466.242C747.212 466.242 746.306 466.39 745.552 466.539L745.703 468.472C744.646 468.769 743.74 469.066 742.834 469.512L741.627 468.026C740.872 468.472 740.117 469.066 739.362 469.661C738.758 470.256 738.154 470.999 737.702 471.742L739.211 472.932C738.607 473.824 738.305 474.716 738.003 475.608L736.041 475.459C735.739 476.351 735.739 477.243 735.739 478.135C735.739 479.027 735.89 479.919 736.041 480.662L738.003 480.514C738.305 481.554 738.607 482.446 739.06 483.338L737.551 484.528C738.003 485.271 738.607 486.014 739.211 486.758C739.815 487.352 740.57 487.947 741.325 488.393L742.532 486.906C743.438 487.501 744.344 487.798 745.25 488.096L745.099 490.028C746.005 490.326 746.91 490.326 747.816 490.326C748.722 490.326 749.628 490.177 750.382 490.028L750.232 488.096C751.288 487.798 752.194 487.501 753.1 486.906L754.308 488.393C755.062 487.947 755.817 487.352 756.572 486.758C757.176 486.163 757.78 485.42 758.233 484.676L756.723 483.487C757.176 482.595 757.629 481.703 757.931 480.811L760.044 481.108ZM754.458 478.581C754.308 481.852 751.741 484.379 748.42 484.528C744.797 484.676 741.929 481.703 741.929 478.135C742.079 474.864 744.646 472.337 747.967 472.188C751.59 472.188 754.609 475.013 754.458 478.581Z" fill="#C0621C"/>
<path opacity="0.2" d="M734.229 477.54C734.531 476.5 734.681 475.459 734.681 474.27C734.681 473.229 734.531 472.188 734.38 471.296L732.115 471.594C731.813 470.404 731.36 469.364 730.756 468.323L732.568 466.836C731.964 465.944 731.36 465.052 730.605 464.309C729.851 463.565 729.096 462.971 728.19 462.376L726.68 464.16C725.624 463.565 724.567 463.119 723.359 462.822L723.661 460.443C722.604 460.146 721.548 459.997 720.34 459.997C719.283 459.997 718.227 460.146 717.321 460.295L717.623 462.525C716.415 462.822 715.358 463.268 714.301 463.863L712.792 462.079C711.886 462.673 710.98 463.268 710.226 464.011C709.471 464.755 708.867 465.498 708.263 466.39L710.075 467.877C709.471 468.918 709.018 469.958 708.716 471.148L706.451 470.85C706.15 471.891 705.999 472.932 705.999 474.121C705.999 475.162 706.15 476.202 706.3 477.094L708.565 476.797C708.867 477.986 709.32 479.027 709.924 480.068L708.112 481.554C708.716 482.446 709.32 483.338 710.075 484.082C710.829 484.825 711.584 485.42 712.49 486.014L714 484.23C715.056 484.825 716.113 485.271 717.321 485.568L717.019 487.798C718.076 488.096 719.132 488.244 720.34 488.244C721.397 488.244 722.453 488.096 723.359 487.947L723.057 485.717C724.265 485.42 725.322 484.974 726.379 484.379L727.888 486.163C728.794 485.568 729.7 484.974 730.455 484.23C731.209 483.487 731.813 482.744 732.417 481.852L730.605 480.365C731.209 479.324 731.662 478.284 731.964 477.094L734.229 477.54ZM727.737 474.567C727.586 478.432 724.416 481.554 720.491 481.703C716.264 481.852 712.641 478.432 712.792 474.121C712.943 470.256 716.113 467.134 720.038 466.985C724.265 466.836 727.737 470.256 727.737 474.567Z" fill="#C0621C"/>
<path d="M758.838 429.669C758.838 429.669 747.214 432.048 752.95 444.09C759.592 458.213 758.838 429.669 758.838 429.669Z" fill="#7C4E50"/>
<path d="M755.365 434.873C755.365 434.873 752.044 436.954 752.044 447.955C752.044 448.401 750.685 451.523 750.534 451.969C750.081 453.456 750.987 453.605 752.346 454.199C752.799 462.525 754.157 462.376 755.214 463.12C756.422 464.012 766.234 461.93 772.424 458.957C778.613 455.983 780.727 446.915 778.16 441.265C775.443 435.616 762.611 430.115 755.365 434.873Z" fill="#FFC8B0"/>
<path d="M783.293 442.603C784.35 447.807 781.633 455.835 771.367 459.254C771.367 459.254 770.461 456.132 769.706 453.01C769.103 449.888 760.196 446.32 756.422 443.049C756.271 442.901 756.12 442.752 755.818 442.603C753.101 439.779 753.252 435.319 755.667 432.345C757.78 429.818 762.611 425.507 771.065 428.331C778.764 430.71 782.085 436.211 783.293 442.603Z" fill="#7C4E50"/>
<path d="M758.233 454.199C759.894 455.983 760.196 459.403 760.045 462.822C760.045 463.417 760.045 464.012 759.894 464.458C759.592 467.877 758.988 470.85 758.988 470.85L770.914 470.553C770.461 466.242 771.216 459.254 771.216 459.254C771.216 459.254 754.459 450.185 758.233 454.199Z" fill="#FFC8B0"/>
<path d="M760.045 464.606C764.423 463.119 768.046 460.592 768.046 460.592C764.725 461.633 760.196 462.822 760.196 462.822C760.045 463.417 760.045 464.012 760.045 464.606Z" fill="#F2A181"/>
<path d="M751.439 548.306L770.159 528.385C770.159 528.385 781.481 540.278 779.367 553.212C778.311 559.605 776.499 562.876 775.895 565.998C775.291 568.822 773.782 608.219 774.688 611.044C775.442 613.869 779.82 621.302 782.236 629.479C785.104 639.291 787.821 653.563 790.237 662.037C792.501 670.511 788.727 681.81 787.972 678.985C781.028 654.455 762.912 626.208 759.893 613.869C756.874 601.529 754.609 578.635 751.439 548.306Z" fill="#FFBE9D"/>
<path d="M782.085 661.145C782.085 661.145 787.822 677.201 787.369 679.283C787.067 680.472 785.859 684.784 785.557 685.378C785.406 685.676 781.33 688.798 784.048 688.798C786.765 688.798 793.105 680.324 794.162 679.729C795.823 678.688 796.426 677.053 796.125 675.566C795.521 673.039 793.86 671.255 792.652 669.471C791.445 667.687 790.388 662.781 790.388 662.781L782.085 661.145Z" fill="#FFBE9D"/>
<path d="M780.424 689.392C781.481 687.757 784.802 685.973 784.802 685.973C785.255 685.378 785.708 684.932 785.557 685.378C785.255 686.122 787.067 686.419 787.972 685.676C791.143 683.148 792.048 679.431 793.558 677.796C795.822 675.269 794.162 671.998 794.011 671.403C794.766 671.403 797.785 672.89 798.54 673.336C799.295 673.931 800.653 675.12 800.955 676.012C801.106 676.607 802.314 679.58 803.069 680.769L800.05 683.148L797.181 680.621C797.181 680.621 797.181 680.621 796.426 681.513C795.672 682.405 795.068 683.743 794.917 684.635C794.917 684.932 794.464 685.973 794.162 686.865C793.709 688.054 792.954 689.095 791.897 689.838C791.897 689.838 791.294 690.284 790.69 690.879C789.784 691.622 788.576 692.068 787.368 692.068H782.236H781.481C780.726 692.068 779.971 691.325 780.122 690.582C779.971 690.136 780.122 689.838 780.424 689.392Z" fill="#001118"/>
<path d="M737.099 687.014C737.552 686.419 742.232 685.23 744.496 684.189C746.609 683.148 749.025 680.026 749.327 678.688C749.78 677.35 749.025 671.255 748.723 668.727C746.61 650.887 740.269 625.911 738.759 615.504C736.193 597.367 736.948 578.486 741.326 548.604L765.933 526.303C765.933 526.303 774.538 539.238 773.33 552.32C772.575 559.902 766.386 561.686 765.48 564.66C764.725 567.633 752.95 616.248 752.95 616.248C752.95 616.248 757.026 626.208 758.234 637.359C759.29 646.873 756.573 657.577 756.724 668.579C756.875 670.66 756.875 675.864 757.781 677.499C758.687 679.432 760.951 681.662 761.102 684.189C761.102 685.676 760.196 687.162 758.385 687.906C756.573 688.649 755.365 687.608 754.761 687.757C750.987 687.906 750.233 690.582 743.741 691.176C741.779 691.325 738.759 690.582 737.099 689.095C736.646 688.352 736.797 687.46 737.099 687.014Z" fill="#FFBE9D"/>
<path d="M736.796 689.244C737.098 689.69 737.551 690.136 738.155 690.73C739.363 691.622 740.872 692.068 742.231 692.068H745.401C746.609 692.068 747.968 691.771 749.024 691.176C749.93 690.73 750.836 690.136 751.138 689.838C751.742 689.244 753.1 688.5 754.308 688.352C755.516 688.203 756.271 688.352 756.271 688.352L756.422 692.068H760.8C760.649 690.73 761.705 687.311 761.856 686.716C762.158 685.824 761.705 684.338 761.554 683.446C761.252 682.554 759.29 679.58 758.686 679.134C758.535 679.729 757.629 683.297 754.308 683.743C752.044 684.189 748.874 686.419 744.948 686.419C743.741 686.419 742.533 685.081 743.288 684.635C744.043 684.338 742.08 684.635 740.721 685.081C739.514 685.527 737.249 686.716 736.645 687.014C736.344 687.311 736.344 688.5 736.796 689.244Z" fill="#001118"/>
<path d="M790.388 501.03C790.388 501.03 789.18 507.423 788.274 510.099C787.52 512.775 783.595 529.426 779.82 529.128C776.046 528.831 755.817 512.18 755.817 512.18L758.686 506.531L776.65 515.005C776.65 515.005 778.311 495.975 779.67 491.366L790.388 501.03Z" fill="#FFC8B0"/>
<path d="M785.255 501.625C783.293 508.166 780.575 519.465 779.217 521.249C778.613 522.141 765.63 516.789 765.63 512.18L778.009 498.354L785.255 501.625Z" fill="#F2A181"/>
<path d="M773.933 470.999C773.933 470.999 780.122 471.148 784.802 474.567C792.501 480.216 790.69 501.773 790.69 501.773C790.69 501.773 791.143 502.963 785.859 502.665C780.726 502.368 776.499 500.881 776.499 500.881L778.009 483.636L773.933 470.999Z" fill="#7E3838"/>
<path d="M786.916 483.933C786.916 483.933 787.519 496.273 785.255 502.517C782.99 502.517 781.028 501.922 781.028 501.922L786.916 483.933Z" fill="#6D2B2B"/>
<path d="M774.235 472.188C774.084 470.85 773.631 469.215 772.272 468.62C771.97 468.472 771.517 468.472 771.065 468.323C766.989 467.877 767.441 467.728 763.365 467.728C761.705 467.728 759.893 467.877 758.384 468.62C755.968 469.81 754.76 472.337 753.553 474.567L774.235 472.188Z" fill="#6D2B2B"/>
<path d="M790.236 659.956C788.727 653.117 784.651 635.426 781.782 627.844C778.914 620.262 774.838 612.234 774.687 611.044C774.536 610.003 775.593 602.421 775.895 599.894V599.745C775.895 598.853 780.122 567.633 781.481 562.876C781.933 561.092 784.5 555.442 784.047 546.82C783.594 538.197 776.65 528.087 774.687 526.155L742.683 525.709C742.683 525.709 737.097 538.494 736.645 546.522C735.588 563.322 737.248 598.556 737.248 598.556C737.248 601.083 737.55 606.881 738.305 612.233C739.211 619.221 749.023 676.012 749.023 676.012C749.023 676.012 753.854 676.755 757.779 675.12C757.779 675.12 757.628 674.525 757.779 673.931C757.477 667.092 760.497 645.238 757.779 632.006C755.062 618.626 753.854 615.802 753.854 615.802L756.874 601.232C756.874 600.935 757.025 600.34 757.025 600.34C757.326 603.759 758.232 610.598 759.138 614.315C760.648 619.667 774.536 649.549 780.122 662.483C782.084 666.943 783.745 671.849 783.745 671.849C783.745 671.849 790.387 671.106 792.35 668.133C792.652 668.133 791.595 666.2 790.236 659.956Z" fill="#3E2739"/>
<path d="M743.287 520.654C744.344 518.424 745.401 509.355 744.948 506.977C744.495 504.449 742.23 503.111 741.324 497.462C739.966 490.326 742.985 484.676 744.646 482.298C747.061 478.878 750.231 472.04 750.986 471.891C760.95 468.918 762.459 470.404 769.102 470.702C772.423 470.85 774.536 470.999 777.707 471.742C781.33 472.486 785.557 473.675 786.312 478.432C787.519 485.866 786.463 493.299 784.198 500.287C782.688 504.895 777.707 526.155 777.858 527.047C778.461 530.318 773.027 531.061 767.743 531.656C762.912 532.25 757.93 531.953 752.496 531.507C737.55 530.615 742.834 521.546 743.287 520.654Z" fill="#7E3838"/>
<path d="M747.816 495.381C747.816 495.381 733.777 519.316 726.983 519.316C723.209 519.316 701.622 494.043 701.622 494.043L708.868 492.11L726.379 504.003L737.098 486.758L747.816 495.381Z" fill="#FFC8B0"/>
<path d="M693.168 485.271C693.168 484.825 693.168 484.379 693.168 483.933C693.017 483.041 692.413 482.149 692.111 481.257C691.96 480.514 691.96 479.77 691.96 479.027C691.96 478.135 691.356 476.797 692.111 476.648C691.96 476.054 691.809 475.459 691.658 475.013C691.507 474.567 691.658 473.824 692.111 473.824C692.866 473.972 693.62 474.864 694.073 475.31C694.677 475.905 695.583 477.392 696.187 478.135C697.395 479.622 698.904 480.216 698.904 480.216C698.904 480.216 698.602 479.622 698.753 479.324C699.206 478.878 700.414 479.622 701.924 479.919C702.678 480.068 704.49 482.298 705.094 482.892C705.698 483.487 706.301 487.501 706.452 488.244C706.905 490.326 709.623 492.853 709.623 492.853L703.433 495.827C703.282 495.827 702.527 495.083 702.527 494.935C702.074 494.489 701.622 494.043 701.169 493.745C699.206 491.961 696.338 490.921 694.677 488.839C693.771 487.798 693.319 486.609 693.168 485.271Z" fill="#FFC8B0"/>
<path d="M698.753 480.068C699.81 481.108 700.565 481.257 701.471 481.703C702.075 482 702.226 482.446 702.98 482.744C701.924 482.892 701.924 482.298 700.263 481.703C699.508 481.406 698.753 481.108 698.452 480.365C698.301 480.216 698.603 479.919 698.753 480.068Z" fill="#F2A181"/>
<path d="M760.195 470.107C757.025 470.256 746.911 470.999 740.57 479.919C737.098 484.974 733.324 490.92 731.512 495.678C732.418 498.503 737.702 504.152 742.533 504.152C742.835 504.003 751.44 497.016 752.798 490.028L760.195 470.107Z" fill="#7E3838"/>
<path d="M778.914 523.182C778.763 524.222 778.763 525.263 778.763 526.304C778.763 527.047 778.914 527.79 778.914 528.534C779.065 529.426 779.216 530.466 779.518 531.21C780.575 535.075 782.386 537.602 782.386 537.602C763.667 543.698 738.154 536.71 738.154 536.71C738.154 536.71 739.06 533.886 740.117 530.169C740.419 529.277 740.721 528.236 741.023 527.196C741.325 526.304 741.475 525.412 741.777 524.668C742.079 523.628 742.381 522.587 742.683 521.546C743.438 518.87 744.042 516.343 744.344 514.707C745.551 508.761 743.74 504.301 743.74 504.301C762.157 492.705 753.854 471.148 753.854 471.148C758.383 469.661 765.328 470.256 765.328 470.256C781.481 470.107 785.708 475.608 785.708 475.608C788.123 482.744 787.368 492.11 785.557 497.759C784.5 500.584 780.122 515.005 778.914 523.182Z" fill="url(#paint12_linear)"/>
<path d="M784.954 482.149C779.217 485.568 772.273 485.122 767.442 484.23C767.744 480.365 767.291 472.634 767.291 472.634C767.291 475.459 766.083 482.149 765.63 483.933C763.064 483.338 761.403 482.744 761.403 482.744C761.403 482.744 765.178 464.16 765.178 456.132C765.178 449.145 757.629 444.387 757.629 444.387L770.31 428.331C770.31 428.331 780.274 431.156 783.142 442.901C784.803 448.55 784.954 482.149 784.954 482.149Z" fill="#7C4E50"/>
<path opacity="0.35" d="M773.027 554.253C772.725 555.888 771.517 559.902 768.498 563.916L757.629 603.908C757.629 603.908 757.478 602.273 757.176 600.192C760.648 585.622 765.026 566.444 765.63 564.511C766.385 561.984 771.517 560.348 773.027 554.253Z" fill="#5275A0"/>
<path d="M778.914 523.181C778.763 524.222 778.763 525.263 778.763 526.304C776.952 526.75 760.497 530.169 741.626 524.519C741.928 523.479 742.23 522.438 742.532 521.397C742.532 521.397 752.949 526.155 778.914 523.181Z" fill="#FF5B00"/>
<path d="M779.519 531.21C778.311 531.507 777.405 531.804 777.405 531.804C777.405 531.804 760.045 535.967 739.967 530.169C740.268 529.277 740.57 528.236 740.872 527.196C742.533 528.088 753.251 532.102 776.651 529.128C777.103 529.128 778.462 528.682 778.915 528.534C779.066 529.426 779.217 530.318 779.519 531.21Z" fill="#FF5B00"/>
<path d="M785.255 446.469C785.255 447.212 784.048 447.212 784.048 447.212C779.066 447.509 773.782 447.361 769.102 446.915C768.951 446.915 768.347 446.915 767.14 446.766C766.385 446.766 765.63 446.766 764.724 446.617H764.573C758.233 446.32 747.515 445.725 746.307 444.685C744.646 443.347 750.836 441.711 750.836 441.711C750.685 436.805 751.893 425.061 767.442 424.763C768.498 424.763 769.555 424.763 770.461 424.912C785.557 426.101 785.104 439.481 784.5 444.833C784.35 445.131 785.255 445.428 785.255 446.469Z" fill="#FFB21E"/>
<path d="M785.256 446.469C785.256 447.212 784.048 447.212 784.048 447.212C779.066 447.509 773.782 447.361 769.103 446.915C768.952 446.915 768.348 446.915 767.14 446.766C776.198 446.915 780.274 444.833 780.274 444.833C781.482 426.844 771.065 425.358 770.461 425.06C785.557 426.25 785.105 439.63 784.501 444.982C784.35 445.131 785.256 445.428 785.256 446.469Z" fill="#FFA515"/>
<path d="M704.037 688.946H661.013L661.466 687.608L668.712 663.375L670.07 658.767L670.825 656.091L672.184 651.482L674.75 642.562C677.015 634.98 687.884 634.98 690.149 642.562L692.715 651.482L694.074 656.091L694.828 658.767L696.187 663.375L703.433 687.608L704.037 688.946Z" fill="#FFB21E"/>
<path d="M708.868 692.217H656.031C655.125 692.217 654.37 691.474 654.37 690.582C654.37 689.69 655.125 688.946 656.031 688.946H708.868C709.773 688.946 710.528 689.69 710.528 690.582C710.528 691.474 709.924 692.217 708.868 692.217Z" fill="#FFB21E"/>
<path d="M694.224 656.091H670.825L672.183 651.631H692.865L694.224 656.091Z" fill="#FFC969"/>
<path d="M696.337 663.375H668.56L669.919 658.767H694.979L696.337 663.375Z" fill="#FFC969"/>
<path d="M704.037 688.946H661.013L661.315 687.608H703.584L704.037 688.946Z" fill="#FF8F1F"/>
<path d="M172.516 688.946H129.491L129.944 687.608L137.191 663.375L138.549 658.767L139.304 656.091L140.663 651.482L143.229 642.562C145.494 634.98 156.363 634.98 158.627 642.562L161.194 651.482L162.552 656.091L163.307 658.767L164.666 663.375L172.063 687.608L172.516 688.946Z" fill="#FFB21E"/>
<path d="M177.498 692.217H124.661C123.755 692.217 123 691.474 123 690.582C123 689.69 123.755 688.946 124.661 688.946H177.498C178.403 688.946 179.158 689.69 179.158 690.582C179.158 691.474 178.403 692.217 177.498 692.217Z" fill="#FFB21E"/>
<path d="M162.703 656.091H139.303L140.662 651.631H161.344L162.703 656.091Z" fill="#FFC969"/>
<path d="M164.817 663.375H137.04L138.549 658.767H163.458L164.817 663.375Z" fill="#FFC969"/>
<path d="M172.516 688.946H129.491L129.944 687.608H172.063L172.516 688.946Z" fill="#FF8F1F"/>
<path d="M480.466 262.418L476.088 244.577L468.54 246.361C465.822 240.266 461.746 235.063 457.066 230.751L461.142 224.21L445.291 214.695L441.215 221.237C435.177 219.007 428.534 217.966 421.892 218.263L420.08 210.83L401.965 215.141L403.776 222.575C397.587 225.251 392.303 229.265 387.925 233.873L381.283 229.859L371.621 245.469L378.264 249.484C375.999 255.43 374.943 261.972 375.244 268.513L367.696 270.297L372.074 288.137L379.622 286.353C382.34 292.449 386.416 297.652 391.096 301.963L387.02 308.505L402.871 318.02L406.947 311.478C412.985 313.708 419.628 314.749 426.27 314.451L428.081 321.885L446.197 317.574L444.385 310.14C450.575 307.464 455.859 303.45 460.237 298.841L466.879 302.855L476.541 287.245L469.898 283.231C472.163 277.284 473.219 270.743 472.917 264.202L480.466 262.418ZM432.308 300.179C413.287 304.639 394.266 293.192 389.586 274.46C385.057 255.728 396.681 236.995 415.703 232.387C434.724 227.927 453.745 239.374 458.425 258.106C462.954 276.838 451.33 295.719 432.308 300.179Z" fill="url(#paint13_linear)"/>
<path d="M429.289 287.989C417.212 290.813 404.984 283.529 401.965 271.486C399.097 259.593 406.494 247.551 418.571 244.577C430.648 241.753 442.876 249.038 445.895 260.931C448.914 273.122 441.517 285.164 429.289 287.989Z" fill="url(#paint14_linear)"/>
<path d="M838 333.035L834.981 320.844L829.848 322.034C827.886 317.871 825.168 314.303 821.998 311.329L824.715 306.869L813.846 300.328L811.129 304.788C806.902 303.301 802.373 302.558 797.844 302.707L796.636 297.652L784.257 300.625L785.465 305.68C781.238 307.613 777.615 310.289 774.596 313.411L770.067 310.735L763.424 321.439L767.953 324.115C766.444 328.278 765.689 332.738 765.84 337.198L760.707 338.387L763.726 350.578L768.859 349.388C770.822 353.551 773.539 357.119 776.709 360.093L773.992 364.553L784.861 371.094L787.578 366.634C791.805 368.121 796.183 368.864 800.863 368.715L802.071 373.919L814.45 370.945L813.242 365.742C817.469 363.809 821.092 361.133 824.112 358.011L828.64 360.687L835.283 349.983L830.754 347.307C832.263 343.144 833.018 338.833 832.867 334.224L838 333.035ZM804.939 359.052C791.956 362.174 778.823 354.295 775.652 341.36C772.482 328.575 780.483 315.641 793.617 312.519C806.6 309.397 819.734 317.276 822.904 330.21C825.923 342.996 817.922 355.93 804.939 359.052Z" fill="url(#paint15_linear)"/>
<path d="M802.826 350.578C794.524 352.51 786.07 347.456 784.107 339.279C782.145 331.102 787.277 322.777 795.58 320.844C803.883 318.911 812.337 323.966 814.3 332.143C816.262 340.32 811.28 348.645 802.826 350.578Z" fill="url(#paint16_linear)"/>
<path d="M499.048 689.838C499.048 692.217 477.461 694.001 450.891 694.001C424.322 694.001 402.734 692.068 402.734 689.838C402.734 687.46 424.322 685.676 450.891 685.676C477.461 685.676 499.048 687.46 499.048 689.838Z" fill="#FCF2EB"/>
<path d="M459.799 433.832C461.459 435.467 463.12 437.4 463.875 439.63C464.78 441.86 464.629 444.536 463.271 446.469C462.516 447.509 461.308 448.401 459.95 447.955C459.648 447.807 459.346 447.658 459.044 447.509C456.025 445.577 453.911 442.306 453.458 438.738" fill="#7C4E50"/>
<path d="M422.358 672.147C422.358 672.147 420.245 678.242 419.641 679.877C419.037 681.364 414.357 680.026 414.055 678.986C413.753 677.945 415.867 670.66 415.867 670.66" fill="#FCB6AC"/>
<path d="M412.697 679.134C412.093 680.77 411.037 683.148 411.339 683.892C411.489 684.784 417.377 687.162 418.736 687.906C419.641 688.5 421.906 689.244 422.963 689.541C426.888 690.284 429.907 689.541 430.209 688.946C431.417 686.419 423.717 684.784 420.396 677.796C420.396 677.796 419.792 677.796 419.189 678.391C418.283 679.283 416.924 679.729 415.867 678.986C415.264 678.688 414.509 677.796 414.207 677.202C414.358 677.053 413.301 677.499 412.697 679.134Z" fill="#001118"/>
<path d="M474.139 674.674C474.139 674.674 473.988 681.216 473.837 682.851C473.686 684.486 468.856 684.486 468.252 683.743C467.648 682.851 467.346 675.269 467.346 675.269" fill="#FCB6AC"/>
<path d="M467.044 684.189C467.044 685.973 466.742 688.5 467.195 689.095C467.648 689.838 473.988 690.433 475.498 690.73C476.555 691.028 478.97 691.176 480.027 691.028C483.952 690.582 486.669 688.946 486.669 688.352C487.122 685.676 479.121 686.27 473.837 680.621C473.837 680.621 473.233 680.77 472.931 681.513C472.328 682.702 471.12 683.446 469.912 683.148C469.157 683 468.252 682.405 467.799 681.959C467.95 681.81 467.044 682.405 467.044 684.189Z" fill="#001118"/>
<path d="M527.58 420.898C527.58 420.154 526.674 420.452 526.372 421.046C526.372 421.195 526.221 421.344 526.221 421.492C526.372 420.303 526.523 419.411 526.523 419.114C526.523 418.37 525.617 418.668 525.315 419.114C525.315 418.668 525.466 418.37 525.466 418.222C525.466 417.33 524.561 417.627 524.259 418.37C524.259 418.519 524.108 418.965 523.957 419.56C523.957 419.262 523.957 418.965 523.957 418.965C523.957 418.222 523.051 418.37 522.749 418.965C522.598 419.114 522.598 419.56 522.447 420.303C522.296 421.046 521.994 421.79 521.843 422.384C521.692 422.979 520.636 425.952 519.126 426.25C516.711 426.547 518.522 422.682 517.013 421.641C516.56 421.344 515.654 424.317 515.503 426.101C515.352 427.885 515.201 428.777 515.352 429.818C515.352 430.859 515.805 432.345 515.805 432.94C515.654 433.981 514.144 435.913 514.144 435.913L519.881 437.697C519.881 437.697 521.541 434.575 522.296 433.981C524.259 432.345 525.466 430.412 526.372 428.034C526.976 426.547 527.127 424.912 527.429 423.425C527.429 423.276 527.58 421.195 527.58 420.898Z" fill="#FCB6AC"/>
<path d="M467.799 465.052C467.799 465.052 486.519 466.39 497.69 455.983C506.748 445.428 515.654 433.683 516.409 432.494C517.919 433.237 521.24 435.021 521.24 435.021C521.24 435.021 508.559 457.767 503.879 462.822C499.199 467.877 490.293 476.054 472.479 479.027C464.931 469.215 467.799 465.052 467.799 465.052Z" fill="#FCB6AC"/>
<path d="M480.48 613.423C481.536 599.448 476.706 555.591 476.253 551.874C475.8 548.158 473.083 547.563 470.969 546.968C460.704 543.995 448.476 559.605 451.797 573.729C451.797 574.026 451.948 574.175 451.948 574.472C453.91 582.649 464.78 608.814 464.025 616.396C458.137 632.304 464.78 665.159 466.893 678.837C467.195 678.837 467.346 678.837 467.648 678.837C472.781 678.688 475.649 677.945 475.649 677.945C475.649 677.945 479.423 627.398 480.48 613.423Z" fill="url(#paint17_linear)"/>
<path d="M467.497 616.099C467.799 610.896 462.515 569.863 461.307 570.458C460.854 570.607 460.552 571.053 460.401 571.499C459.345 573.283 458.288 575.215 457.382 577.148C456.476 579.229 455.571 581.162 454.967 583.392C458.741 594.542 464.779 610.598 464.176 616.248C460.703 625.614 461.609 641.075 463.421 654.901C462.515 636.764 467.195 620.262 467.497 616.099Z" fill="url(#paint18_linear)"/>
<path d="M474.592 536.859C474.592 536.859 470.667 537.751 462.968 537.602C453.155 537.305 440.625 532.399 440.625 532.399C428.095 545.779 434.889 561.538 434.587 566.741C434.134 571.647 434.134 594.691 433.228 608.665C433.077 609.706 432.775 610.896 432.171 611.788C422.812 624.87 418.736 655.645 415.112 672.295C415.112 672.444 414.961 672.741 414.961 672.89C420.245 674.823 423.415 675.269 423.415 675.269L423.868 673.931C427.642 662.632 445.154 630.222 449.532 617.437C453.457 605.989 463.722 571.052 463.873 571.052L476.856 573.283C476.856 550.982 474.592 536.859 474.592 536.859Z" fill="url(#paint19_linear)"/>
<path d="M439.568 448.55C439.87 449.888 441.078 451.969 442.588 453.902C445.003 457.321 448.173 460.592 448.324 461.187C450.287 464.755 447.419 468.174 447.419 468.174L454.212 474.27L456.325 476.202L457.684 474.864L461.911 470.702L462.062 465.944C462.062 465.944 460.703 464.755 460.099 463.12C460.099 462.971 459.948 462.674 459.948 462.525C459.798 461.93 459.647 461.484 459.647 461.336C460.099 461.038 461.307 460.592 463.421 459.552C465.685 458.362 466.289 455.686 465.685 453.01C465.232 450.929 461.911 440.819 461.911 440.819C459.043 428.183 442.286 435.913 440.172 438.292C437.908 440.671 438.663 444.685 439.568 448.55Z" fill="#FCB6AC"/>
<path d="M465.836 464.903C465.836 464.903 475.347 466.241 484.103 462.525C488.933 468.174 490.896 477.243 490.896 477.243C490.896 477.243 479.121 484.528 470.516 485.271C468.704 472.783 465.836 464.903 465.836 464.903Z" fill="#7E3838"/>
<path d="M467.497 466.688C467.497 466.688 472.781 473.229 474.592 484.528C480.48 483.338 489.839 478.284 490.896 477.243C488.33 478.135 477.158 482.149 475.649 478.73C472.781 472.337 467.497 466.688 467.497 466.688Z" fill="#682A2A"/>
<path d="M476.252 551.874C476.252 551.874 461.307 555.888 439.116 553.064C436.851 552.766 435.493 552.618 433.077 552.172C436.398 541.319 435.342 520.654 435.644 511.883C435.644 511.883 435.945 493.745 436.096 486.758C436.096 482.446 436.398 478.284 437.002 475.459C437.304 474.121 437.606 473.229 438.059 472.783C439.72 471.445 441.531 470.107 443.494 468.769C445.909 469.066 450.287 470.107 453.306 474.121C454.514 476.054 455.42 478.73 455.571 482C455.571 483.487 455.571 484.974 455.269 486.758L469.912 482.892C469.912 482.892 469.912 481.703 469.912 479.919C469.761 476.202 469.006 469.364 465.836 464.606C467.195 464.606 468.251 464.458 469.61 464.904C470.516 465.796 471.271 468.472 471.875 470.256C472.78 473.229 473.535 476.5 474.139 479.919C474.441 481.257 474.592 482.744 474.894 484.082C478.819 513.221 476.252 551.874 476.252 551.874Z" fill="url(#paint20_linear)"/>
<path d="M454.966 486.906L469.61 483.041C469.61 483.041 470.365 471.891 465.534 464.755C464.628 464.606 462.817 465.052 461.458 465.052C462.364 466.985 461.609 468.62 460.099 469.066C455.721 470.404 448.475 466.093 448.475 466.093C447.116 466.539 444.55 467.877 443.342 468.62C443.946 468.918 457.684 470.999 454.966 486.906Z" fill="#7E3838"/>
<path d="M551.886 419.56L557.471 418.222L554.301 405.139L548.715 406.477C546.602 402.017 543.734 398.152 540.261 395.03L543.281 390.272L531.657 383.285L528.637 388.042C524.108 386.407 519.278 385.663 514.447 385.812L513.088 380.311L499.803 383.433L501.162 388.934C496.633 391.016 492.708 393.84 489.538 397.26L484.707 394.286L477.612 405.734L482.443 408.707C480.782 413.167 480.027 417.924 480.178 422.682L474.593 424.02L477.763 437.103L483.348 435.765C485.462 440.225 488.33 444.09 491.802 447.212L488.783 451.969L500.407 458.957L503.426 454.199C507.955 455.835 512.786 456.578 517.617 456.429L518.976 461.93L532.26 458.808L530.902 453.307C535.431 451.226 539.356 448.401 542.526 444.982L547.357 447.955L554.452 436.508L549.621 433.535C551.433 429.075 552.187 424.317 551.886 419.56Z" fill="#F9C9B7"/>
<path d="M434.436 483.338C434.436 483.338 434.436 502.07 443.343 502.665C449.683 503.111 450.74 488.542 450.74 488.542L434.436 483.338Z" fill="#7E3838"/>
<path opacity="0.49" d="M463.119 490.474C463.421 492.556 463.119 493.002 463.119 493.002C445.456 498.057 437.908 491.069 437.908 491.069L452.854 482.595L455.269 482.298L469.459 480.365L471.724 480.068C471.724 480.068 472.63 480.216 473.535 480.365C473.837 481.703 473.988 483.19 474.29 484.528C470.516 487.055 463.119 490.474 463.119 490.474Z" fill="#F29B75"/>
<path d="M453.457 492.407C453.457 492.407 465.232 489.582 474.894 482.595C477.762 480.514 480.631 476.797 481.234 473.378C483.046 463.12 479.725 444.685 478.215 437.846C473.535 438.143 472.63 439.035 472.63 439.035C472.63 439.035 471.271 458.957 471.422 470.702C471.422 470.702 460.1 477.689 447.872 477.094" fill="#FCB6AC"/>
<path d="M472.78 439.779C472.78 439.779 472.78 436.359 471.724 434.427C470.667 432.494 467.648 429.818 468.402 426.993C468.704 425.952 470.516 423.574 473.535 422.236C478.064 420.452 479.876 420.898 480.178 421.938C480.48 422.979 477.913 424.912 478.064 426.844C478.215 428.777 479.272 429.372 480.027 431.007C481.234 433.535 478.517 436.508 478.517 438.143C478.366 439.333 472.78 439.779 472.78 439.779Z" fill="#FCB6AC"/>
<path d="M450.287 476.5C450.287 476.5 454.061 476.054 458.59 475.756C458.59 475.756 461.308 481.554 462.364 490.326C462.364 490.326 453.76 496.421 440.626 492.258C436.852 491.069 434.436 487.65 434.285 483.636C433.983 474.567 438.663 471.891 438.663 471.891C438.663 471.891 446.362 469.81 450.287 476.5Z" fill="#7E3838"/>
<path d="M455.873 436.805C459.647 435.616 461.76 435.765 459.496 430.561C458.288 427.439 442.89 432.048 441.23 433.089C435.191 436.508 434.587 442.306 436.097 448.253C436.097 448.253 439.72 460.741 449.382 461.187C449.382 461.187 449.382 458.659 448.476 455.389C448.476 455.389 444.4 454.199 443.645 451.969C443.192 450.631 444.551 449.442 445.457 449.442C446.664 449.442 447.57 450.78 447.57 450.78C447.57 450.78 447.57 448.253 447.117 446.023C446.966 445.131 446.362 444.536 445.758 443.941C445.758 443.495 447.57 439.333 455.873 436.805Z" fill="#7C4E50"/>
<path d="M453.911 461.484C453.911 461.484 455.873 462.971 459.949 462.376C459.798 461.781 459.647 461.335 459.647 461.187C459.647 461.335 456.024 461.781 453.911 461.484Z" fill="#F2A49C"/>
<path d="M434.436 540.13C434.436 540.13 462.667 544.144 476.857 542.062C476.857 542.062 476.857 546.522 476.857 549.942C476.857 549.942 456.779 553.51 432.927 548.009C432.927 547.86 432.625 542.806 434.436 540.13Z" fill="#FFE600"/>
<path d="M471.574 552.32C471.423 552.32 471.121 552.172 471.121 551.874V547.86C471.121 547.712 471.272 547.414 471.574 547.414C471.725 547.414 472.027 547.563 472.027 547.86V551.874C471.876 552.172 471.725 552.32 471.574 552.32Z" fill="#E2E2E2"/>
<path d="M473.084 552.172C472.933 552.172 472.631 552.023 472.631 551.726V547.86C472.631 547.712 472.782 547.414 473.084 547.414C473.235 547.414 473.537 547.563 473.537 547.86V551.874C473.537 552.023 473.386 552.172 473.084 552.172Z" fill="#E2E2E2"/>
<path d="M474.744 552.172C474.593 552.172 474.291 552.023 474.291 551.726V547.86C474.291 547.712 474.442 547.414 474.744 547.414C474.895 547.414 475.197 547.563 475.197 547.86V551.874C475.197 552.023 475.046 552.172 474.744 552.172Z" fill="#E2E2E2"/>
<path d="M476.254 552.023C476.103 552.023 475.801 551.874 475.801 551.577V547.563C475.801 547.414 475.952 547.117 476.254 547.117C476.405 547.117 476.707 547.266 476.707 547.563V551.577C476.707 551.874 476.556 552.023 476.254 552.023Z" fill="#E2E2E2"/>
<path d="M470.215 549.347C470.215 549.347 469.762 553.51 470.517 553.956C471.272 554.402 476.254 554.104 476.707 553.658C477.16 553.212 476.858 549.198 476.858 549.198L470.215 549.347Z" fill="#F0D909"/>
<path d="M435.342 530.615L435.191 533.142C435.191 533.885 435.644 534.48 436.399 534.48L438.965 534.629L437.456 560.943C437.456 561.24 437.758 561.538 438.059 561.538L439.871 561.686C440.173 561.686 440.475 561.389 440.475 561.092L441.984 534.777L444.702 534.926C445.457 534.926 446.06 534.48 446.06 533.737L446.211 531.209C446.211 530.466 445.759 529.871 445.004 529.871L436.852 529.425C436.097 529.277 435.493 529.871 435.342 530.615Z" fill="#E2E2E2"/>
<path d="M438.965 534.629L436.399 534.48C435.946 534.48 435.493 534.183 435.342 533.737H435.493L438.965 533.885V534.629Z" fill="#CECECE"/>
<path d="M446.363 531.209L446.212 533.737C446.212 534.48 445.608 535.075 444.853 534.926L442.136 534.777L440.626 561.092C440.626 561.389 440.324 561.686 440.022 561.686L438.211 561.538C437.909 561.538 437.607 561.24 437.607 560.943L439.116 561.092C439.418 561.092 439.72 560.794 439.72 560.497L441.23 534.183L443.947 534.331C444.702 534.331 445.306 533.885 445.306 533.142L445.457 530.615C445.457 530.317 445.457 530.169 445.306 530.02C445.91 530.02 446.363 530.466 446.363 531.209Z" fill="#CECECE"/>
<path d="M451.345 557.524L452.099 535.372C453.156 534.926 453.911 534.034 453.911 532.845C453.911 531.804 453.458 530.912 452.552 530.466V533.142L451.043 534.034L449.382 533.439L449.08 530.763C448.627 531.209 448.174 531.953 448.174 532.696C448.174 533.885 448.778 534.926 449.835 535.372L449.08 557.524C448.023 557.97 447.269 558.862 447.269 560.051C447.269 561.538 448.476 562.876 449.986 563.024C451.495 563.024 452.854 561.835 453.005 560.348C453.005 558.862 452.401 557.97 451.345 557.524ZM451.043 561.538H449.231L448.325 559.902L449.231 558.416H451.043L451.948 560.051L451.043 561.538Z" fill="#CECECE"/>
<path d="M451.798 557.672C451.647 557.524 451.496 557.524 451.345 557.375V557.226L452.1 535.224C453.157 534.778 453.912 533.885 453.912 532.696C453.912 531.655 453.459 530.764 452.704 530.318V532.994L451.194 533.886L449.534 533.291V533.142L449.232 530.763C449.081 530.912 448.93 531.061 448.93 531.061C448.628 531.507 448.477 531.953 448.326 532.548C448.326 533.291 448.628 534.034 449.081 534.629C449.232 534.778 449.383 534.926 449.534 534.926C449.685 535.075 449.836 535.075 449.987 535.224L449.232 557.375C448.175 557.821 447.42 558.713 447.42 559.902C447.42 560.794 447.722 561.538 448.326 561.984C448.779 562.43 449.534 562.727 450.137 562.727C451.647 562.727 453.006 561.538 453.157 560.051C453.157 559.159 452.553 558.267 451.798 557.672ZM451.194 558.416L452.1 560.051L451.194 561.538H449.383L449.232 561.24L448.628 559.902L449.534 558.416H451.043H451.194Z" fill="#CECECE"/>
<path d="M451.798 557.672C451.647 557.672 451.496 557.524 451.496 557.524V557.375C451.345 557.226 451.194 557.226 451.043 557.078L451.798 534.926C452.855 534.48 453.609 533.588 453.609 532.399C453.609 531.507 453.307 530.764 452.704 530.318V532.994L451.194 533.886L449.533 533.291V533.142L449.081 532.994L448.779 531.061C448.477 531.507 448.326 531.953 448.175 532.548C448.175 533.291 448.477 534.034 448.93 534.629C449.081 534.778 449.232 534.777 449.382 534.926V535.075C449.533 535.224 449.684 535.224 449.835 535.372L449.081 557.524C448.024 557.97 447.269 558.862 447.269 560.051C447.269 560.943 447.571 561.686 448.175 562.132C448.628 562.43 449.081 562.578 449.533 562.578C451.043 562.578 452.402 561.389 452.553 559.902C452.704 559.01 452.402 558.267 451.798 557.672ZM451.043 561.538H449.232L449.081 561.24H448.779L447.873 559.605L448.779 558.118H450.59L450.741 558.416H451.043L451.949 560.051L451.043 561.538Z" fill="#E2E2E2"/>
<path d="M438.361 541.022C438.361 541.022 440.022 541.17 442.135 541.468L441.833 548.752C441.833 548.752 439.418 548.604 437.908 548.158L438.361 541.022Z" fill="#F0D909"/>
<path d="M448.928 542.36C448.928 542.36 450.287 542.508 452.702 542.657L452.401 550.239C452.401 550.239 449.985 550.09 448.476 549.793L448.928 542.36Z" fill="#F0D909"/>
<path d="M469.46 550.685C469.46 550.685 469.46 550.834 469.46 550.982C469.46 551.28 469.309 551.577 469.158 551.726C468.856 552.023 462.214 552.32 461.761 551.726C461.157 551.131 461.61 542.062 461.761 541.765C461.912 541.468 469.309 541.468 469.46 541.765C469.611 541.914 469.611 542.062 469.611 542.211C469.611 542.36 469.611 542.657 469.611 542.657L463.422 542.806C463.271 543.549 463.271 551.131 463.271 551.131C464.327 550.982 469.46 550.685 469.46 550.685Z" fill="#E2E2E2"/>
<path d="M469.46 550.685C469.46 550.685 469.46 550.834 469.46 550.982C468.705 551.131 463.12 551.28 462.969 551.131C462.667 550.982 462.818 542.806 462.969 542.36C463.724 542.211 468.403 542.211 469.611 542.211C469.611 542.36 469.611 542.657 469.611 542.657L463.422 542.806C463.271 543.549 463.271 551.131 463.271 551.131C464.327 550.982 469.46 550.685 469.46 550.685Z" fill="#CECECE"/>
<path d="M467.648 547.266C467.648 547.414 467.648 547.414 467.497 547.563C467.195 548.158 461.911 548.009 461.006 547.266V546.522C461.006 546.522 464.025 546.225 467.346 545.928C467.648 546.225 467.799 546.82 467.648 547.266Z" fill="#E2E2E2"/>
<path d="M467.648 547.266C467.648 547.414 467.648 547.414 467.497 547.563C467.195 548.158 461.911 548.009 461.006 547.266V547.117C461.459 547.266 462.364 547.414 464.025 547.563C465.384 547.712 466.742 547.414 467.648 547.266Z" fill="#CECECE"/>
<path d="M440.022 426.993C427.643 433.535 433.228 445.279 435.644 449.293C435.644 449.293 435.191 451.077 437.002 450.483C437.002 450.483 445.003 441.711 462.666 436.657C463.874 435.765 456.477 418.073 440.022 426.993Z" fill="#FFB21E"/>
<path d="M441.833 444.833C441.833 444.833 453.155 444.239 460.401 440.373C467.648 436.508 461.609 434.427 461.609 434.427L452.702 435.319L441.833 444.833Z" fill="#FFB21E"/>
<path d="M435.795 429.966C435.795 429.966 445.758 424.317 453.759 438.589C453.759 438.589 456.024 437.103 457.986 436.508C457.986 436.508 455.42 425.506 442.588 425.804C442.739 425.804 437.908 425.804 435.795 429.966Z" fill="#FFBF4D"/>
<path d="M583.739 298.99H580.719V296.017C580.719 295.571 580.266 295.125 579.814 295.125C579.361 295.125 578.908 295.571 578.908 296.017V298.99H575.888C575.436 298.99 574.983 299.436 574.983 299.882C574.983 300.328 575.436 300.774 575.888 300.774H578.908V303.747C578.908 304.193 579.361 304.639 579.814 304.639C580.266 304.639 580.719 304.193 580.719 303.747V300.774H583.739C584.191 300.774 584.644 300.328 584.644 299.882C584.644 299.287 584.191 298.99 583.739 298.99Z" fill="#F9C9B7"/>
<path d="M567.585 209.789H564.566V206.816C564.566 206.37 564.113 205.924 563.66 205.924C563.208 205.924 562.755 206.37 562.755 206.816V209.789H559.735C559.282 209.789 558.83 210.235 558.83 210.681C558.83 211.127 559.282 211.573 559.735 211.573H562.755V214.546C562.755 214.992 563.208 215.438 563.66 215.438C564.113 215.438 564.566 214.992 564.566 214.546V211.573H567.585C568.038 211.573 568.491 211.127 568.491 210.681C568.34 210.086 568.038 209.789 567.585 209.789Z" fill="#F9C9B7"/>
<path d="M307.929 412.275H304.91V409.302C304.91 408.856 304.457 408.41 304.004 408.41C303.552 408.41 303.099 408.856 303.099 409.302V412.275H300.079C299.626 412.275 299.174 412.721 299.174 413.167C299.174 413.613 299.626 414.059 300.079 414.059H303.099V417.032C303.099 417.478 303.552 417.924 304.004 417.924C304.457 417.924 304.91 417.478 304.91 417.032V414.059H307.929C308.382 414.059 308.835 413.613 308.835 413.167C308.835 412.721 308.382 412.275 307.929 412.275Z" fill="#F9C9B7"/>
<path d="M697.565 397.111H694.546V394.138C694.546 393.691 694.093 393.245 693.64 393.245C693.187 393.245 692.734 393.691 692.734 394.138V397.111H689.715C689.262 397.111 688.809 397.557 688.809 398.003C688.809 398.449 689.262 398.895 689.715 398.895H692.734V401.868C692.734 402.314 693.187 402.76 693.64 402.76C694.093 402.76 694.546 402.314 694.546 401.868V398.895H697.565C698.018 398.895 698.471 398.449 698.471 398.003C698.471 397.557 698.018 397.111 697.565 397.111Z" fill="#F9C9B7"/>
<path d="M256.3 240.563H253.281V237.59C253.281 237.144 252.828 236.698 252.375 236.698C251.922 236.698 251.469 237.144 251.469 237.59V240.563H248.45C247.997 240.563 247.544 241.009 247.544 241.455C247.544 241.901 247.997 242.347 248.45 242.347H251.469V245.321C251.469 245.767 251.922 246.213 252.375 246.213C252.828 246.213 253.281 245.767 253.281 245.321V242.347H256.3C256.753 242.347 257.206 241.901 257.206 241.455C257.206 241.009 256.904 240.563 256.3 240.563Z" fill="#F9C9B7"/>
<path d="M335.707 316.236C337.374 316.236 338.726 314.904 338.726 313.262C338.726 311.62 337.374 310.289 335.707 310.289C334.039 310.289 332.687 311.62 332.687 313.262C332.687 314.904 334.039 316.236 335.707 316.236Z" fill="#F9C9B7"/>
<path d="M544.79 507.125C544.79 508.761 543.432 510.099 541.771 510.099C540.11 510.099 538.752 508.761 538.752 507.125C538.752 505.49 540.11 504.152 541.771 504.152C543.432 504.152 544.79 505.49 544.79 507.125Z" fill="#F9C9B7"/>
<path d="M194.707 431.156C194.707 432.791 193.348 434.129 191.688 434.129C190.027 434.129 188.668 432.791 188.668 431.156C188.668 429.521 190.027 428.182 191.688 428.182C193.348 428.182 194.707 429.521 194.707 431.156Z" fill="#F9C9B7"/>
<path d="M404.395 195.22C406.062 195.22 407.414 193.888 407.414 192.246C407.414 190.604 406.062 189.273 404.395 189.273C402.727 189.273 401.375 190.604 401.375 192.246C401.375 193.888 402.727 195.22 404.395 195.22Z" fill="#F9C9B7"/>
<path d="M670.543 412.87C670.543 414.505 669.184 415.843 667.523 415.843C665.863 415.843 664.504 414.505 664.504 412.87C664.504 411.234 665.863 409.896 667.523 409.896C669.184 409.748 670.543 411.234 670.543 412.87Z" fill="#F9C9B7"/>
<path d="M635.641 342.698C631.716 346.712 621.299 355.484 616.77 358.457C611.789 361.728 601.825 367.675 601.825 367.675L601.523 367.08C601.523 367.08 599.863 367.972 598.957 369.905C598.051 371.986 596.088 374.067 596.088 374.067L595.032 369.459L597.447 366.039L603.335 361.579L630.055 339.576C632.018 340.617 633.829 341.658 635.641 342.698Z" fill="#F9D8CD"/>
<path d="M603.486 364.553C603.486 364.553 600.014 366.634 598.957 367.972C597.9 369.31 597.9 369.905 597.447 371.689C596.994 373.621 595.032 375.257 594.428 375.703C593.824 376.297 593.522 375.703 593.673 374.513C593.975 373.324 594.73 371.837 594.73 371.391C594.73 370.945 594.126 370.945 593.069 371.391C592.013 371.837 590.201 373.175 589.597 374.067C588.993 374.811 587.786 377.041 587.031 377.338C586.276 377.635 585.974 377.338 586.276 376.297C586.578 375.108 586.88 374.216 587.635 372.878C588.088 372.135 587.333 371.243 588.39 368.567C588.691 367.972 589.446 366.634 589.748 366.188C589.748 366.039 589.748 365.891 589.899 365.742C590.352 364.701 593.975 364.107 594.881 363.512C595.787 362.917 599.41 358.903 599.41 358.903L603.486 364.553Z" fill="#FCB6AC"/>
<path d="M688.629 318.317L666.136 319.358L637.604 322.628C629.452 308.653 647.567 300.774 651.039 300.477L661.003 298.99C661.003 298.99 668.4 299.585 676.25 303.599C680.477 305.829 685.157 311.181 688.629 318.317Z" fill="#7E3838"/>
<path d="M648.775 297.355C648.775 297.355 649.681 301.517 649.832 302.558C650.134 304.193 651.492 305.234 653.153 305.234C661.909 305.234 661.607 299.733 661.607 299.733C659.946 296.909 659.342 288.732 659.342 288.732" fill="#FCB6AC"/>
<path d="M680.628 334.373C678.968 338.238 675.495 345.82 670.816 351.172C664.626 358.16 638.962 376.149 638.962 376.149L638.66 375.851C637.604 376.743 636.547 377.784 636.245 378.23C635.641 379.122 634.886 382.69 633.83 382.987C633.679 382.987 633.528 382.987 633.377 383.136C632.924 383.433 632.471 383.731 631.867 383.731C630.659 383.879 629.15 383.433 628.697 383.285C628.244 383.582 627.942 384.028 627.187 384.325C625.678 384.92 624.319 385.812 623.111 386.109C621.904 386.407 621.753 386.109 622.054 385.366C622.356 384.623 624.621 383.582 625.376 382.987C626.131 382.393 627.64 380.757 628.244 379.717C628.848 378.676 628.848 378.081 628.395 378.081C627.942 378.081 626.281 378.825 625.225 379.122C624.017 379.271 623.564 378.973 624.168 378.379C624.772 377.784 626.432 375.851 628.395 375.554C630.357 375.108 630.81 375.257 632.32 374.216C633.075 373.77 633.83 372.729 634.584 371.837L634.132 371.391C634.132 371.391 647.718 354.74 657.833 341.955C658.135 341.658 658.286 341.509 658.437 341.212C664.324 330.954 666.589 331.251 666.589 331.251L677.156 331.994C678.213 332.44 679.42 333.481 680.628 334.373Z" fill="#F9D8CD"/>
<path d="M633.376 370.499C633.376 370.499 631.111 373.77 629.753 374.811C628.394 375.703 627.79 375.703 625.828 376.149C623.865 376.595 622.204 378.379 621.601 378.973C620.997 379.568 621.601 379.865 622.657 379.717C623.865 379.568 625.375 378.676 625.828 378.676C626.28 378.676 626.28 379.271 625.677 380.311C625.073 381.352 623.714 382.987 622.808 383.582C622.053 384.177 619.638 385.217 619.487 385.961C619.185 386.704 619.336 387.001 620.544 386.704C621.752 386.407 622.657 386.258 624.016 385.515C624.771 385.217 625.677 385.961 628.394 384.92C628.998 384.771 630.356 384.028 630.809 383.731C630.96 383.731 631.111 383.731 631.262 383.582C632.319 383.285 633.074 379.717 633.678 378.825C634.281 377.933 638.508 374.513 638.508 374.513L633.376 370.499Z" fill="#FCB6AC"/>
<path d="M682.137 323.372C685.307 318.466 675.193 312.667 675.193 312.667L671.268 314.303C668.852 313.113 664.776 311.329 664.776 311.329L662.663 317.128C662.663 317.128 662.361 318.614 662.965 319.804C662.814 323.074 656.775 341.212 656.473 341.509C643.943 354.295 632.772 370.945 632.772 370.945C632.772 370.945 633.376 372.432 635.037 373.919C636.546 375.257 637.905 376 637.905 376C637.905 376 656.624 360.985 665.229 352.213C672.928 343.888 678.816 328.278 682.137 323.372Z" fill="#7E3838"/>
<path d="M638.056 293.341C639.264 295.719 641.075 297.949 643.642 298.99C646.208 300.179 649.378 299.882 652.096 298.693C656.776 296.611 659.946 291.705 659.946 286.799C659.946 281.744 656.625 276.987 651.794 275.054C647.416 273.27 640.623 274.014 637.301 277.73C633.829 281.447 635.943 289.475 638.056 293.341Z" fill="#FCB6AC"/>
<path d="M659.795 286.799C659.795 291.854 656.625 296.76 651.945 298.693C649.529 299.733 646.812 300.031 644.396 299.287C646.057 299.139 648.02 298.99 649.227 298.395C653.907 296.314 657.379 291.408 657.228 286.502C657.228 281.447 652.699 276.541 648.02 274.757C647.567 274.608 646.963 274.46 646.51 274.311C648.322 274.311 650.133 274.608 651.643 275.203C656.474 276.987 659.795 281.893 659.795 286.799Z" fill="#F2A49C"/>
<path d="M636.093 282.934C639.414 282.637 642.434 280.258 643.943 277.433C644.849 280.555 649.378 282.042 651.944 279.961C651.642 283.083 654.36 286.205 657.53 286.502C656.473 287.84 657.53 290.07 659.191 290.367C660.851 290.665 662.663 289.475 663.116 287.84C663.569 286.205 663.116 284.421 662.059 283.083C665.531 280.853 666.89 275.946 665.078 272.23C663.267 268.513 658.587 266.432 654.662 267.621C653.605 264.35 650.133 261.972 646.661 261.972C643.189 261.972 639.716 264.202 638.509 267.324C638.66 267.026 636.093 267.175 635.791 267.175C634.735 267.175 633.678 267.472 632.772 267.918C631.111 268.959 632.923 283.38 636.093 282.934Z" fill="#301B2C"/>
<path d="M659.644 287.245C659.946 285.61 658.889 283.231 657.531 282.934C656.021 282.636 654.663 283.231 654.361 284.866C654.059 286.502 654.964 289.326 656.474 289.624C657.984 290.07 659.342 288.88 659.644 287.245Z" fill="#FCB6AC"/>
<path d="M637.15 309.843L621.148 336.306L629.451 344.78C629.451 344.78 634.131 340.617 637.15 337.049C638.509 335.562 639.717 334.076 640.924 332.738C643.34 329.913 644.245 326.196 643.491 322.628C643.038 320.25 642.585 317.722 641.83 316.533C638.811 310.586 637.15 309.843 637.15 309.843Z" fill="#7E3838"/>
<path d="M621.149 336.454C621.149 336.454 604.543 352.659 597.598 360.836L601.674 366.188C601.674 366.188 624.47 353.105 633.226 340.32C639.415 330.954 621.149 336.454 621.149 336.454Z" fill="#7E3838"/>
<path d="M675.797 318.911C675.797 318.911 680.93 330.062 686.365 328.724C690.894 327.534 688.478 318.317 688.478 318.317L682.44 312.965L675.797 318.911Z" fill="#7E3838"/>
<path d="M638.811 310.14C638.358 314.6 638.207 323.966 642.736 333.927L644.396 321.885C644.396 321.885 642.132 312.073 644.396 303.153C644.396 303.153 643.491 303.301 642.283 304.045C640.169 305.234 639.113 307.018 638.811 310.14Z" fill="url(#paint21_linear)"/>
<path d="M657.833 320.993C657.833 320.993 658.587 301.963 669.608 301.071C669.608 301.071 672.174 301.071 673.684 302.558C673.684 302.558 664.173 305.234 662.663 320.547L657.833 320.993Z" fill="url(#paint22_linear)"/>
<path d="M654.058 277.582C654.058 277.582 650.435 284.421 634.735 285.907C633.527 286.056 629.451 285.164 632.923 281.596L654.058 277.582Z" fill="#FFB21E"/>
<path d="M632.319 280.258C631.112 276.541 628.998 265.688 640.471 260.931C657.379 253.795 663.418 264.053 665.682 272.824C665.682 272.824 666.588 272.824 666.89 273.716C666.89 273.716 666.89 274.46 666.135 274.757C666.135 274.757 664.173 275.5 661.606 276.095C654.964 278.028 642.132 281.447 633.527 281.447C633.376 281.596 633.074 281.596 632.772 281.447C631.565 281.15 632.319 280.258 632.319 280.258Z" fill="#FFB21E"/>
<path d="M650.284 258.552C650.284 258.552 636.396 261.972 641.227 281.001C641.227 281.001 638.811 281.596 635.339 281.745C635.339 281.745 630.961 267.472 640.623 261.08C640.472 260.931 644.699 256.471 650.284 258.552Z" fill="#FFBF4D"/>
<defs>
<linearGradient id="paint0_linear" x1="473.807" y1="759" x2="473.807" y2="9.04798e-05" gradientUnits="userSpaceOnUse">
<stop stop-color="#0038DC"/>
<stop offset="0.23" stop-color="#0079E9"/>
<stop offset="0.45" stop-color="#00AEF5"/>
<stop offset="0.62" stop-color="#00CFFB"/>
<stop offset="0.71" stop-color="#00DCFE"/>
</linearGradient>
<linearGradient id="paint1_linear" x1="473.808" y1="206.868" x2="473.808" y2="759" gradientUnits="userSpaceOnUse">
<stop stop-color="#0129A0"/>
<stop offset="0.13" stop-color="#0053E2" stop-opacity="0.9"/>
<stop offset="0.54" stop-color="#009DF1"/>
<stop offset="0.84" stop-color="#00CBFA"/>
<stop offset="1" stop-color="#00DCFE"/>
</linearGradient>
<linearGradient id="paint2_linear" x1="672.325" y1="302.855" x2="672.325" y2="372.581" gradientUnits="userSpaceOnUse">
<stop stop-color="#245EF1"/>
<stop offset="1" stop-color="#514A9D"/>
</linearGradient>
<linearGradient id="paint3_linear" x1="702.065" y1="373.919" x2="702.065" y2="454.794" gradientUnits="userSpaceOnUse">
<stop stop-color="#245EF1"/>
<stop offset="1" stop-color="#514A9D"/>
</linearGradient>
<linearGradient id="paint4_linear" x1="274.009" y1="467.897" x2="274.009" y2="519.173" gradientUnits="userSpaceOnUse">
<stop stop-color="#245EF1"/>
<stop offset="1" stop-color="#514A9D"/>
</linearGradient>
<linearGradient id="paint5_linear" x1="238.474" y1="464.022" x2="238.474" y2="543.88" gradientUnits="userSpaceOnUse">
<stop stop-color="#245EF1"/>
<stop offset="1" stop-color="#514A9D"/>
</linearGradient>
<linearGradient id="paint6_linear" x1="238.109" y1="462.822" x2="238.109" y2="472.634" gradientUnits="userSpaceOnUse">
<stop stop-color="#245EF1"/>
<stop offset="1" stop-color="#514A9D"/>
</linearGradient>
<linearGradient id="paint7_linear" x1="246.566" y1="463.268" x2="246.566" y2="471.296" gradientUnits="userSpaceOnUse">
<stop stop-color="#245EF1"/>
<stop offset="1" stop-color="#514A9D"/>
</linearGradient>
<linearGradient id="paint8_linear" x1="215.131" y1="469.233" x2="215.131" y2="521.695" gradientUnits="userSpaceOnUse">
<stop stop-color="#245EF1"/>
<stop offset="1" stop-color="#514A9D"/>
</linearGradient>
<linearGradient id="paint9_linear" x1="218.787" y1="508.057" x2="218.787" y2="552.32" gradientUnits="userSpaceOnUse">
<stop stop-color="#245EF1"/>
<stop offset="1" stop-color="#514A9D"/>
</linearGradient>
<linearGradient id="paint10_linear" x1="365.994" y1="466.836" x2="365.994" y2="678.819" gradientUnits="userSpaceOnUse">
<stop stop-color="#245EF1"/>
<stop offset="1" stop-color="#514A9D"/>
</linearGradient>
<linearGradient id="paint11_linear" x1="358.427" y1="558.673" x2="358.427" y2="677.648" gradientUnits="userSpaceOnUse">
<stop stop-color="#245EF1"/>
<stop offset="1" stop-color="#514A9D"/>
</linearGradient>
<linearGradient id="paint12_linear" x1="762.695" y1="470.138" x2="762.695" y2="540.098" gradientUnits="userSpaceOnUse">
<stop stop-color="#245EF1"/>
<stop offset="1" stop-color="#514A9D"/>
</linearGradient>
<linearGradient id="paint13_linear" x1="424.081" y1="210.83" x2="424.081" y2="321.885" gradientUnits="userSpaceOnUse">
<stop stop-color="#245EF1"/>
<stop offset="1" stop-color="#514A9D"/>
</linearGradient>
<linearGradient id="paint14_linear" x1="423.959" y1="243.97" x2="423.959" y2="288.596" gradientUnits="userSpaceOnUse">
<stop offset="0.317708" stop-color="#FFB21E"/>
<stop offset="1" stop-color="#FFE600"/>
</linearGradient>
<linearGradient id="paint15_linear" x1="799.354" y1="297.652" x2="799.354" y2="373.919" gradientUnits="userSpaceOnUse">
<stop offset="0.317708" stop-color="#FFB21E"/>
<stop offset="1" stop-color="#FFE600"/>
</linearGradient>
<linearGradient id="paint16_linear" x1="799.207" y1="320.432" x2="799.207" y2="350.99" gradientUnits="userSpaceOnUse">
<stop stop-color="#245EF1"/>
<stop offset="1" stop-color="#514A9D"/>
</linearGradient>
<linearGradient id="paint17_linear" x1="465.936" y1="546.6" x2="465.936" y2="678.837" gradientUnits="userSpaceOnUse">
<stop stop-color="#245EF1"/>
<stop offset="1" stop-color="#514A9D"/>
</linearGradient>
<linearGradient id="paint18_linear" x1="461.238" y1="570.452" x2="461.238" y2="654.901" gradientUnits="userSpaceOnUse">
<stop stop-color="#245EF1"/>
<stop offset="1" stop-color="#514A9D"/>
</linearGradient>
<linearGradient id="paint19_linear" x1="445.909" y1="532.399" x2="445.909" y2="675.269" gradientUnits="userSpaceOnUse">
<stop stop-color="#245EF1"/>
<stop offset="1" stop-color="#514A9D"/>
</linearGradient>
<linearGradient id="paint20_linear" x1="455.077" y1="464.582" x2="455.077" y2="554.071" gradientUnits="userSpaceOnUse">
<stop stop-color="#245EF1"/>
<stop offset="1" stop-color="#514A9D"/>
</linearGradient>
<linearGradient id="paint21_linear" x1="641.496" y1="303.153" x2="641.496" y2="333.927" gradientUnits="userSpaceOnUse">
<stop stop-color="#245EF1"/>
<stop offset="1" stop-color="#514A9D"/>
</linearGradient>
<linearGradient id="paint22_linear" x1="665.758" y1="301.071" x2="665.758" y2="320.993" gradientUnits="userSpaceOnUse">
<stop stop-color="#245EF1"/>
<stop offset="1" stop-color="#514A9D"/>
</linearGradient>
<clipPath id="clip0">
<rect x="0.807617" width="946" height="759" fill="white"/>
</clipPath>
</defs>
</svg>
