<svg width="170" height="18" viewBox="0 0 170 18" fill="none" xmlns="http://www.w3.org/2000/svg">
<path d="M16.368 16.928V17H13.416L12.072 14.048H4.416L3.096 17H0.12V16.952L7.824 0.584H8.688L16.368 16.928ZM8.256 5.144C7.904 6.104 7.536 7.032 7.152 7.928L5.376 11.816H11.136L9.36 7.928C8.912 6.936 8.544 6.008 8.256 5.144ZM23.2502 17.312C22.1302 17.312 21.0502 17.144 20.0102 16.808C18.9862 16.456 18.0742 15.96 17.2742 15.32L18.5942 13.112C19.2182 13.64 19.9222 14.056 20.7062 14.36C21.4902 14.648 22.3062 14.792 23.1542 14.792C24.0182 14.792 24.7382 14.6 25.3142 14.216C25.9062 13.832 26.2022 13.296 26.2022 12.608C26.2022 11.92 25.8982 11.376 25.2902 10.976C24.6982 10.576 23.8262 10.192 22.6742 9.824C19.4262 8.768 17.8022 7.112 17.8022 4.856C17.8022 3.928 18.0422 3.128 18.5222 2.456C19.0182 1.768 19.6822 1.248 20.5142 0.896C21.3462 0.544 22.2582 0.368 23.2502 0.368C24.2102 0.368 25.1142 0.495999 25.9622 0.751999C26.8102 1.008 27.6742 1.432 28.5542 2.024L27.3302 4.136C26.6422 3.688 25.9782 3.368 25.3382 3.176C24.7142 2.968 24.0662 2.864 23.3942 2.864C22.6262 2.864 21.9782 3.024 21.4502 3.344C20.9382 3.664 20.6822 4.12 20.6822 4.712C20.6822 5.384 20.9622 5.912 21.5222 6.296C22.0982 6.664 22.9302 7.032 24.0182 7.4C25.6022 7.912 26.8342 8.56 27.7142 9.344C28.6102 10.128 29.0582 11.168 29.0582 12.464C29.0582 13.456 28.8022 14.32 28.2902 15.056C27.7782 15.776 27.0822 16.336 26.2022 16.736C25.3222 17.12 24.3382 17.312 23.2502 17.312ZM42.2233 3.296H37.6153V17H34.7833V3.296H30.1513V0.68H42.2233V3.296ZM57.1258 16.928V17H54.1738L52.8298 14.048H45.1738L43.8538 17H40.8778V16.952L48.5818 0.584H49.4458L57.1258 16.928ZM49.0138 5.144C48.6618 6.104 48.2938 7.032 47.9098 7.928L46.1338 11.816H51.8938L50.1178 7.928C49.6698 6.936 49.3018 6.008 49.0138 5.144ZM71.5864 16.928V17H68.3704L64.5304 10.808H62.0584V17H59.2264V0.68H65.6344C66.6904 0.68 67.6424 0.904 68.4904 1.352C69.3384 1.784 69.9944 2.392 70.4584 3.176C70.9384 3.944 71.1784 4.808 71.1784 5.768C71.1784 6.904 70.8424 7.896 70.1704 8.744C69.4984 9.576 68.5784 10.16 67.4104 10.496L71.5864 16.928ZM65.3464 8.456C66.2744 8.456 67.0024 8.224 67.5304 7.76C68.0584 7.28 68.3224 6.632 68.3224 5.816C68.3224 5.032 68.0504 4.392 67.5064 3.896C66.9624 3.384 66.2584 3.128 65.3944 3.128H62.0584V8.456H65.3464ZM84.5046 3.296H79.8966V17H77.0646V3.296H72.4326V0.68H84.5046V3.296ZM99.4071 16.928V17H96.4551L95.1111 14.048H87.4551L86.1351 17H83.1591V16.952L90.8631 0.584H91.7271L99.4071 16.928ZM91.2951 5.144C90.9431 6.104 90.5751 7.032 90.1911 7.928L88.4151 11.816H94.1751L92.3991 7.928C91.9511 6.936 91.5831 6.008 91.2951 5.144ZM111.75 17.312C110.63 17.312 109.55 17.144 108.51 16.808C107.486 16.456 106.574 15.96 105.774 15.32L107.094 13.112C107.718 13.64 108.422 14.056 109.206 14.36C109.99 14.648 110.806 14.792 111.654 14.792C112.518 14.792 113.238 14.6 113.814 14.216C114.406 13.832 114.702 13.296 114.702 12.608C114.702 11.92 114.398 11.376 113.79 10.976C113.198 10.576 112.326 10.192 111.174 9.824C107.926 8.768 106.302 7.112 106.302 4.856C106.302 3.928 106.542 3.128 107.022 2.456C107.518 1.768 108.182 1.248 109.014 0.896C109.846 0.544 110.758 0.368 111.75 0.368C112.71 0.368 113.614 0.495999 114.462 0.751999C115.31 1.008 116.174 1.432 117.054 2.024L115.83 4.136C115.142 3.688 114.478 3.368 113.838 3.176C113.214 2.968 112.566 2.864 111.894 2.864C111.126 2.864 110.478 3.024 109.95 3.344C109.438 3.664 109.182 4.12 109.182 4.712C109.182 5.384 109.462 5.912 110.022 6.296C110.598 6.664 111.43 7.032 112.518 7.4C114.102 7.912 115.334 8.56 116.214 9.344C117.11 10.128 117.558 11.168 117.558 12.464C117.558 13.456 117.302 14.32 116.79 15.056C116.278 15.776 115.582 16.336 114.702 16.736C113.822 17.12 112.838 17.312 111.75 17.312ZM130.723 3.296H126.115V17H123.283V3.296H118.651V0.68H130.723V3.296ZM145.626 16.928V17H142.674L141.33 14.048H133.674L132.354 17H129.378V16.952L137.082 0.584H137.946L145.626 16.928ZM137.514 5.144C137.162 6.104 136.794 7.032 136.41 7.928L134.634 11.816H140.394L138.618 7.928C138.17 6.936 137.802 6.008 137.514 5.144ZM156.317 3.296H151.709V17H148.877V3.296H144.245V0.68H156.317V3.296ZM169.277 14.504V17H158.789V0.68H169.061V3.176H161.621V7.496H168.125V9.92H161.621V14.504H169.277Z" fill="white"/>
</svg>
