<svg width="800" height="758" viewBox="0 0 800 758" fill="none" xmlns="http://www.w3.org/2000/svg">
<path d="M653.265 240.989C593.387 206.082 517.102 218.085 458.994 265.141C455.739 267.782 444.724 276.74 442.447 278.438C374.544 326.843 303.631 348.03 263.279 293.243C260.584 289.403 247.666 268.509 242.789 262.893C236.48 255.685 228.923 249.514 220.277 244.474C169.525 214.888 100.347 239.354 65.6821 298.816C30.9079 358.466 43.9714 430.625 94.5635 460.119C119.379 474.586 148.485 476.174 175.945 466.97C178.373 466.117 193.061 460.056 194.79 459.299C290.42 419.998 342.966 452.396 391.148 522.085C393.683 525.831 402.972 540.071 405.086 543.068C417.349 560.302 432.757 575.083 451.649 586.096C532.82 633.417 643.708 594.439 699.325 499.036C754.942 403.633 734.436 288.309 653.265 240.989Z" fill="#01DCFE"/>
<path d="M650.44 265.011C590.562 230.104 514.276 242.108 456.169 289.164C452.913 291.805 441.899 300.763 439.622 302.461C371.719 350.866 300.806 372.052 260.454 317.265C257.759 313.425 244.841 292.532 239.964 286.915C233.655 279.708 226.097 273.537 217.452 268.497C166.7 238.91 97.5215 263.377 62.8569 322.839C28.0827 382.489 41.1462 454.648 91.7383 484.141C116.554 498.608 145.66 500.197 173.12 490.993C175.548 490.139 190.236 484.079 191.965 483.322C287.595 444.021 340.141 476.419 388.323 546.107C390.858 549.854 400.147 564.094 402.261 567.091C414.523 584.324 429.932 599.106 448.824 610.119C529.995 657.44 640.883 618.461 696.5 523.058C752.116 427.656 731.611 312.332 650.44 265.011Z" fill="url(#paint0_linear)"/>
<path d="M668.212 364.992C667.871 363.627 667.316 362.348 666.634 361.196L668.212 358.765L665.994 356.548L663.775 354.33L661.344 355.951C660.149 355.268 658.869 354.714 657.547 354.373L656.992 351.515H653.835H650.678L650.123 354.373C648.758 354.714 647.478 355.268 646.327 355.951L643.895 354.33L641.676 356.548L639.458 358.765L641.079 361.196C640.397 362.39 639.842 363.67 639.501 364.992L636.642 365.546V368.702V371.858L639.501 372.413C639.842 373.778 640.397 375.057 641.079 376.209L639.458 378.64L641.676 380.857L643.895 383.075L646.327 381.454C647.521 382.137 648.801 382.691 650.123 383.032L650.678 385.89H653.835H656.992L657.547 383.032C658.912 382.691 660.192 382.137 661.344 381.454L663.775 383.075L665.994 380.857L668.212 378.64L666.591 376.209C667.274 375.014 667.828 373.735 668.169 372.413L671.028 371.858V368.702V365.589L668.212 364.992ZM653.792 379.791C647.692 379.791 642.743 374.844 642.743 368.745C642.743 362.646 647.692 357.699 653.792 357.699C659.893 357.699 664.842 362.646 664.842 368.745C664.884 374.844 659.893 379.791 653.792 379.791Z" fill="url(#paint1_linear)"/>
<path d="M672.521 391.818C672.35 391.178 672.094 390.624 671.796 390.069L672.521 388.961L671.497 387.937L670.473 386.913L669.364 387.639C668.809 387.34 668.255 387.084 667.615 386.913L667.359 385.634H665.908H664.458L664.202 386.956C663.562 387.127 663.007 387.383 662.453 387.681L661.343 386.956L660.32 387.98L659.296 389.003L660.021 390.112C659.722 390.667 659.466 391.221 659.296 391.861L657.973 392.117V393.567V395.017L659.296 395.273C659.466 395.912 659.722 396.467 660.021 397.021L659.296 398.13L660.32 399.154L661.343 400.177L662.453 399.452C663.007 399.751 663.562 400.007 664.202 400.177L664.458 401.499H665.908H667.359L667.615 400.177C668.255 400.007 668.809 399.751 669.364 399.452L670.473 400.177L671.497 399.154L672.521 398.13L671.796 397.021C672.094 396.467 672.35 395.912 672.521 395.273L673.843 395.017V393.567V392.117L672.521 391.818ZM665.908 398.599C663.093 398.599 660.831 396.339 660.831 393.524C660.831 390.709 663.093 388.449 665.908 388.449C668.724 388.449 670.985 390.709 670.985 393.524C670.985 396.339 668.724 398.599 665.908 398.599Z" fill="url(#paint2_linear)"/>
<path d="M580.809 492.327H596.338V445.2H580.809V492.327Z" fill="url(#paint3_linear)"/>
<path d="M528.367 467.903H648.801C652.555 467.903 655.627 464.832 655.627 461.079V380.175C655.627 376.422 652.555 373.351 648.801 373.351H528.367C524.612 373.351 521.541 376.422 521.541 380.175V461.079C521.541 464.875 524.612 467.903 528.367 467.903Z" fill="white"/>
<path d="M526.799 453.073H650.348V363.298H526.799V453.073Z" fill="#ECEAEA"/>
<path d="M526.788 374.162H650.337V363.329H526.788V374.162Z" fill="url(#paint4_linear)"/>
<path d="M584.254 459.885C584.254 462.273 586.173 464.192 588.563 464.192C590.952 464.192 592.871 462.273 592.871 459.885C592.871 457.497 590.952 455.577 588.563 455.577C586.173 455.535 584.254 457.497 584.254 459.885Z" fill="url(#paint5_linear)"/>
<path d="M568.511 385.079H605.414C606.224 385.079 606.907 384.397 606.907 383.587V383.374C606.907 382.563 606.224 381.881 605.414 381.881H568.511C567.701 381.881 567.018 382.563 567.018 383.374V383.587C566.976 384.397 567.658 385.079 568.511 385.079Z" fill="#DFE1E8"/>
<path d="M568.511 390.88H605.414C606.224 390.88 606.907 390.197 606.907 389.387V389.174C606.907 388.363 606.224 387.681 605.414 387.681H568.511C567.701 387.681 567.018 388.363 567.018 389.174V389.387C566.976 390.197 567.658 390.88 568.511 390.88Z" fill="#DFE1E8"/>
<path d="M568.511 396.68H605.414C606.224 396.68 606.907 395.997 606.907 395.187V394.974C606.907 394.164 606.224 393.481 605.414 393.481H568.511C567.701 393.481 567.018 394.164 567.018 394.974V395.187C566.976 395.997 567.658 396.68 568.511 396.68Z" fill="#DFE1E8"/>
<path d="M585.832 446.792H539.501C535.619 446.792 532.505 443.636 532.505 439.797V411.649C532.505 407.768 535.662 404.655 539.501 404.655H585.832C589.714 404.655 592.829 407.811 592.829 411.649V439.797C592.829 443.636 589.672 446.792 585.832 446.792ZM539.501 405.508C536.131 405.508 533.358 408.237 533.358 411.649V439.797C533.358 443.167 536.088 445.939 539.501 445.939H585.832C589.202 445.939 591.975 443.209 591.975 439.797V411.649C591.975 408.28 589.245 405.508 585.832 405.508H539.501Z" fill="#DFE1E8"/>
<path d="M543.17 415.232H582.163C583.87 415.232 585.235 413.867 585.235 412.161V411.564C585.235 409.858 583.87 408.493 582.163 408.493H543.17C541.464 408.493 540.099 409.858 540.099 411.564V412.161C540.099 413.824 541.464 415.232 543.17 415.232Z" fill="#DFE1E8"/>
<path d="M623.502 490.549H553.665V494.089H623.502V490.549Z" fill="url(#paint6_linear)"/>
<path d="M636.429 413.867C636.429 417.578 634.424 420.819 631.438 422.525C630.84 422.866 630.2 423.165 629.518 423.378C629.475 423.378 629.39 423.421 629.347 423.421C628.409 423.719 627.385 423.89 626.361 423.89C624.74 423.89 623.247 423.506 621.881 422.866C618.554 421.203 616.293 417.791 616.293 413.867C616.293 408.323 620.815 403.802 626.361 403.802C631.95 403.802 636.429 408.323 636.429 413.867Z" fill="#EEF0F7"/>
<path d="M624.015 412.801C624.015 412.801 623.332 408.366 627.001 408.451C630.67 408.536 630.627 410.711 630.584 412.929C630.499 415.104 629.091 414.933 630.712 417.962C632.291 420.99 629.347 420.99 629.347 420.99L627.044 417.834L624.015 412.801Z" fill="#3C4145"/>
<path d="M626.574 408.877C626.574 408.877 624.1 409.261 623.972 412.801C623.887 416.341 624.655 417.108 626.83 416.341C629.006 415.616 629.689 411.905 629.731 411.308C629.817 410.754 629.945 408.451 626.574 408.877Z" fill="#EEA886"/>
<path d="M630.968 421.16C630.968 422.226 630.414 422.909 629.561 423.378C629.518 423.378 629.433 423.421 629.39 423.421C628.451 423.719 627.428 423.89 626.404 423.89C624.783 423.89 623.289 423.506 621.924 422.866C621.626 422.269 622.052 421.416 622.948 420.094C623.545 419.198 624.143 418.26 625.166 417.834C626.702 417.578 628.281 417.578 629.433 418.218C630.329 418.687 630.926 419.625 630.968 421.16Z" fill="#E55353"/>
<path d="M623.46 420.051L622.308 421.843C622.308 421.843 622.393 421.544 622.521 420.776C622.564 420.606 622.564 420.478 622.607 420.265C622.607 420.222 622.607 420.137 622.649 420.094C623.119 418.985 624.654 418.132 624.74 418.09L623.46 420.051Z" fill="#E55353"/>
<path d="M631.48 422.525C630.883 422.866 630.243 423.165 629.56 423.378C629.518 423.378 629.432 423.421 629.39 423.421C629.134 422.781 628.92 422.184 628.878 422.056C628.878 422.013 628.835 421.928 628.792 421.843C628.579 421.331 628.11 420.222 628.11 419.369C628.11 418.815 628.281 418.345 628.878 418.217C629.091 418.175 629.304 418.175 629.475 418.175C630.115 418.303 630.456 418.857 630.67 419.369C630.67 419.369 630.67 419.369 630.67 419.412C630.84 419.838 630.883 420.222 630.883 420.222C630.883 420.222 630.883 420.265 630.926 420.35C630.968 420.478 631.011 420.776 631.096 421.118C631.224 421.459 631.352 421.971 631.48 422.525Z" fill="#EEA886"/>
<path d="M628.238 414.763C628.025 415.189 627.811 417.706 627.811 417.706C627.811 417.706 624.782 418.857 625.081 418.217C625.209 417.919 625.252 417.535 625.252 417.194C625.252 416.938 625.252 416.725 625.209 416.597C625.209 416.512 625.209 416.512 625.209 416.512C625.209 416.512 628.451 414.336 628.238 414.763Z" fill="#EEA886"/>
<path d="M625.55 411.394C625.55 411.394 626.83 413.483 627.982 414.294C629.134 415.104 628.537 415.786 628.537 415.786C628.537 415.786 631.566 409.389 628.707 408.963C625.806 408.536 624.057 408.493 623.972 412.801C624.015 412.801 625.294 411.394 625.55 411.394Z" fill="#3C4145"/>
<path d="M626.958 416.298C626.489 416.981 625.252 417.194 625.252 417.194C625.252 416.938 625.252 416.725 625.209 416.597C626.02 416.725 626.958 416.298 626.958 416.298Z" fill="#A77860"/>
<path d="M622.607 420.094C622.607 420.094 622.521 420.222 622.479 420.776L622.948 420.094C622.948 420.094 623.758 418.943 624.014 418.644C624.27 418.345 624.697 418.09 624.697 418.09C624.697 418.09 623.118 418.857 622.607 420.094Z" fill="#BD4444"/>
<path d="M628.707 421.8C628.707 421.8 630.67 421.032 631.224 420.99C631.224 420.99 630.84 417.834 628.921 418.175C627.001 418.516 628.707 421.8 628.707 421.8Z" fill="#E55353"/>
<path d="M625.209 417.791C625.209 417.791 623.759 420.009 624.271 420.179C624.74 420.393 627.385 419.923 628.494 417.834C628.494 417.876 626.788 416.981 625.209 417.791Z" fill="#EEA886"/>
<path d="M519.446 466.312L503.79 466.43L503.801 467.88L519.457 467.762L519.446 466.312Z" fill="#323657"/>
<path d="M522.658 452.369L518.079 467.337L519.466 467.762L524.045 452.794L522.658 452.369Z" fill="#323657"/>
<path d="M547.607 469.609H546.37V507.267H547.607V469.609Z" fill="#706865"/>
<path d="M500.533 469.629H554.245V467.496H500.533V469.629Z" fill="#B59074"/>
<path d="M507.382 507.288H508.619V469.63H507.382V507.288Z" fill="#706865"/>
<path d="M484.297 482.531H482.846V501.083H484.297V482.531Z" fill="#918783"/>
<path d="M502.002 498.908C502.002 498.908 502.002 499.719 502.3 500.7C502.513 501.382 502.897 504.111 503.367 504.495C503.879 504.879 505.5 505.86 505.244 506.926C504.988 507.95 504.817 508.675 503.068 508.078C501.319 507.481 500.167 507.097 499.826 505.604C499.485 504.069 498.546 502.704 498.546 502.704L497.266 505.817L496.583 505.561C496.583 505.561 497.607 502.192 497.522 501.894C497.437 501.595 497.991 498.908 500.082 498.226C502.215 497.458 502.002 498.908 502.002 498.908Z" fill="#1D3B54"/>
<path d="M513.648 499.889C513.648 499.889 513.947 500.657 514.587 501.425C515.014 502.022 516.421 504.367 517.019 504.538C517.616 504.708 519.493 505.05 519.664 506.073C519.834 507.139 519.92 507.864 518.085 507.95C516.251 508.035 515.014 508.163 514.16 506.841C513.264 505.561 511.857 504.623 511.857 504.623V507.992H511.131C511.131 507.992 510.79 504.495 510.619 504.239C510.406 503.983 509.937 501.297 511.643 499.889C513.307 498.482 513.648 499.889 513.648 499.889Z" fill="#1D3B54"/>
<path d="M494.877 454.042C494.877 454.042 495.304 452.592 495.346 452.379C495.389 452.208 495.773 451.824 496.242 451.44C496.712 451.057 497.565 450.715 497.65 450.758C497.736 450.801 497.864 450.758 498.034 450.971C498.205 451.184 498.247 451.483 498.247 451.483C498.247 451.483 498.589 451.654 498.589 451.995C498.589 451.995 498.887 452.165 498.845 452.549C498.845 452.549 499.143 452.72 499.058 453.018C499.058 453.018 498.674 453.402 498.546 453.573C498.461 453.743 497.565 454.468 496.626 455.066C496.669 455.066 495.474 455.961 494.877 454.042Z" fill="#EEA886"/>
<path d="M496.669 452.89C496.669 452.89 496.839 453.488 496.797 453.701C496.754 453.914 498.205 453.914 498.205 453.914C498.205 453.914 497.437 452.677 496.669 452.89Z" fill="#CF8C6C"/>
<path d="M480.5 456.515C481.097 455.577 481.865 455.151 484.297 456.857C486.771 458.563 486.174 458.221 486.771 458.776C487.369 459.33 489.928 460.652 489.928 460.652C489.928 460.652 491.422 459.16 492.147 458.093C492.957 456.899 494.664 453.701 494.664 453.701L497.053 455.492C497.053 455.492 492.445 463.894 491.464 464.491C490.483 465.13 487.582 464.064 486.089 463.425C484.553 462.785 482.975 461.974 482.292 461.804C481.609 461.633 479.007 458.989 480.5 456.515Z" fill="url(#paint7_linear)"/>
<path d="M497.948 446.784L496.796 452.033L497.255 452.134L498.407 446.885L497.948 446.784Z" fill="#EB4747"/>
<path d="M497.522 450.843C497.522 450.843 496.327 451.867 496.455 452.08C496.583 452.293 496.797 452.293 496.797 452.293L496.498 452.933C496.498 452.933 496.541 453.488 497.138 453.274C497.138 453.274 497.138 453.786 497.65 453.53C497.65 453.53 497.778 453.871 498.077 453.786C498.333 453.701 499.1 453.018 499.1 453.018C499.1 453.018 499.186 452.805 498.887 452.549C498.887 452.549 498.972 452.165 498.631 451.995C498.631 451.995 498.631 451.696 498.29 451.483C498.29 451.483 498.29 450.801 497.693 450.758C497.65 450.758 497.607 450.801 497.522 450.843Z" fill="#DB9C7C"/>
<path d="M495.346 452.421C495.346 452.421 496.157 451.696 496.754 451.483C496.882 451.44 497.053 451.398 497.138 451.526C497.224 451.654 497.181 451.91 496.84 452.251C496.498 452.592 496.242 453.146 496.242 453.146C496.242 453.146 495.816 453.402 495.346 452.421Z" fill="#EEA886"/>
<path d="M491.976 461.633C491.976 461.633 492.445 459.885 491.891 458.52C491.891 458.52 492.104 459.927 491.507 460.908C491.038 461.633 491.976 461.633 491.976 461.633Z" fill="url(#paint8_linear)"/>
<path d="M500.722 461.889C500.722 461.889 502.001 452.293 504.262 448.114H500.978C500.978 448.114 497.266 454.682 497.949 461.292L500.722 461.889Z" fill="#EDDAD3"/>
<path d="M501.532 454.724C501.532 454.724 501.916 453.999 502.002 453.786C502.087 453.573 502.471 453.957 502.428 454.255C502.343 454.511 501.532 454.724 501.532 454.724Z" fill="#EEA886"/>
<path d="M504.476 456.302C504.476 456.302 504.391 456.643 504.263 456.771C504.263 456.771 504.049 456.985 503.879 457.155C503.836 457.198 503.793 457.241 503.751 457.283C503.665 457.411 503.495 457.752 503.153 458.008C502.812 458.264 501.575 459.117 501.575 459.117L500.679 458.179L499.954 457.454C499.954 457.454 500.551 455.193 500.85 454.895C500.892 454.852 500.892 454.852 500.935 454.81C501.191 454.596 501.49 454.554 501.618 454.426C501.66 454.383 502.258 454.085 502.428 454.127C502.684 454.213 502.812 454.383 502.855 454.596C502.855 454.596 503.324 454.81 503.495 455.151C503.495 455.151 503.964 455.321 504.049 455.79C504.049 455.79 504.476 456.004 504.476 456.302Z" fill="#EEA886"/>
<path d="M510.363 481.124C510.363 481.124 508.188 486.071 506.609 489.568C506.353 490.165 506.097 490.72 505.884 491.189C505.628 491.743 505.415 492.212 505.287 492.554C504.305 494.814 501.831 499.676 501.831 499.676C501.831 499.676 499.997 499.761 499.869 498.183C499.869 498.183 501.66 494.771 501.66 492.383C501.66 489.995 502.002 482.958 504.263 481.465C507.036 479.631 508.828 479.29 510.363 481.124Z" fill="#EEA886"/>
<path d="M490.056 471.698C490.056 471.698 490.526 472.168 490.91 472.253C491.294 472.381 497.863 472.85 500.892 473.873C503.921 474.854 507.932 475.494 508.7 476.347C509.467 477.2 510.705 481.891 510.662 482.787C510.619 483.683 513.307 498.695 513.648 499.846C513.819 500.486 511.217 500.23 511.217 500.23C511.217 500.23 507.505 491.359 506.694 489.739C505.244 486.711 505.159 483.043 504.647 482.488C504.092 481.934 498.162 480.655 494.749 480.655C491.336 480.655 483.657 480.953 482.846 480.484C482.036 480.015 476.916 476.646 479.05 472.125C481.14 467.604 490.056 471.698 490.056 471.698Z" fill="#EEA886"/>
<path d="M504.86 474.94L499.442 485.389C499.442 485.389 497.821 481.508 494.962 480.868C492.104 480.185 480.713 480.569 480.713 480.569C480.713 480.569 475.509 473.959 479.945 470.504C484.425 467.05 489.63 471.059 489.63 471.059C489.63 471.059 490.696 472.21 491.251 472.253C495.048 472.423 499.1 473.106 504.86 474.94Z" fill="#1D3B54"/>
<path d="M516.976 504.538C516.976 504.538 515.312 504.964 514.672 504.538C514.032 504.111 511.899 500.486 511.174 500.273C511.174 500.273 511.856 498.866 513.606 499.889C513.648 499.889 516.507 503.941 516.976 504.538Z" fill="#EEA886"/>
<path d="M503.367 504.452C503.367 504.452 501.66 504.239 501.234 503.599C500.807 502.96 500.167 498.823 499.57 498.354C499.57 498.354 500.722 497.33 501.959 498.908C502.002 498.908 503.153 503.727 503.367 504.452Z" fill="#EEA886"/>
<path d="M486.131 438.945C487.454 438.902 490.312 439.542 490.782 442.996C490.782 442.996 490.696 443.934 490.44 444.659C490.227 445.384 490.867 447.56 490.696 447.645C490.526 447.73 489.8 447.901 489.8 447.901C489.8 447.901 489.032 450.246 488.222 450.246C487.411 450.246 484.254 449.564 482.804 446.664C481.353 443.679 480.884 439.2 486.131 438.945Z" fill="#EEA886"/>
<path d="M487.113 449.138C487.113 449.138 487.027 449.479 486.899 449.948C486.857 450.204 486.771 450.502 486.729 450.801C486.558 451.654 486.473 452.677 486.729 453.317C486.729 453.317 484.894 453.957 483.444 451.355C483.444 451.355 484.084 448.583 483.273 446.877C482.463 445.257 487.113 449.138 487.113 449.138Z" fill="#EEA886"/>
<path d="M490.782 442.996C490.782 442.996 488.777 444.787 486.686 444.659C484.553 444.531 483.145 447.218 483.145 447.218C483.145 447.218 479.946 443.209 482.505 439.968C485.065 436.684 491.251 438.944 490.782 442.996Z" fill="#1D3B54"/>
<path d="M485.705 444.617C485.705 444.19 485.235 443.593 484.595 444.148C483.913 444.702 484.809 446.621 485.363 446.451C485.875 446.28 485.705 445.043 485.705 444.617Z" fill="#EEA886"/>
<path d="M486.899 449.948C486.857 450.204 486.771 450.502 486.729 450.801C485.022 449.734 484.169 448.412 484.169 448.412C485.15 449.308 486.899 449.948 486.899 449.948Z" fill="#A77860"/>
<path d="M491.848 459.842C491.464 461.633 490.44 461.719 490.525 463.041C490.568 464.363 490.995 464.491 490.312 466.538C490.184 466.922 490.099 467.348 490.014 467.775C490.014 467.817 490.014 467.86 489.971 467.945C489.928 468.201 489.886 468.415 489.843 468.67C489.8 469.097 489.758 469.523 489.715 469.95C489.63 470.973 490.397 471.784 490.397 471.784C490.397 471.784 483.742 475.793 479.135 475.238C479.135 475.238 480.329 470.248 480.969 468.543C481.609 466.837 481.439 458.947 480.927 457.241C480.201 454.724 481.652 450.971 483.572 450.502L486.558 451.91C486.558 451.91 489.587 455.535 490.27 456.047C490.995 456.516 492.275 458.008 491.848 459.842Z" fill="url(#paint9_linear)"/>
<path d="M481.95 452.549C482.804 451.824 484.041 450.63 485.833 453.018C487.624 455.407 488.904 456.942 489.331 457.625C489.715 458.307 493.085 463.169 493.085 463.169C493.085 463.169 494.877 461.506 495.901 460.738C497.053 459.842 500.21 456.601 500.21 456.601L502.3 458.904C502.3 458.904 495.09 466.879 493.981 467.178C492.872 467.476 489.758 464.662 488.52 463.553C487.283 462.486 483.828 458.52 483.23 458.136C482.548 457.752 479.732 454.383 481.95 452.549Z" fill="url(#paint10_linear)"/>
<path d="M506.609 489.568C506.353 490.165 506.097 490.72 505.884 491.189C505.073 488.587 505.159 484.237 505.159 484.237C505.628 487.265 506.566 489.526 506.609 489.568Z" fill="#A77860"/>
<path d="M494.963 480.527H471.84V483.086H494.963V480.527Z" fill="url(#paint11_linear)"/>
<path d="M483.87 472.424C483.87 472.424 483.273 474.769 486.046 475.324C488.776 475.878 492.147 476.56 492.147 480.783H482.633L483.87 472.424Z" fill="url(#paint12_linear)"/>
<path d="M497.949 446.792L498.375 446.067L498.418 446.877L497.949 446.792Z" fill="#EEA886"/>
<path d="M471.84 483.086L463.777 449.137C463.777 449.137 478.367 446.877 480.116 453.402C481.865 459.97 484.724 479.418 488.179 480.655C491.677 481.849 471.84 483.086 471.84 483.086Z" fill="url(#paint13_linear)"/>
<path d="M490.611 465.386C490.611 465.386 490.483 466.026 490.312 466.538L486.771 461.932L490.611 465.386Z" fill="url(#paint14_linear)"/>
<path d="M481.695 444.276C481.695 444.276 483.102 447.986 482.718 449.01C482.718 449.01 484.894 448.071 484.51 445.64C484.126 443.209 481.695 444.276 481.695 444.276Z" fill="#1D3B54"/>
<path d="M486.771 451.995V451.27L483.657 449.734L482.591 451.014L486.771 451.995Z" fill="#1D3B54"/>
<path d="M497.821 505.903C497.821 506.585 497.266 507.097 496.626 507.097C495.944 507.097 495.432 506.542 495.432 505.903C495.432 505.22 495.986 504.708 496.626 504.708C497.309 504.666 497.821 505.22 497.821 505.903Z" fill="#BFB2AC"/>
<path d="M470.603 504.666L470.944 505.561L483.87 501.552L483.23 499.804L470.603 504.666Z" fill="#918783"/>
<path d="M496.626 504.666L496.327 505.561L483.401 501.552L483.955 499.676L496.626 504.666Z" fill="#918783"/>
<path d="M487.496 505.433V506.457L483.401 501.552L483.955 499.676L487.496 505.433Z" fill="#918783"/>
<path d="M487.624 505.903C487.624 506.585 487.07 507.097 486.43 507.097C485.747 507.097 485.235 506.542 485.235 505.903C485.235 505.22 485.79 504.708 486.43 504.708C487.07 504.666 487.624 505.22 487.624 505.903Z" fill="#BFB2AC"/>
<path d="M470.602 507.097C471.262 507.097 471.797 506.562 471.797 505.903C471.797 505.243 471.262 504.708 470.602 504.708C469.943 504.708 469.408 505.243 469.408 505.903C469.408 506.562 469.943 507.097 470.602 507.097Z" fill="#BFB2AC"/>
<path d="M640.183 384.525C640.183 387.724 639.031 390.666 637.112 392.927C636.685 393.438 636.173 393.95 635.661 394.419C635.49 394.547 635.362 394.675 635.192 394.803C635.021 394.931 634.85 395.059 634.637 395.187C632.931 396.424 630.883 397.234 628.707 397.49C628.323 397.533 627.939 397.575 627.513 397.575C627.385 397.575 627.214 397.575 627.086 397.575C626.659 397.575 626.233 397.575 625.849 397.533C625.38 397.49 624.953 397.405 624.484 397.319C622.521 396.936 620.687 396.083 619.151 394.889C618.682 394.547 618.255 394.164 617.828 393.737C617.743 393.652 617.658 393.566 617.572 393.481C617.274 393.183 617.018 392.841 616.762 392.5C615.055 390.282 614.031 387.51 614.031 384.525C614.031 377.317 619.876 371.432 627.129 371.432C634.296 371.475 640.183 377.317 640.183 384.525Z" fill="#EEF0F7"/>
<path d="M635.618 391.775L634.637 395.23C632.931 396.466 630.883 397.277 628.707 397.533C628.323 397.575 627.939 397.618 627.513 397.618C627.385 397.618 627.214 397.618 627.086 397.618C626.659 397.618 626.233 397.618 625.849 397.575C625.379 397.533 624.953 397.447 624.484 397.362C622.521 396.978 620.687 396.125 619.151 394.931C618.98 393.78 618.767 392.5 618.596 391.349C619.577 391.007 622.606 389.941 624.569 389.301C624.612 389.301 624.612 389.301 624.654 389.259C624.697 389.259 624.74 389.216 624.782 389.216C624.91 389.174 624.995 389.131 625.123 389.088C625.209 389.046 625.337 389.003 625.422 389.003C625.806 388.875 626.105 388.79 626.19 388.747C626.233 388.747 626.233 388.747 626.233 388.747H626.275L628.878 388.96L629.304 389.003H629.432C629.432 389.003 629.432 389.003 629.475 389.003C629.646 389.046 630.072 389.174 630.67 389.344C632.163 389.771 634.68 390.666 635.618 391.775Z" fill="#D9C7C1"/>
<path d="M627.769 378.042C627.769 378.042 630.883 378.554 630.371 383.459C629.859 388.321 627.086 387.894 626.915 387.894C626.745 387.894 624.142 387.937 624.014 382.009C623.972 381.966 623.929 377.573 627.769 378.042Z" fill="#EEA987"/>
<path d="M629.134 386.487C629.134 386.487 629.006 388.491 629.219 388.918C629.39 389.344 626.702 390.752 625.038 389.174C625.038 389.174 625.379 386.999 625.251 386.188C625.166 385.421 629.134 386.487 629.134 386.487Z" fill="#EEA987"/>
<path d="M630.413 382.051C630.413 382.051 630.755 381.71 630.883 382.051C631.011 382.435 630.328 384.056 630.371 384.141C630.371 384.141 630.328 384.269 630.243 384.184C630.157 384.141 630.413 382.051 630.413 382.051Z" fill="#EEA987"/>
<path d="M624.014 381.924C624.014 381.924 623.673 381.54 623.545 381.924C623.417 382.307 623.886 383.928 623.972 384.013C623.972 384.013 624.1 384.184 624.142 384.099C624.27 384.056 624.014 381.924 624.014 381.924Z" fill="#EEA987"/>
<path d="M630.627 381.668C630.499 382.35 630.413 382.819 630.413 382.819L629.944 383.416C629.944 383.416 629.987 382.094 629.902 381.923C629.859 381.838 629.859 381.71 629.816 381.54C629.774 381.284 629.731 381.028 629.688 380.942C629.646 380.815 627.001 380.047 624.697 381.113C624.697 381.113 624.697 381.326 624.697 381.54C624.697 381.795 624.654 382.094 624.569 382.137C624.356 382.222 624.441 383.672 624.441 383.672L624.1 383.246C624.1 383.246 624.014 382.478 623.886 381.625C623.844 381.412 623.844 381.198 623.801 380.985C623.758 380.09 623.844 378.512 624.995 377.573C625.763 377.232 627.001 376.976 629.048 377.573C629.048 377.573 629.518 377.616 629.646 377.744C630.883 379.151 630.627 381.668 630.627 381.668Z" fill="#E8734D"/>
<path d="M625.465 387.254C625.465 387.254 625.977 387.937 627.128 387.937C628.28 387.894 628.792 387.297 628.792 387.297C628.792 387.297 628.238 388.449 627.128 388.449C626.019 388.406 625.465 387.254 625.465 387.254Z" fill="#C78D71"/>
<path d="M624.74 389.216C624.74 389.216 625.593 390.666 627.171 390.794C628.195 390.88 629.048 389.6 629.432 389.003C629.432 388.96 627.171 388.022 624.74 389.216Z" fill="#EEA987"/>
<path d="M629.134 388.534C629.134 388.534 628.494 389.387 627.128 390.24L627.982 391.519L629.432 388.96L629.134 388.534Z" fill="#EDDAD3"/>
<path d="M625.081 388.705C625.081 388.705 625.891 389.728 627.129 390.24L626.19 391.562L624.569 389.216L625.081 388.705Z" fill="#EDDAD3"/>
<path d="M627.129 390.24L627.854 391.349C627.854 391.349 627.086 391.775 626.403 391.306L627.129 390.24Z" fill="#5073AB"/>
<path d="M636.429 391.562C636.429 391.562 636.429 391.604 636.429 391.647C636.344 391.946 636.045 393.012 635.661 394.462C635.49 394.59 635.362 394.718 635.192 394.846C635.021 394.974 634.85 395.102 634.637 395.23C632.931 396.466 630.883 397.277 628.707 397.533C628.92 393.012 629.432 389.003 629.432 389.003C629.859 389.131 630.243 389.216 630.627 389.344C633.954 390.282 635.618 391.135 636.216 391.434C636.386 391.519 636.429 391.562 636.429 391.562Z" fill="#323657"/>
<path d="M624.483 397.362C622.521 396.978 620.687 396.125 619.151 394.931C618.681 394.59 618.255 394.206 617.828 393.78C617.743 393.694 617.658 393.609 617.572 393.524C617.359 392.543 617.188 391.903 617.188 391.861C617.188 391.861 618.809 390.794 624.526 389.259C624.526 389.387 624.526 393.055 624.483 397.362Z" fill="#323657"/>
<path d="M627.555 391.477C627.512 392.671 627.512 394.974 627.512 397.618C627.384 397.618 627.214 397.618 627.086 397.618C626.659 397.618 626.233 397.618 625.849 397.575C626.105 394.334 626.531 392.287 626.702 391.477C626.745 391.221 626.787 391.093 626.787 391.093L627.555 391.221C627.555 391.263 627.555 391.349 627.555 391.477Z" fill="#5073AB"/>
<path d="M637.111 392.969C636.685 393.481 636.173 393.993 635.661 394.462C635.49 394.59 635.362 394.718 635.192 394.846L636.216 391.434C636.258 391.477 636.344 391.562 636.429 391.647C636.599 391.903 636.855 392.372 637.111 392.969Z" fill="#323657"/>
<path d="M617.786 393.737C617.7 393.652 617.615 393.566 617.53 393.481C617.231 393.183 616.975 392.841 616.719 392.5C616.847 392.159 617.018 391.903 617.146 391.818L617.786 393.737Z" fill="#323657"/>
<path d="M548.119 370.792H533.443C532.633 370.792 531.95 370.152 531.95 369.299V368.148C531.95 367.338 532.59 366.655 533.443 366.655H548.119C548.93 366.655 549.612 367.295 549.612 368.148V369.299C549.57 370.11 548.93 370.792 548.119 370.792Z" fill="#F5F7FF"/>
<path d="M539.245 397.618C540.056 397.917 540.952 398.045 541.848 398.045C544.621 398.087 547.095 396.808 548.631 394.761C549.74 393.353 550.38 391.605 550.38 389.685C550.38 389.515 550.38 389.302 550.38 389.131C550.337 388.278 550.167 387.468 549.868 386.7C548.716 383.501 545.645 381.156 542.018 381.113C540.056 381.07 538.264 381.71 536.814 382.819C534.809 384.354 533.486 386.743 533.443 389.472C533.443 393.268 535.875 396.467 539.245 397.618ZM535.619 389.515C535.662 387.468 536.6 385.676 538.136 384.568C539.245 383.715 540.611 383.246 542.061 383.246C544.791 383.288 547.052 384.994 547.948 387.425C548.162 387.979 548.29 388.619 548.332 389.259C548.332 389.387 548.332 389.557 548.332 389.685C548.332 391.135 547.82 392.415 547.01 393.481C545.815 395.016 543.981 395.955 541.89 395.955C541.208 395.955 540.568 395.827 539.928 395.614C537.368 394.761 535.576 392.33 535.619 389.515Z" fill="#01D2FC"/>
<path d="M546.967 393.481L548.631 394.761C547.052 396.765 544.578 398.087 541.848 398.045C540.952 398.045 540.056 397.874 539.245 397.618L539.928 395.614C540.525 395.827 541.208 395.955 541.89 395.955C543.938 395.955 545.773 395.017 546.967 393.481Z" fill="#1A598C"/>
<path d="M548.29 389.259L550.423 389.131C550.423 389.302 550.423 389.515 550.423 389.686C550.38 391.605 549.74 393.353 548.631 394.761L546.967 393.481C547.778 392.415 548.29 391.093 548.29 389.686C548.29 389.558 548.29 389.387 548.29 389.259Z" fill="#2273B5"/>
<path d="M548.289 389.259C548.247 388.619 548.119 388.022 547.906 387.425L549.911 386.7C550.209 387.468 550.38 388.278 550.423 389.131L548.289 389.259Z" fill="#2273B5"/>
<path d="M536.856 382.862C538.307 381.753 540.098 381.156 542.061 381.156C545.687 381.198 548.759 383.501 549.911 386.743L547.906 387.468C547.01 385.079 544.749 383.331 542.018 383.288C540.525 383.288 539.16 383.757 538.093 384.61L536.856 382.862Z" fill="#4DA8F2"/>
<path d="M604.945 414.464H599.441C598.332 414.464 597.479 413.569 597.479 412.502V407.001C597.479 405.892 598.375 405.039 599.441 405.039H604.945C606.054 405.039 606.907 405.934 606.907 407.001V412.502C606.907 413.611 606.011 414.464 604.945 414.464Z" fill="#01D2FC"/>
<path d="M601.873 411.82L599.484 409.73C599.271 409.559 599.271 409.261 599.441 409.048C599.612 408.834 599.91 408.834 600.124 409.005L601.83 410.455L604.219 407.768C604.39 407.555 604.689 407.555 604.902 407.726C605.115 407.896 605.115 408.195 604.945 408.408L601.873 411.82Z" fill="#F3F3F3"/>
<path d="M604.945 426.534H599.441C598.332 426.534 597.479 425.638 597.479 424.572V419.07C597.479 417.961 598.375 417.108 599.441 417.108H604.945C606.054 417.108 606.907 418.004 606.907 419.07V424.572C606.907 425.681 606.011 426.534 604.945 426.534Z" fill="#01D2FC"/>
<path d="M601.873 423.932L599.484 421.842C599.271 421.672 599.271 421.373 599.441 421.16C599.612 420.947 599.91 420.947 600.124 421.117L601.83 422.567L604.219 419.881C604.39 419.667 604.689 419.667 604.902 419.838C605.115 420.008 605.115 420.307 604.945 420.52L601.873 423.932Z" fill="#F3F3F3"/>
<path d="M604.945 438.646H599.441C598.332 438.646 597.479 437.75 597.479 436.684V431.183C597.479 430.074 598.375 429.221 599.441 429.221H604.945C606.054 429.221 606.907 430.116 606.907 431.183V436.684C606.907 437.75 606.011 438.646 604.945 438.646Z" fill="#01D2FC"/>
<path d="M567.616 494.43C567.616 494.43 567.914 496.349 568.085 497.16C568.256 497.97 570.047 500.316 570.005 500.699C569.962 501.083 569.237 501.552 568.853 501.254C568.469 500.913 565.994 498.396 565.44 497.288C564.928 496.179 563.136 494.771 562.965 494.26C562.795 493.79 565.056 492.34 565.61 492.127C566.165 491.914 567.616 494.43 567.616 494.43Z" fill="#1D2033"/>
<path d="M563.179 460.439C563.179 460.439 563.392 461.676 563.563 461.889C563.733 462.103 564.203 463.254 564.245 463.425C564.288 463.595 564.586 464.747 564.629 464.875C564.672 465.003 564.373 465.259 564.117 464.96C563.989 464.789 563.733 464.022 563.648 463.809C563.563 463.553 563.264 462.828 563.179 462.956C563.093 463.084 563.136 464.107 563.093 464.363C563.093 464.619 563.264 465.429 563.307 465.77C563.349 466.112 563.819 467.476 563.648 467.562C563.477 467.647 563.307 467.604 563.093 467.263C563.093 467.263 562.752 467.476 562.539 467.007C562.539 467.007 562.197 467.135 562.027 466.538C562.027 466.538 561.813 466.41 561.728 466.197C561.643 465.984 561.131 464.15 561.131 463.425C561.131 462.657 561.301 462.145 561.259 461.634C561.216 461.122 560.96 459.97 560.96 459.97L563.179 460.439Z" fill="#EEA886"/>
<path d="M566.293 491.829L565.61 492.127L567.615 494.43L568.255 493.705L566.293 491.829Z" fill="#50558A"/>
<path d="M573.204 496.648C573.204 496.648 572.778 497.714 572.394 498.141C572.01 498.567 570.602 499.292 570.602 500.529C570.602 501.894 572.991 501.51 573.929 501.467C574.868 501.425 574.953 500.7 575.337 499.932C575.721 499.164 576.148 499.292 576.19 498.695C576.276 498.098 575.892 496.691 575.892 496.691L573.204 496.648Z" fill="#1D2033"/>
<path d="M573.162 496.264L573.076 496.904C573.076 496.904 574.527 497.416 575.935 496.946L575.849 496.094L573.162 496.264Z" fill="#50558A"/>
<path d="M581.31 480.058C581.31 478.394 580.116 463.894 580.158 463.339C580.201 462.998 579.817 459.501 579.518 457.155V457.113C579.433 456.43 579.39 455.876 579.348 455.492C579.348 455.322 579.305 455.194 579.305 455.108C579.305 455.023 579.305 454.98 579.305 454.98C579.305 454.98 571.498 453.445 567.445 454.895C567.274 454.938 567.104 455.023 566.976 455.108C566.976 455.108 566.976 455.194 566.933 455.322C566.89 455.62 566.805 456.26 566.677 457.113C566.677 457.241 566.634 457.411 566.634 457.582C566.037 461.932 566.421 466.709 567.445 471.571C568.426 476.347 568.981 479.887 569.066 480.612C569.194 481.508 569.578 484.024 570.047 486.753C567.914 489.398 566.037 491.658 566.208 491.871C566.549 492.426 569.578 495.539 569.749 494.985C569.749 494.985 570.303 494.388 571.157 493.364C571.413 495.027 571.626 496.179 571.626 496.179C571.626 496.179 574.954 496.989 576.148 496.264C576.148 496.264 575.679 492.639 575.167 488.673C578.11 484.92 581.31 480.911 581.31 480.058ZM573.972 478.863C573.93 476.646 572.948 464.15 573.034 464.15C573.503 464.15 576.276 476.049 576.361 477.712C576.361 478.053 575.935 478.821 575.252 479.844C574.953 480.314 574.57 480.783 574.186 481.337C574.058 480.1 573.972 479.162 573.972 478.863Z" fill="#292C47"/>
<path d="M582.59 434.21L580.499 441.759C580.414 442.015 580.329 442.314 580.243 442.655C579.902 444.02 579.475 446.067 579.347 448.327C579.262 449.862 579.561 456.132 579.561 456.132C579.561 456.132 576.361 457.326 571.626 457.027C571.626 457.027 566.506 456.899 566.933 453.786C568.042 445.47 566.976 442.058 566.805 441.205C566.805 441.205 566.122 437.153 565.61 433.784C567.061 433.229 573.204 431.182 573.204 431.182L576.404 431.438C576.361 431.396 581.225 432.59 582.59 434.21Z" fill="#4DA8F2"/>
<path d="M574.783 420.478C574.783 420.478 577.897 420.989 577.385 425.894C576.873 430.756 574.1 430.329 573.929 430.329C573.759 430.329 571.156 430.372 571.028 424.444C570.986 424.401 570.943 420.009 574.783 420.478Z" fill="#EEA987"/>
<path d="M576.148 428.922C576.148 428.922 576.02 430.927 576.233 431.353C576.404 431.78 573.716 433.187 572.052 431.609C572.052 431.609 572.394 429.434 572.266 428.624C572.18 427.856 576.148 428.922 576.148 428.922Z" fill="#EEA987"/>
<path d="M577.428 424.487C577.428 424.487 577.769 424.145 577.897 424.487C578.025 424.87 577.342 426.491 577.385 426.576C577.385 426.576 577.342 426.704 577.257 426.619C577.129 426.576 577.428 424.487 577.428 424.487Z" fill="#EEA987"/>
<path d="M571.028 424.359C571.028 424.359 570.687 423.975 570.559 424.359C570.431 424.743 570.9 426.363 570.986 426.449C570.986 426.449 571.114 426.619 571.156 426.534C571.242 426.491 571.028 424.359 571.028 424.359Z" fill="#EEA987"/>
<path d="M577.598 424.103C577.47 424.785 577.385 425.254 577.385 425.254L576.916 425.851C576.916 425.851 576.958 424.529 576.873 424.359C576.83 424.273 576.83 424.145 576.788 423.975C576.745 423.719 576.702 423.463 576.66 423.378C576.617 423.25 573.972 422.482 571.668 423.548C571.668 423.548 571.668 423.762 571.668 423.975C571.668 424.231 571.626 424.529 571.498 424.572C571.284 424.657 571.37 426.107 571.37 426.107L571.028 425.681C571.028 425.681 570.943 424.913 570.815 424.06C570.772 423.847 570.772 423.634 570.73 423.42C570.687 422.525 570.772 420.947 571.924 420.009C572.692 419.667 573.929 419.411 575.977 420.009C575.977 420.009 576.446 420.051 576.574 420.179C577.897 421.587 577.598 424.103 577.598 424.103Z" fill="#E8734D"/>
<path d="M572.479 429.69C572.479 429.69 572.991 430.372 574.143 430.372C575.295 430.329 575.807 429.732 575.807 429.732C575.807 429.732 575.252 430.884 574.143 430.884C573.034 430.841 572.479 429.69 572.479 429.69Z" fill="#C78D71"/>
<path d="M571.711 431.652C571.711 431.652 572.564 433.102 574.143 433.23C575.167 433.315 576.02 432.036 576.404 431.438C576.404 431.396 574.186 430.458 571.711 431.652Z" fill="#EEA987"/>
<path d="M576.148 430.969C576.148 430.969 575.508 431.822 574.143 432.675L574.996 433.955L576.447 431.396L576.148 430.969Z" fill="#EDDAD3"/>
<path d="M572.095 431.14C572.095 431.14 572.906 432.163 574.143 432.675L573.204 433.997L571.583 431.652L572.095 431.14Z" fill="#EDDAD3"/>
<path d="M574.143 432.675L574.868 433.784C574.868 433.784 574.1 434.211 573.417 433.741L574.143 432.675Z" fill="url(#paint15_linear)"/>
<path d="M566.719 457.582C566.719 457.582 570.644 459.032 579.475 457.667L579.347 456.046C579.347 456.046 574.228 457.539 566.89 456.26L566.719 457.582Z" fill="#1D2033"/>
<path d="M576.404 431.396C576.404 431.396 575.508 438.219 575.636 444.105C575.764 449.99 580.201 460.695 580.201 460.695C580.201 460.695 582.163 458.819 582.974 457.752C582.974 457.752 579.945 449.01 579.988 447.432C580.03 445.854 583.401 433.955 583.401 433.955C583.401 433.955 581.566 432.761 576.404 431.396Z" fill="#323657"/>
<path d="M571.498 431.694C571.498 431.694 571.498 438.219 571.37 444.105C571.242 449.99 570.474 460.951 570.474 460.951C570.474 460.951 566.122 460.269 565.269 459.202C565.269 459.202 567.018 449.009 566.976 447.431C566.933 445.853 564.16 434.253 564.16 434.253C564.16 434.253 565.781 433.229 571.498 431.694Z" fill="#323657"/>
<path d="M574.442 456.558H572.052V458.35H574.442V456.558Z" fill="url(#paint16_linear)"/>
<path d="M573.801 433.485C573.801 433.485 572.735 437.153 572.65 444.403C572.564 451.654 572.778 453.743 572.778 453.743L573.631 455.407L574.74 453.658C574.74 453.658 574.399 436.94 574.569 433.571L573.801 433.485Z" fill="url(#paint17_linear)"/>
<path d="M579.945 460.781C579.945 460.781 580.201 460.61 580.286 460.482C580.286 460.482 580.414 460.226 580.499 460.098C580.542 460.056 580.542 460.013 580.585 459.97C580.67 459.842 580.883 459.629 581.011 459.288C581.139 458.947 581.225 457.454 581.225 457.454L580.286 457.198L579.475 456.857C579.475 456.857 577.684 458.222 577.513 458.52C577.513 458.563 577.47 458.563 577.47 458.606C577.385 458.861 577.428 459.075 577.385 459.245C577.385 459.288 577.3 459.8 577.428 459.928C577.598 460.098 577.769 460.141 577.94 460.098C577.94 460.098 578.281 460.397 578.622 460.439C578.622 460.439 578.921 460.738 579.347 460.653C579.347 460.61 579.731 460.866 579.945 460.781Z" fill="#EEA886"/>
<path d="M578.793 456.644C578.793 456.644 580.03 457.752 581.779 458.307C581.779 458.307 587.581 448.882 587.624 448.199C587.709 447.559 584.766 434.765 583.443 433.955L581.054 440.992C581.225 440.949 583.784 446.323 583.784 447.048C583.784 448.029 578.793 456.644 578.793 456.644Z" fill="#323657"/>
<path d="M563.861 461.719C563.861 461.719 562.581 461.975 560.662 461.847C560.662 461.847 561.387 449.734 561.302 449.095C561.216 448.455 562.795 435.106 564.117 434.296L566.464 441.418C566.293 441.375 564.885 448.711 564.885 449.393C564.928 450.331 563.861 461.719 563.861 461.719Z" fill="#323657"/>
<path d="M577.257 458.008L581.011 459.927L579.518 462.614L576.361 459.245L577.257 458.008Z" fill="#292C47"/>
<path d="M575.252 479.802L574.868 487.137L574.186 481.294C574.612 480.783 574.953 480.271 575.252 479.802Z" fill="#1D2033"/>
<path d="M558.742 390.453H556.566V397.575H558.742V390.453Z" fill="#01D2FC"/>
<path d="M636.429 437.793C636.429 443.337 631.95 447.858 626.361 447.858C620.815 447.858 616.293 443.337 616.293 437.793C616.293 432.249 620.815 427.728 626.361 427.728C631.95 427.771 636.429 432.249 636.429 437.793Z" fill="#EEF0F7"/>
<path d="M555.201 392.458H553.025V397.575H555.201V392.458Z" fill="#01D2FC"/>
<path d="M562.283 387.169H560.107V397.575H562.283V387.169Z" fill="#01D2FC"/>
<path d="M650.466 467.437H664.416V466.626H650.466V467.437Z" fill="#E2D2CA"/>
<path d="M662.581 469.609H661.344V507.267H662.581V469.609Z" fill="#706865"/>
<path d="M643.002 467.578H652.686V466.384H643.002V467.578Z" fill="#CCBDB7"/>
<path d="M645.988 467.435H649.657V456.304H645.988V467.435Z" fill="#4667A8"/>
<path d="M615.749 469.58H669.46V467.447H615.749V469.58Z" fill="#B59074"/>
<path d="M679.774 454.511C679.774 454.511 680.371 462.742 678.75 463.723C677.726 464.32 673.716 466.41 673.844 466.794C673.972 467.178 676.105 470.291 676.105 470.291C676.105 470.291 683.826 465.216 684.082 463.595C684.338 462.017 683.698 451.526 682.632 451.057C681.821 450.715 681.437 451.014 680.414 451.739C679.006 452.763 679.774 454.511 679.774 454.511Z" fill="#FFC05C"/>
<path d="M670.26 502.107C670.26 502.107 670.516 503.77 670.516 504.026C670.559 504.282 673.204 503.898 673.204 503.898L673.417 501.894C673.417 501.894 670.559 501.894 670.26 502.107Z" fill="#424773"/>
<path d="M670.473 503.813C670.473 503.813 669.62 504.836 668.81 505.263C667.999 505.689 666.719 505.86 666.25 506.329C665.909 506.67 664.97 508.077 668.34 508.035C671.711 507.992 673.332 508.248 673.673 507.694C674.014 507.139 673.161 503.727 673.161 503.727C673.161 503.727 672.393 503.983 670.473 503.813Z" fill="#292C47"/>
<path d="M653.323 502.107C653.323 502.107 653.579 503.77 653.579 504.026C653.622 504.282 656.267 503.898 656.267 503.898L656.48 501.894C656.48 501.894 653.665 501.894 653.323 502.107Z" fill="#424773"/>
<path d="M653.579 503.813C653.579 503.813 652.726 504.836 651.915 505.263C651.105 505.689 648.119 506.073 647.649 506.499C647.308 506.841 646.711 508.163 651.446 508.035C654.816 507.949 656.438 508.248 656.779 507.694C657.12 507.139 656.267 503.727 656.267 503.727C656.267 503.727 655.542 504.026 653.579 503.813Z" fill="#292C47"/>
<path d="M678.792 473.319C678.792 473.319 669.194 474.939 667.018 475.281C664.842 475.622 653.067 478.565 651.617 479.46C650.465 480.185 652.214 497.202 652.641 503.727H657.291L657.632 484.237C663.178 484.365 667.146 482.957 671.199 483.554C675.252 484.152 678.622 485.047 681.182 481.593C681.182 481.55 681.267 474.087 678.792 473.319Z" fill="#292C47"/>
<path d="M669.321 503.727L673.844 503.429L674.27 484.194C676.659 484.237 677.47 484.109 679.432 483.853L683.058 475.366C679.859 476.006 669.62 478.565 668.255 479.418C667.103 480.143 668.895 497.202 669.321 503.727Z" fill="#292C47"/>
<path d="M674.356 437.324C674.356 437.324 670.815 436.343 669.492 439.072C668.17 441.802 668.767 447.005 670.516 447.474C672.308 447.943 674.825 447.389 675.593 445.683C676.318 443.977 676.915 441.546 676.745 440.01C676.574 438.475 675.294 437.707 674.356 437.324Z" fill="#EEA886"/>
<path d="M671.455 446.92C671.455 446.92 671.497 449.009 671.284 449.436C671.071 449.862 676.19 449.777 676.19 449.777C676.19 449.777 675.38 447.261 675.849 445.171C676.275 443.081 671.455 446.92 671.455 446.92Z" fill="#EEA886"/>
<path d="M676.105 444.361C676.105 444.361 675.849 444.915 674.484 444.83C673.161 444.744 671.412 443.124 670.857 442.996C670.303 442.868 670.26 442.527 670.26 442.527L669.961 443.039L669.364 443.124C669.364 443.124 669.748 441.503 668.895 440.949C668.042 440.394 669.279 435.831 673.63 436.94C673.63 436.94 676.958 437.537 677.001 439.371C677.001 441.247 676.745 443.38 676.105 444.361Z" fill="#3A3F47"/>
<path d="M670.985 449.393C670.985 449.393 670.985 448.54 671.369 448.455C671.753 448.37 675.422 447.858 675.891 448.071L676.105 449.18C676.105 449.18 675.166 449.734 670.985 449.393Z" fill="#E2D2CA"/>
<path d="M669.919 442.185C670.004 441.503 670.814 440.693 671.241 441.759C671.71 442.825 670.942 444.403 670.431 444.318C669.961 444.233 669.791 443.124 669.919 442.185Z" fill="#EEA886"/>
<path d="M675.379 437.793C675.379 437.793 679.688 437.58 676.147 444.275L675.379 437.793Z" fill="#3A3F47"/>
<path d="M684.936 505.988L684.637 506.883L671.113 502.704L671.796 500.913L684.936 505.988Z" fill="#918783"/>
<path d="M670.684 502.094H672.22V487.423H670.684V502.094Z" fill="#918783"/>
<path d="M666.93 487.499H675.974V486.646H666.93V487.499Z" fill="#5E5854"/>
<path d="M657.803 505.988L658.101 506.883L671.625 502.704L671.028 500.784L657.803 505.988Z" fill="#918783"/>
<path d="M667.316 506.798V507.864L671.625 502.704L671.028 500.784L667.316 506.798Z" fill="#918783"/>
<path d="M656.523 507.267C656.523 507.95 657.078 508.547 657.803 508.547C658.485 508.547 659.083 507.992 659.083 507.267C659.083 506.585 658.528 505.988 657.803 505.988C657.12 505.988 656.523 506.542 656.523 507.267Z" fill="#BFB2AC"/>
<path d="M667.188 507.267C667.188 507.95 667.743 508.547 668.468 508.547C669.151 508.547 669.748 507.992 669.748 507.267C669.748 506.585 669.194 505.988 668.468 505.988C667.786 505.988 667.188 506.542 667.188 507.267Z" fill="#BFB2AC"/>
<path d="M683.698 507.267C683.698 507.95 684.253 508.547 684.978 508.547C685.704 508.547 686.258 507.992 686.258 507.267C686.258 506.585 685.704 505.988 684.978 505.988C684.253 505.988 683.698 506.542 683.698 507.267Z" fill="#BFB2AC"/>
<path d="M662.282 486.625H680.499C681.395 486.625 682.12 485.9 682.12 485.005V484.962C682.12 484.066 681.395 483.341 680.499 483.341H662.282C661.386 483.341 660.661 484.066 660.661 484.962V485.005C660.661 485.9 661.386 486.625 662.282 486.625Z" fill="url(#paint18_linear)"/>
<path d="M622.554 507.238H623.791V469.58H622.554V507.238Z" fill="#706865"/>
<path d="M633.571 461.676H662.069C662.965 461.676 663.69 460.951 663.69 460.055V440.906C663.69 440.01 662.965 439.285 662.069 439.285H633.571C632.675 439.285 631.95 440.01 631.95 440.906V460.055C631.95 460.951 632.675 461.676 633.571 461.676Z" fill="#5F8BE3"/>
<path d="M633.19 458.15H662.413V440.494H633.19V458.15Z" fill="#F5F7FF"/>
<path d="M633.19 441.906H662.413V440.499H633.19V441.906Z" fill="#CECFD6"/>
<path d="M635.277 457.07H636.813C637.368 457.07 637.794 456.643 637.794 456.089V443.977C637.794 443.422 637.368 442.996 636.813 442.996H635.277C634.723 442.996 634.296 443.422 634.296 443.977V456.089C634.296 456.643 634.723 457.07 635.277 457.07Z" fill="#CECFD6"/>
<path d="M655.712 444.275H661.045C661.344 444.275 661.6 444.02 661.6 443.721V443.508C661.6 443.209 661.344 442.953 661.045 442.953H655.712C655.414 442.953 655.158 443.209 655.158 443.508V443.721C655.2 444.02 655.414 444.275 655.712 444.275Z" fill="#CECFD6"/>
<path d="M656.31 457.454H660.491C661.088 457.454 661.6 456.942 661.6 456.345V446.28C661.6 445.683 661.088 445.171 660.491 445.171H656.31C655.712 445.171 655.2 445.683 655.2 446.28V456.345C655.2 456.942 655.67 457.454 656.31 457.454Z" fill="#CECFD6"/>
<path d="M646.796 459.799C646.796 460.354 647.265 460.823 647.82 460.823C648.374 460.823 648.844 460.354 648.844 459.799C648.844 459.245 648.374 458.776 647.82 458.776C647.265 458.776 646.796 459.245 646.796 459.799Z" fill="#5C5552"/>
<path d="M641.25 467.476V467.092C641.25 467.092 641.805 464.619 645.772 464.619C649.74 464.619 649.654 467.476 649.654 467.476H641.25Z" fill="#2E436E"/>
<path d="M649.697 464.96C649.697 464.96 648.844 464.875 648.502 464.704C648.204 464.533 646.284 463.254 645.857 463.467C645.431 463.68 642.487 464.576 642.572 465.003C642.658 465.429 642.956 465.386 643.17 465.301C643.383 465.216 645.516 464.789 645.687 464.832C645.687 464.832 643.596 465.6 643.596 466.154C643.596 466.709 644.023 466.836 644.236 467.05C644.45 467.263 644.663 467.775 645.217 467.817C645.772 467.86 648.417 466.922 648.929 466.879C649.484 466.836 650.465 466.922 650.55 466.836C650.636 466.794 649.697 464.96 649.697 464.96Z" fill="#EEA886"/>
<path d="M665.354 450.587C668.084 450.118 670.985 449.393 670.985 449.393L676.105 449.18C676.105 449.18 680.798 450.203 682.632 451.056C682.803 451.142 682.803 455.236 683.272 456.302L681.736 459.543C681.736 459.543 680.84 465.941 680.67 468.798C680.584 470.12 680.926 481.422 680.926 481.422C680.926 481.422 680.456 481.635 677.001 482.019C673.502 482.403 664.799 481.891 664.757 481.465C664.714 481.038 666.463 466.154 666.506 465.386C666.634 464.192 666.165 458.733 666.165 458.733C665.525 459.629 663.818 463.595 662.069 465.472C661.045 466.581 655.968 467.263 654.987 467.306C652.897 467.391 649.1 467.775 648.972 467.604C648.886 467.476 648.631 464.235 648.886 464.15C649.1 464.064 656.139 463.68 657.973 462.699C658.656 462.358 660.618 458.051 660.618 458.051C660.618 458.051 663.861 451.27 665.354 450.587Z" fill="url(#paint19_linear)"/>
<path d="M675.422 481.081H683.997C685.704 481.081 687.111 479.674 687.111 477.968V463.68C687.111 461.975 685.704 460.567 683.997 460.567H675.422C673.716 460.567 672.308 461.975 672.308 463.68V477.925C672.308 479.674 673.716 481.081 675.422 481.081Z" fill="url(#paint20_linear)"/>
<path d="M674.953 485.815C677.129 485.815 678.878 485.09 680.2 483.64C683.144 480.398 682.632 474.641 682.589 474.385C682.547 473.916 682.12 473.617 681.693 473.66C681.224 473.703 680.925 474.087 680.968 474.556C680.968 474.641 681.437 479.801 678.963 482.531C677.982 483.64 676.659 484.152 674.91 484.152C674.441 484.152 674.1 484.535 674.1 484.962C674.1 485.431 674.484 485.815 674.953 485.815Z" fill="url(#paint21_linear)"/>
<path d="M648.247 447.73C648.247 448.754 647.863 449.649 647.265 450.374C647.137 450.545 646.967 450.715 646.796 450.843C646.753 450.886 646.711 450.929 646.668 450.971C646.625 451.014 646.54 451.057 646.497 451.099C645.943 451.483 645.303 451.739 644.62 451.824C644.492 451.824 644.364 451.867 644.236 451.867C644.194 451.867 644.151 451.867 644.108 451.867C643.98 451.867 643.852 451.867 643.724 451.867C643.596 451.867 643.426 451.824 643.298 451.824C642.658 451.696 642.103 451.44 641.591 451.057C641.463 450.929 641.293 450.801 641.165 450.673C641.122 450.63 641.122 450.63 641.079 450.587C640.994 450.502 640.909 450.374 640.823 450.289C640.269 449.607 639.97 448.711 639.97 447.773C639.97 445.512 641.805 443.636 644.108 443.636C646.412 443.593 648.247 445.427 648.247 447.73Z" fill="#EEF0F7"/>
<path d="M646.796 449.99L646.497 451.099C645.943 451.483 645.303 451.739 644.62 451.824C644.492 451.824 644.364 451.867 644.236 451.867C644.194 451.867 644.151 451.867 644.108 451.867C643.98 451.867 643.852 451.867 643.724 451.867C643.596 451.867 643.426 451.824 643.298 451.824C642.658 451.696 642.103 451.44 641.591 451.057C641.549 450.715 641.463 450.289 641.421 449.905C641.719 449.777 642.701 449.479 643.298 449.265C643.298 449.265 643.298 449.265 643.34 449.265H643.383C643.426 449.265 643.468 449.223 643.468 449.223C643.511 449.223 643.554 449.18 643.554 449.18C643.682 449.137 643.767 449.095 643.81 449.095L644.62 449.137H644.748H644.791C644.834 449.137 645.004 449.18 645.175 449.265C645.729 449.393 646.497 449.649 646.796 449.99Z" fill="#D9C7C1"/>
<path d="M644.322 445.683C644.322 445.683 645.303 445.854 645.132 447.389C644.962 448.924 644.108 448.796 644.023 448.796C643.98 448.796 643.17 448.796 643.127 446.92C643.127 446.92 643.127 445.512 644.322 445.683Z" fill="#EEA987"/>
<path d="M644.748 448.327C644.748 448.327 644.706 448.967 644.791 449.095C644.834 449.223 644.023 449.649 643.469 449.18C643.469 449.18 643.554 448.498 643.554 448.242C643.511 447.986 644.748 448.327 644.748 448.327Z" fill="#EEA987"/>
<path d="M645.175 446.962C645.175 446.962 645.303 446.834 645.303 446.962C645.346 447.09 645.133 447.602 645.133 447.602C645.133 447.602 645.133 447.645 645.09 447.602L645.175 446.962Z" fill="#EEA987"/>
<path d="M643.17 446.92C643.17 446.92 643.085 446.792 643.042 446.92C642.999 447.048 643.17 447.559 643.17 447.602L643.213 447.645C643.213 447.559 643.17 446.92 643.17 446.92Z" fill="#EEA987"/>
<path d="M645.218 446.834C645.175 447.048 645.132 447.218 645.132 447.218L645.004 447.389C645.004 447.389 645.004 446.962 645.004 446.92C645.004 446.877 645.004 446.834 644.962 446.792C644.962 446.707 644.919 446.621 644.919 446.579C644.919 446.536 644.066 446.28 643.341 446.621C643.341 446.621 643.341 446.664 643.341 446.749C643.341 446.834 643.341 446.92 643.298 446.92C643.213 446.962 643.255 447.389 643.255 447.389L643.127 447.261C643.127 447.261 643.085 447.005 643.042 446.749C643.042 446.664 643.042 446.621 642.999 446.536C642.999 446.28 642.999 445.768 643.383 445.47C643.639 445.384 644.023 445.256 644.663 445.47C644.663 445.47 644.791 445.47 644.834 445.512C645.303 446.024 645.218 446.834 645.218 446.834Z" fill="#E8734D"/>
<path d="M643.597 448.583C643.597 448.583 643.767 448.796 644.109 448.796C644.493 448.796 644.621 448.583 644.621 448.583C644.621 448.583 644.45 448.924 644.109 448.924C643.767 448.924 643.597 448.583 643.597 448.583Z" fill="#C78D71"/>
<path d="M643.383 449.18C643.383 449.18 643.639 449.649 644.151 449.692C644.45 449.735 644.748 449.308 644.876 449.137C644.876 449.137 644.151 448.839 643.383 449.18Z" fill="#EEA987"/>
<path d="M644.748 448.967C644.748 448.967 644.535 449.223 644.108 449.521L644.364 449.948L644.834 449.137L644.748 448.967Z" fill="#EDDAD3"/>
<path d="M643.511 449.052C643.511 449.052 643.767 449.393 644.151 449.521L643.853 449.948L643.341 449.223L643.511 449.052Z" fill="#EDDAD3"/>
<path d="M644.151 449.521L644.365 449.862C644.365 449.862 644.109 449.99 643.895 449.862L644.151 449.521Z" fill="#5073AB"/>
<path d="M647.052 449.948L646.796 450.843C646.753 450.886 646.711 450.929 646.668 450.971C646.625 451.014 646.54 451.057 646.497 451.099C645.943 451.483 645.303 451.739 644.62 451.824C644.663 450.417 644.834 449.137 644.834 449.137C644.962 449.18 645.09 449.223 645.218 449.223C645.687 449.351 646.668 449.692 647.052 449.948Z" fill="#323657"/>
<path d="M643.298 451.782C642.658 451.654 642.104 451.398 641.592 451.014C641.464 450.886 641.293 450.758 641.165 450.63C641.122 450.587 641.122 450.587 641.08 450.545C640.994 450.246 640.952 450.033 640.952 450.033C640.952 450.033 641.464 449.692 643.255 449.223C643.298 449.265 643.298 450.417 643.298 451.782Z" fill="#323657"/>
<path d="M644.279 449.905C644.279 450.289 644.279 451.014 644.279 451.824C644.237 451.824 644.194 451.824 644.151 451.824C644.023 451.824 643.895 451.824 643.767 451.824C643.853 450.801 643.981 450.161 644.023 449.905C644.023 449.82 644.066 449.777 644.066 449.777L644.322 449.82C644.279 449.863 644.279 449.863 644.279 449.905Z" fill="#5073AB"/>
<path d="M647.265 450.374C647.137 450.545 646.967 450.715 646.796 450.843C646.754 450.886 646.711 450.929 646.668 450.971L647.052 449.948C647.18 449.99 647.223 450.289 647.265 450.374Z" fill="#323657"/>
<path d="M641.207 450.63C641.165 450.588 641.165 450.588 641.122 450.545C641.037 450.46 640.952 450.332 640.866 450.246C640.909 450.118 640.952 450.076 640.994 450.033L641.207 450.63Z" fill="#323657"/>
<path d="M626.404 441.802C626.105 441.802 625.892 441.589 625.892 441.29V434.296C625.892 433.997 626.105 433.784 626.404 433.784C626.702 433.784 626.915 433.997 626.915 434.296V441.29C626.915 441.589 626.66 441.802 626.404 441.802Z" fill="#949494"/>
<path d="M629.902 438.305H622.905C622.607 438.305 622.393 438.092 622.393 437.793C622.393 437.494 622.607 437.281 622.905 437.281H629.902C630.2 437.281 630.414 437.494 630.414 437.793C630.414 438.092 630.158 438.305 629.902 438.305Z" fill="#949494"/>
<defs>
<linearGradient id="paint0_linear" x1="517.109" y1="187.287" x2="280.053" y2="593.923" gradientUnits="userSpaceOnUse">
<stop stop-color="#0129A0"/>
<stop offset="0.13" stop-color="#0053E2" stop-opacity="0.9"/>
<stop offset="0.54" stop-color="#009DF1"/>
<stop offset="0.84" stop-color="#00CBFA"/>
<stop offset="1" stop-color="#00DCFE"/>
</linearGradient>
<linearGradient id="paint1_linear" x1="653.835" y1="351.515" x2="653.835" y2="385.89" gradientUnits="userSpaceOnUse">
<stop offset="0.317708" stop-color="#FFB21E"/>
<stop offset="1" stop-color="#FFE600"/>
</linearGradient>
<linearGradient id="paint2_linear" x1="665.908" y1="385.634" x2="665.908" y2="401.499" gradientUnits="userSpaceOnUse">
<stop offset="0.317708" stop-color="#FFB21E"/>
<stop offset="1" stop-color="#FFE600"/>
</linearGradient>
<linearGradient id="paint3_linear" x1="588.573" y1="492.327" x2="588.573" y2="445.2" gradientUnits="userSpaceOnUse">
<stop stop-color="#245EF1"/>
<stop offset="1" stop-color="#514A9D"/>
</linearGradient>
<linearGradient id="paint4_linear" x1="588.57" y1="363.329" x2="588.57" y2="374.162" gradientUnits="userSpaceOnUse">
<stop stop-color="#0129A0"/>
<stop offset="0.286458" stop-color="#0053E2"/>
<stop offset="0.604167" stop-color="#009DF1"/>
<stop offset="0.84" stop-color="#00CBFA"/>
<stop offset="1" stop-color="#00DCFE"/>
</linearGradient>
<linearGradient id="paint5_linear" x1="588.563" y1="455.577" x2="588.563" y2="464.192" gradientUnits="userSpaceOnUse">
<stop stop-color="#245EF1"/>
<stop offset="1" stop-color="#514A9D"/>
</linearGradient>
<linearGradient id="paint6_linear" x1="588.584" y1="490.549" x2="588.584" y2="494.089" gradientUnits="userSpaceOnUse">
<stop stop-color="#245EF1"/>
<stop offset="1" stop-color="#514A9D"/>
</linearGradient>
<linearGradient id="paint7_linear" x1="488.549" y1="453.701" x2="488.549" y2="464.688" gradientUnits="userSpaceOnUse">
<stop offset="0.317708" stop-color="#FFB21E"/>
<stop offset="1" stop-color="#FFE600"/>
</linearGradient>
<linearGradient id="paint8_linear" x1="491.769" y1="458.52" x2="491.769" y2="461.633" gradientUnits="userSpaceOnUse">
<stop offset="0.317708" stop-color="#FFB21E"/>
<stop offset="1" stop-color="#FFE600"/>
</linearGradient>
<linearGradient id="paint9_linear" x1="485.534" y1="450.502" x2="485.534" y2="475.291" gradientUnits="userSpaceOnUse">
<stop offset="0.317708" stop-color="#FFB21E"/>
<stop offset="1" stop-color="#FFE600"/>
</linearGradient>
<linearGradient id="paint10_linear" x1="491.707" y1="451.601" x2="491.707" y2="467.2" gradientUnits="userSpaceOnUse">
<stop offset="0.317708" stop-color="#FFB21E"/>
<stop offset="1" stop-color="#FFE600"/>
</linearGradient>
<linearGradient id="paint11_linear" x1="483.401" y1="480.527" x2="483.401" y2="483.086" gradientUnits="userSpaceOnUse">
<stop stop-color="#245EF1"/>
<stop offset="1" stop-color="#514A9D"/>
</linearGradient>
<linearGradient id="paint12_linear" x1="487.39" y1="472.424" x2="487.39" y2="480.783" gradientUnits="userSpaceOnUse">
<stop stop-color="#245EF1"/>
<stop offset="1" stop-color="#514A9D"/>
</linearGradient>
<linearGradient id="paint13_linear" x1="476.185" y1="448.759" x2="476.185" y2="483.086" gradientUnits="userSpaceOnUse">
<stop stop-color="#245EF1"/>
<stop offset="1" stop-color="#514A9D"/>
</linearGradient>
<linearGradient id="paint14_linear" x1="488.691" y1="461.932" x2="488.691" y2="466.538" gradientUnits="userSpaceOnUse">
<stop offset="0.317708" stop-color="#FFB21E"/>
<stop offset="1" stop-color="#FFE600"/>
</linearGradient>
<linearGradient id="paint15_linear" x1="574.143" y1="432.675" x2="574.143" y2="433.962" gradientUnits="userSpaceOnUse">
<stop offset="0.317708" stop-color="#FFB21E"/>
<stop offset="1" stop-color="#FFE600"/>
</linearGradient>
<linearGradient id="paint16_linear" x1="573.247" y1="456.558" x2="573.247" y2="458.35" gradientUnits="userSpaceOnUse">
<stop offset="0.317708" stop-color="#FFB21E"/>
<stop offset="1" stop-color="#FFE600"/>
</linearGradient>
<linearGradient id="paint17_linear" x1="573.685" y1="433.485" x2="573.685" y2="455.407" gradientUnits="userSpaceOnUse">
<stop offset="0.317708" stop-color="#FFB21E"/>
<stop offset="1" stop-color="#FFE600"/>
</linearGradient>
<linearGradient id="paint18_linear" x1="671.391" y1="483.341" x2="671.391" y2="486.625" gradientUnits="userSpaceOnUse">
<stop stop-color="#245EF1"/>
<stop offset="1" stop-color="#514A9D"/>
</linearGradient>
<linearGradient id="paint19_linear" x1="666.024" y1="449.18" x2="666.024" y2="482.155" gradientUnits="userSpaceOnUse">
<stop offset="0.317708" stop-color="#FFB21E"/>
<stop offset="1" stop-color="#FFE600"/>
</linearGradient>
<linearGradient id="paint20_linear" x1="679.71" y1="460.567" x2="679.71" y2="481.081" gradientUnits="userSpaceOnUse">
<stop stop-color="#245EF1"/>
<stop offset="1" stop-color="#514A9D"/>
</linearGradient>
<linearGradient id="paint21_linear" x1="678.374" y1="473.656" x2="678.374" y2="485.815" gradientUnits="userSpaceOnUse">
<stop stop-color="#245EF1"/>
<stop offset="1" stop-color="#514A9D"/>
</linearGradient>
</defs>
</svg>
