<svg width="1475" height="1475" viewBox="0 0 1475 1475" fill="none" xmlns="http://www.w3.org/2000/svg">
<g clip-path="url(#clip0)">
<path d="M572.436 758.731C588.548 743.113 657.699 736.983 662.788 653.951C667.741 571.029 608.361 411.427 617.919 383.348C627.231 355.245 705.506 458.421 796.864 490.302C888.221 522.183 992.771 482.904 1020.77 510.331C1048.8 537.512 1000.27 631.399 1005.43 722.3C1010.35 813.177 1069.19 901.094 1050.56 947.617C1032.06 994.028 936.439 999.206 851.29 1033.26C766.142 1067.31 691.466 1130.23 656.404 1100.22C621.207 1070.33 625.758 947.389 609.571 873.367C593.249 799.456 556.188 774.46 572.436 758.731Z" fill="#01D2FC"/>
</g>
<path d="M631.969 755.145C631.872 732.706 675.366 678.597 619.022 617.396C562.664 556.369 406.439 488.598 392.816 462.251C379.005 436.064 507.635 451.114 593.924 407.331C680.212 363.548 724.332 260.948 763.508 259.762C802.525 258.389 836.599 358.43 905.718 417.694C974.65 477.118 1078.82 495.605 1099.45 541.275C1120.1 586.771 1057.58 659.305 1023.13 744.294C988.682 829.282 982.311 926.726 936.38 931.215C890.436 935.879 804.946 847.416 740.358 807.799C675.755 768.355 632.052 777.759 631.969 755.145Z" fill="url(#paint0_linear)"/>
<path d="M870.471 848.669C870.471 848.669 867.524 857.088 866.683 859.403C865.841 861.508 859.526 859.614 859.105 858.141C858.685 856.667 861.631 846.564 861.631 846.564" fill="#FCB6AC"/>
<path d="M857.211 858.351C856.369 860.666 855.107 863.823 855.317 864.876C855.528 865.928 863.526 869.506 865.42 870.559C866.683 871.401 869.629 872.453 871.313 872.663C876.575 873.716 880.784 872.663 881.205 871.822C882.889 868.454 872.365 866.139 867.946 856.246C867.946 856.246 867.104 856.246 866.262 856.878C864.999 858.141 863.105 858.562 861.842 857.72C861 857.299 859.947 856.246 859.527 855.194C859.316 855.615 858.053 856.036 857.211 858.351Z" fill="#47290E"/>
<path d="M940.981 852.247C940.981 852.247 940.77 861.298 940.56 863.613C940.35 865.928 933.825 865.928 932.983 864.665C932.141 863.402 931.931 852.879 931.931 852.879" fill="#FCB6AC"/>
<path d="M931.299 865.297C931.299 867.612 930.878 871.19 931.509 872.242C932.141 873.295 940.77 874.137 942.875 874.558C944.348 874.979 947.506 875.189 948.979 874.979C954.241 874.347 958.029 872.242 958.029 871.19C958.661 867.401 947.926 868.454 940.56 860.456C940.56 860.456 939.718 860.666 939.297 861.719C938.455 863.402 936.982 864.244 935.298 864.034C934.456 863.823 932.983 863.192 932.351 862.35C932.562 862.14 931.299 862.981 931.299 865.297Z" fill="#47290E"/>
<path d="M949.611 767.426C951.084 748.062 944.349 687.446 943.717 682.184C943.086 676.922 939.297 676.291 936.561 675.449C922.67 671.239 906.042 692.918 910.462 712.492C910.462 712.703 910.673 713.124 910.673 713.545C913.199 724.91 928.142 761.112 927.09 771.636C918.881 793.525 928.142 838.987 930.878 858.141C931.299 858.141 931.51 858.141 931.931 858.141C938.876 857.93 942.875 856.878 942.875 856.878C942.875 856.878 948.137 786.579 949.611 767.426Z" fill="url(#paint1_linear)"/>
<path d="M931.93 771.215C932.351 764.058 925.194 707.23 923.511 708.072C922.879 708.283 922.458 708.914 922.248 709.546C920.774 712.071 919.301 714.807 918.038 717.333C916.775 720.069 915.723 723.016 914.671 725.963C919.933 741.327 927.931 763.638 927.299 771.425C922.458 784.474 923.721 805.732 926.247 824.886C925.194 799.629 931.509 776.897 931.93 771.215Z" fill="url(#paint2_linear)"/>
<path d="M941.612 661.557C941.612 661.557 936.35 662.82 925.615 662.61C912.145 662.189 895.097 655.454 895.097 655.454C878.048 673.975 887.309 695.654 886.888 702.81C886.257 709.966 884.994 743.853 883.31 762.796C865.841 779.844 865.209 825.096 860.158 848.88C860.158 849.09 859.947 849.511 859.947 849.722C867.104 852.458 871.524 852.879 871.524 852.879L872.155 850.984C877.417 835.409 901.2 790.368 907.304 772.898C912.777 756.902 926.668 708.704 926.878 708.704L944.558 711.65C944.769 681.132 941.612 661.557 941.612 661.557Z" fill="url(#paint3_linear)"/>
<path d="M985.601 562.634C985.601 562.634 983.286 572.737 979.919 583.471C976.761 593.784 972.973 604.729 969.395 608.307C966.448 611.254 963.712 611.675 961.397 610.833C961.397 610.833 961.397 610.833 961.186 610.833C959.082 609.991 957.398 607.886 955.925 605.781C954.03 602.835 953.188 599.888 953.188 599.888L959.713 588.733L962.449 584.102L964.975 579.683L976.761 559.056L985.601 562.634Z" fill="url(#paint4_linear)"/>
<path d="M971.71 599.889C971.499 600.941 969.395 606.624 961.397 610.623C961.397 610.623 961.397 610.623 961.186 610.623C959.502 610.202 947.926 606.203 939.928 600.73C939.086 600.099 938.244 599.468 937.402 598.836L920.565 562.003C920.565 562.003 932.562 563.897 959.502 588.523C963.501 591.68 967.5 595.469 971.71 599.889Z" fill="url(#paint5_linear)"/>
<path d="M979.919 583.471C976.762 593.785 972.973 604.729 969.395 608.307C966.448 611.254 963.712 611.675 961.397 610.833C961.397 610.833 961.397 610.833 961.187 610.833C959.503 610.412 947.927 606.413 939.929 600.941C939.718 600.309 939.718 599.888 939.718 599.888L940.139 596.942C940.139 596.942 948.769 602.835 956.135 605.782C959.292 607.045 962.449 607.886 964.344 607.676C967.29 607.255 969.816 603.887 971.71 600.309C974.026 595.889 975.499 591.049 975.499 591.049L962.449 584.103L964.975 579.683L978.025 581.156C977.814 580.735 978.866 581.788 979.919 583.471Z" fill="url(#paint6_linear)"/>
<path d="M1047.06 587.891L1031.91 617.779L905.2 553.584L893.413 547.691L788.808 494.651L803.962 464.553L895.518 511.068L911.725 519.277L1047.06 587.891Z" fill="#E8A77C"/>
<path d="M911.724 519.277L906.462 551.9L904.989 553.795L893.203 547.901C891.519 543.692 890.045 535.694 890.045 535.694C890.045 535.694 888.572 535.273 888.362 534.22C888.151 532.537 889.414 531.905 889.414 531.905C888.783 519.698 895.518 511.489 895.518 511.489L911.724 519.277Z" fill="#D89671"/>
<path d="M905.621 565.16L914.04 576.946L916.987 579.683L918.881 577.788L924.985 571.685L924.774 564.318C924.774 564.318 923.511 562.845 922.669 560.319C922.669 560.109 922.459 559.688 922.459 559.477C922.248 558.635 922.038 558.004 922.038 557.793C912.988 560.109 905.621 554.847 905.621 554.847C905.621 554.847 906.252 557.793 906.252 560.319C906.252 562.213 905.621 565.16 905.621 565.16Z" fill="#FFB9B0"/>
<path d="M934.246 521.802C935.719 524.959 935.929 528.748 935.929 532.326C935.929 535.904 934.667 539.482 931.72 541.587C930.247 542.639 927.931 543.271 926.458 542.218C926.037 542.008 925.616 541.587 925.406 541.166C922.249 536.957 920.775 531.484 922.038 526.433" fill="#153351"/>
<path d="M919.512 560.319C920.354 560.319 922.038 560.109 925.616 559.688C929.194 559.057 931.509 555.689 931.93 551.69C932.351 548.743 932.983 532.958 932.983 532.958C935.298 514.015 908.568 516.751 904.358 518.856C900.149 521.171 899.096 527.064 898.465 532.958C898.254 535.063 898.886 538.43 899.938 541.798C901.412 546.849 903.516 552.111 904.148 554.005C903.937 554.005 910.252 559.478 919.512 560.319Z" fill="#FFB9B0"/>
<path d="M926.668 524.328C932.351 524.539 933.404 526.643 932.983 518.224C932.772 513.383 930.036 511.489 922.669 509.384C919.723 508.543 919.512 506.017 915.934 508.543C913.619 510.016 911.304 511.279 908.568 511.91C898.675 513.804 894.887 521.592 894.045 530.432C894.045 530.432 893.203 550.637 906.042 555.899C906.042 555.899 906.884 551.269 907.305 546.428C907.305 546.428 902.253 542.85 902.464 539.272C902.674 537.167 904.99 536.115 906.042 536.536C907.726 536.957 908.147 539.482 908.147 539.482C908.147 539.482 909.41 536.115 909.831 532.747C910.041 531.484 909.62 530.221 908.989 529.169C909.41 528.748 914.04 523.907 926.668 524.328Z" fill="#153351"/>
<path d="M943.716 682.184L943.085 682.605C939.086 683.447 931.088 684.499 920.775 684.92C912.777 685.13 903.305 685.13 893.202 683.657C890.045 683.236 888.572 683.236 885.204 682.605C886.888 671.871 883.942 615.042 884.152 614.832C884.363 614.621 883.942 604.729 884.152 595.047C884.152 589.154 884.573 583.261 885.415 579.472C885.836 577.578 886.257 576.315 886.888 575.894C891.098 572.527 900.359 566.212 905.62 563.476C905.62 563.476 922.879 572.527 924.563 563.476C933.193 566.844 937.402 577.157 939.507 584.313C940.349 587.47 941.191 590.627 941.822 593.785C941.822 595.889 946.453 660.294 943.716 682.184Z" fill="url(#paint7_linear)"/>
<path d="M904.358 596.521L900.78 609.991C900.78 609.991 903.095 610.202 905.621 608.728C908.146 607.255 910.882 603.677 911.935 600.309L910.461 611.675L900.78 616.726L892.782 611.675L904.358 596.521Z" fill="url(#paint8_linear)"/>
<path d="M943.716 682.184L943.085 682.605L932.561 691.445L921.827 685.762C921.827 686.183 921.827 686.604 921.827 686.604C903.937 686.814 885.204 682.815 885.204 682.815L884.152 638.195L898.464 611.675C905.41 613.569 908.988 608.939 910.882 604.308C912.777 599.678 912.987 594.416 911.724 589.365C908.567 576.736 898.464 570.632 895.939 569.159C896.991 568.107 898.885 566.844 899.727 566.633C903.726 567.054 916.355 578.841 917.828 595.889L920.354 595.679L925.826 595.258L941.611 593.784C941.822 595.889 946.452 660.294 943.716 682.184Z" fill="url(#paint9_linear)"/>
<path d="M884.994 676.08C884.994 676.08 917.197 681.552 944.348 676.291C944.348 676.291 946.032 682.394 944.348 686.604C944.348 686.604 908.989 691.445 884.994 687.235C884.784 687.235 883.1 680.921 884.994 676.08Z" fill="url(#paint10_linear)"/>
<path d="M904.357 703.231C903.305 702.179 903.305 700.495 904.147 699.443L934.455 665.977L938.244 669.555L907.936 703.021C907.094 704.073 905.41 704.283 904.357 703.231Z" fill="#7A573D"/>
<path d="M951.925 668.503L950.662 667.24C950.031 666.609 948.978 666.609 948.136 667.03L946.452 665.346C947.084 664.925 947.084 663.873 946.452 663.241L938.665 656.085C938.665 656.085 932.351 650.402 925.615 656.506C925.405 656.717 925.405 657.348 925.826 657.138C927.931 657.138 932.772 657.348 935.087 661.347L933.614 663.662C933.193 664.294 933.403 664.925 933.824 665.346L938.665 669.766C939.086 670.187 939.928 670.187 940.349 669.766L940.77 669.345L943.506 671.66C942.874 672.502 943.085 673.555 943.716 674.186L944.979 675.449C945.19 675.659 945.4 675.659 945.611 675.449L951.925 668.503C952.135 668.714 952.135 668.924 951.925 668.503Z" fill="#665B52"/>
<path d="M919.723 669.345C919.723 669.345 923.301 672.923 925.616 674.817C927.932 676.712 931.299 678.606 931.51 682.605C931.72 684.078 929.826 687.867 926.458 690.813C921.617 695.233 918.881 693.129 918.039 692.076C918.46 691.445 920.355 689.971 919.302 687.656C918.25 685.341 917.829 685.552 915.935 683.657C913.198 680.921 914.672 677.133 914.04 675.028C913.409 673.344 919.723 669.345 919.723 669.345Z" fill="#FFB9B0"/>
<path d="M886.257 576.526C886.257 576.526 861.632 624.725 873.839 639.668C886.047 654.822 913.619 676.08 913.619 676.08C913.619 676.08 915.724 674.818 917.197 673.765C919.723 671.45 920.775 669.556 920.775 669.556C920.775 669.556 894.676 636.09 890.677 629.145C890.677 629.145 903.937 600.731 905.621 592.312C907.305 583.682 896.36 569.58 886.257 576.526Z" fill="url(#paint11_linear)"/>
<path d="M934.456 568.528C934.456 568.528 939.507 575.053 941.612 593.785L937.192 594.416C937.192 594.416 934.877 571.475 929.194 565.792L934.456 568.528Z" fill="url(#paint12_linear)"/>
<path d="M907.936 531.695C907.936 531.695 916.566 537.799 935.929 532.116C937.403 531.695 942.875 528.327 935.929 526.012L907.936 531.695Z" fill="url(#paint13_linear)"/>
<path d="M935.93 524.328C935.509 519.277 932.772 505.175 916.987 504.964C893.414 504.543 891.309 519.697 892.993 531.274C892.993 531.274 891.94 531.905 892.151 532.957C892.151 532.957 892.361 533.799 893.414 533.799C893.414 533.799 896.15 533.799 899.307 533.378C908.147 532.536 924.985 530.432 935.088 526.433C935.298 526.433 935.719 526.433 935.93 526.012C937.192 524.959 935.93 524.328 935.93 524.328Z" fill="url(#paint14_linear)"/>
<path d="M904.148 506.648C904.148 506.648 922.249 504.122 925.827 529.169C925.827 529.169 928.774 528.748 933.194 527.275C933.194 527.275 931.51 507.911 916.987 504.964C916.987 504.964 909.621 501.597 904.148 506.648Z" fill="url(#paint15_linear)"/>
<path d="M981.181 549.374C979.286 549.585 977.603 549.585 975.708 549.585C975.287 549.585 974.656 549.585 974.656 550.006C974.656 550.216 974.656 550.427 974.866 550.637C975.077 551.058 975.498 551.269 975.919 551.479C977.392 552.321 978.865 552.952 980.339 553.163" fill="#F4B5C7"/>
<path d="M992.756 556.951C991.493 559.898 986.652 562.424 982.864 560.74C979.075 559.056 977.602 553.794 978.865 551.058C980.128 548.111 983.495 548.953 987.284 550.637C991.072 552.321 994.019 554.215 992.756 556.951Z" fill="#FFB9B0"/>
<defs>
<linearGradient id="paint0_linear" x1="714.782" y1="913.741" x2="768.112" y2="259.983" gradientUnits="userSpaceOnUse">
<stop stop-color="#0129A0"/>
<stop offset="0.13" stop-color="#0053E2" stop-opacity="0.9"/>
<stop offset="0.54" stop-color="#009DF1"/>
<stop offset="0.84" stop-color="#00CBFA"/>
<stop offset="1" stop-color="#00DCFE"/>
</linearGradient>
<linearGradient id="paint1_linear" x1="929.778" y1="674.919" x2="929.778" y2="858.141" gradientUnits="userSpaceOnUse">
<stop stop-color="#245EF1"/>
<stop offset="1" stop-color="#514A9D"/>
</linearGradient>
<linearGradient id="paint2_linear" x1="923.309" y1="708.063" x2="923.309" y2="824.886" gradientUnits="userSpaceOnUse">
<stop stop-color="#245EF1"/>
<stop offset="1" stop-color="#514A9D"/>
</linearGradient>
<linearGradient id="paint3_linear" x1="902.258" y1="655.454" x2="902.258" y2="852.879" gradientUnits="userSpaceOnUse">
<stop stop-color="#245EF1"/>
<stop offset="1" stop-color="#514A9D"/>
</linearGradient>
<linearGradient id="paint4_linear" x1="969.395" y1="559.056" x2="969.395" y2="611.216" gradientUnits="userSpaceOnUse">
<stop offset="0.317708" stop-color="#FFB21E"/>
<stop offset="1" stop-color="#FFE600"/>
</linearGradient>
<linearGradient id="paint5_linear" x1="946.137" y1="562.003" x2="946.137" y2="610.623" gradientUnits="userSpaceOnUse">
<stop offset="0.317708" stop-color="#FFB21E"/>
<stop offset="1" stop-color="#FFE600"/>
</linearGradient>
<linearGradient id="paint6_linear" x1="959.819" y1="579.683" x2="959.819" y2="611.216" gradientUnits="userSpaceOnUse">
<stop offset="0.317708" stop-color="#FFB21E"/>
<stop offset="1" stop-color="#FFE600"/>
</linearGradient>
<linearGradient id="paint7_linear" x1="914.336" y1="563.476" x2="914.336" y2="685.02" gradientUnits="userSpaceOnUse">
<stop offset="0.317708" stop-color="#FFB21E"/>
<stop offset="1" stop-color="#FFE600"/>
</linearGradient>
<linearGradient id="paint8_linear" x1="902.358" y1="596.521" x2="902.358" y2="616.726" gradientUnits="userSpaceOnUse">
<stop offset="0.317708" stop-color="#FFB21E"/>
<stop offset="1" stop-color="#FFE600"/>
</linearGradient>
<linearGradient id="paint9_linear" x1="914.365" y1="566.633" x2="914.365" y2="691.445" gradientUnits="userSpaceOnUse">
<stop stop-color="#245EF1"/>
<stop offset="1" stop-color="#514A9D"/>
</linearGradient>
<linearGradient id="paint10_linear" x1="914.6" y1="676.08" x2="914.6" y2="688.955" gradientUnits="userSpaceOnUse">
<stop offset="0.317708" stop-color="#FFB21E"/>
<stop offset="1" stop-color="#FFE600"/>
</linearGradient>
<linearGradient id="paint11_linear" x1="895.609" y1="574.664" x2="895.609" y2="676.08" gradientUnits="userSpaceOnUse">
<stop offset="0.317708" stop-color="#FFB21E"/>
<stop offset="1" stop-color="#FFE600"/>
</linearGradient>
<linearGradient id="paint12_linear" x1="935.403" y1="565.792" x2="935.403" y2="594.416" gradientUnits="userSpaceOnUse">
<stop stop-color="#245EF1"/>
<stop offset="1" stop-color="#514A9D"/>
</linearGradient>
<linearGradient id="paint13_linear" x1="923.653" y1="526.012" x2="923.653" y2="534.537" gradientUnits="userSpaceOnUse">
<stop offset="0.317708" stop-color="#FFB21E"/>
<stop offset="1" stop-color="#FFE600"/>
</linearGradient>
<linearGradient id="paint14_linear" x1="914.307" y1="504.956" x2="914.307" y2="533.799" gradientUnits="userSpaceOnUse">
<stop offset="0.317708" stop-color="#FFB21E"/>
<stop offset="1" stop-color="#FFE600"/>
</linearGradient>
<linearGradient id="paint15_linear" x1="918.671" y1="503.865" x2="918.671" y2="529.169" gradientUnits="userSpaceOnUse">
<stop offset="0.317708" stop-color="#FFB21E"/>
<stop offset="1" stop-color="#FFE600"/>
</linearGradient>
<clipPath id="clip0">
<rect x="662.306" y="1474.5" width="1048" height="1048" transform="rotate(-129.196 662.306 1474.5)" fill="white"/>
</clipPath>
</defs>
</svg>
