<svg width="565" height="453" viewBox="0 0 565 453" fill="none" xmlns="http://www.w3.org/2000/svg">
<g clip-path="url(#clip0)">
<path d="M957.999 0H563.79C561.993 3.2881 563.154 6.47289 560.091 9.5044C541.503 27.92 513.6 33.8395 466.021 43.2405C412.893 53.7379 385.743 56.998 328.83 67.7411C277.139 84.1541 259.768 101.266 244.245 126.53C226.285 155.804 230.18 166.333 211.617 195.943C190.894 229.034 144.575 234.141 89.8912 239.712C44.9786 244.29 0.945264 257.122 -19.401 281.831C-42.5857 310.008 -22.8172 337.709 -3.17423 364.275C17.574 392.35 9.7871 423.365 12.8265 453H957.999V0Z" fill="url(#paint0_linear)"/>
<path d="M12.8271 453H958V164.554C911.756 198.161 862.724 232.09 769.458 206.75C722.963 194.112 700.532 171.634 671.72 151.8C645.471 133.745 605.18 116.555 557.681 126.278C538.816 130.147 523.469 136.905 510.733 144.333C462.832 172.343 452.96 224.495 391.971 245.348C329.325 266.729 309.23 208.271 250.276 214.526C213.351 218.395 207.574 240.782 201.545 256.438C196.521 269.489 184.967 284.242 159.848 287.492C122.672 292.315 96.5483 271.681 72.4593 261.107C58.2169 254.878 42.9195 252.273 28.1998 252.492C6.9907 259.634 -9.61785 269.843 -19.526 281.831C-42.7107 310.008 -22.9422 337.709 -3.29923 364.275C17.5746 392.35 9.78771 423.365 12.8271 453Z" fill="url(#paint1_linear)"/>
</g>
<defs>
<linearGradient id="paint0_linear" x1="464.062" y1="453" x2="464.062" y2="5.40018e-05" gradientUnits="userSpaceOnUse">
<stop stop-color="#0038DC"/>
<stop offset="0.23" stop-color="#0079E9"/>
<stop offset="0.45" stop-color="#00AEF5"/>
<stop offset="0.62" stop-color="#00CFFB"/>
<stop offset="0.71" stop-color="#00DCFE"/>
</linearGradient>
<linearGradient id="paint1_linear" x1="464.063" y1="123.467" x2="464.063" y2="453" gradientUnits="userSpaceOnUse">
<stop stop-color="#0129A0"/>
<stop offset="0.13" stop-color="#0053E2" stop-opacity="0.9"/>
<stop offset="0.54" stop-color="#009DF1"/>
<stop offset="0.84" stop-color="#00CBFA"/>
<stop offset="1" stop-color="#00DCFE"/>
</linearGradient>
<clipPath id="clip0">
<rect width="565" height="453" fill="white"/>
</clipPath>
</defs>
</svg>
