<svg width="662" height="639" viewBox="0 0 662 639" fill="none" xmlns="http://www.w3.org/2000/svg">
<path d="M417.652 -0.000139709L251.01 121.058C252.017 124.042 254.219 126.041 254.553 129.224C256.59 148.552 247.975 161.5 232.914 183.064C216.096 207.143 206.37 217.892 188.084 243.315C175.052 271.329 176.903 289.32 183.915 312.772C192.052 339.939 199.356 346.531 207.419 374.132C216.439 404.971 199.602 422.972 179.48 443.885C162.954 461.064 151.234 484.077 155.91 508.6C161.249 536.561 184.489 550.978 207.067 564.595C230.922 578.988 244.295 604.319 261.503 625.305L661.052 335.051L417.652 -0.000139709Z" fill="url(#paint0_linear)"/>
<path d="M261.503 625.305L661.052 335.051L506.068 121.708C504.577 160.766 502.08 200.918 449.038 210.817C422.593 215.748 401.034 206.011 378.197 200.189C357.4 194.896 331.132 194.554 316.277 216.333C310.381 224.988 307.524 234.699 306.132 244.104C300.933 279.531 324.781 321.135 310.204 355.288C295.211 390.34 255.306 353.274 233.745 376.005C220.215 390.205 229.802 408.538 235.665 421.969C240.554 433.164 243.596 447.624 234.724 457.742C221.601 472.725 199.471 465.487 183.606 465.063C174.239 464.829 166.372 467.6 160.268 472.283C155.139 484.078 153.604 496.73 155.857 508.639C161.196 536.599 184.436 551.017 207.014 564.634C230.923 578.988 244.295 604.319 261.503 625.305Z" fill="url(#paint1_linear)"/>
<defs>
<linearGradient id="paint0_linear" x1="452.252" y1="486.734" x2="208.852" y2="151.684" gradientUnits="userSpaceOnUse">
<stop stop-color="#0038DC"/>
<stop offset="0.23" stop-color="#0079E9"/>
<stop offset="0.45" stop-color="#00AEF5"/>
<stop offset="0.62" stop-color="#00CFFB"/>
<stop offset="0.71" stop-color="#00DCFE"/>
</linearGradient>
<linearGradient id="paint1_linear" x1="275.192" y1="243.003" x2="452.252" y2="486.734" gradientUnits="userSpaceOnUse">
<stop stop-color="#0129A0"/>
<stop offset="0.13" stop-color="#0053E2" stop-opacity="0.9"/>
<stop offset="0.54" stop-color="#009DF1"/>
<stop offset="0.84" stop-color="#00CBFA"/>
<stop offset="1" stop-color="#00DCFE"/>
</linearGradient>
</defs>
</svg>
