<svg width="1406" height="1514" viewBox="0 0 1406 1514" fill="none" xmlns="http://www.w3.org/2000/svg">
<g clip-path="url(#clip0)">
<path d="M900.212 697.723C879.441 706.214 812.985 686.141 777.33 761.301C741.842 836.408 737.489 1006.64 718.159 1029.14C699.047 1051.75 664.843 926.841 591.939 863.221C519.035 799.601 407.378 797.103 391.612 761.219C375.73 725.554 455.739 656.504 484.814 570.223C514.109 484.057 492.251 380.546 526.875 344.314C561.331 308.135 651.998 338.953 743.702 339.075C835.406 339.197 928.148 308.623 949.507 349.532C971.033 390.389 921.01 502.78 908.456 577.504C896.069 652.176 921.15 689.179 900.212 697.723Z" fill="#01D2FC"/>
</g>
<g clip-path="url(#clip1)">
<path d="M844.319 723.576C836.05 744.436 775.53 778.447 805.018 856.232C834.584 933.862 954.315 1054.95 957.142 1084.48C960.204 1113.93 846.439 1052.04 750.052 1060.53C653.664 1069.01 574.498 1147.79 537.699 1134.3C500.979 1121.04 506.628 1015.5 464.562 934.753C422.73 853.927 332.949 797.966 330.815 747.896C328.602 697.983 413.645 653.962 477.274 587.924C540.903 521.886 583.117 433.83 627.414 446.775C671.789 459.563 718.168 573.506 763.349 634.334C808.607 695.005 852.667 702.559 844.319 723.576Z" fill="url(#paint0_linear)"/>
<path d="M539.571 915.817C539.571 915.817 539.112 930.021 539.8 933.229C540.487 935.749 548.277 935.978 549.422 934.604C550.339 933.229 551.714 916.733 551.714 916.733" fill="#FEB37C"/>
<path d="M551.485 937.124C551.485 938.957 552.401 944.226 550.11 944.226H540.945C540.945 944.226 537.28 944.226 534.988 944.226H526.97C521.013 944.226 517.576 943.539 517.576 942.394C516.889 938.04 537.738 930.938 539.8 930.938H540.029C540.258 930.938 540.945 931.396 541.404 932.313C542.778 934.604 545.757 935.749 548.277 934.604C548.735 934.375 549.193 934.146 549.652 933.687C549.423 933.687 551.485 934.375 551.485 937.124Z" fill="#4C4051"/>
<path d="M625.487 919.024C625.487 919.024 628.007 925.668 629.153 927.959C630.298 930.251 637.63 927.501 638.088 925.897C638.546 924.294 632.36 912.838 632.36 912.838" fill="#FEB37C"/>
<path d="M641.296 927.501C643.587 932.083 643.128 934.374 642.441 934.833L636.255 938.498C636.026 938.498 633.506 939.873 631.444 941.248C629.611 942.393 626.632 943.768 624.57 944.226C618.155 945.601 613.344 944.914 612.657 944.226C610.595 940.56 626.403 927.043 628.236 926.356H628.465C628.694 926.356 629.611 926.356 630.298 927.043C631.902 928.418 633.964 928.647 635.797 927.73C636.713 927.043 637.63 926.356 638.088 925.21C637.859 924.981 640.15 925.21 641.296 927.501Z" fill="#4C4051"/>
<path d="M634.653 914.213C634.882 914.671 634.653 915.13 634.423 915.359C628.696 919.483 624.801 919.941 624.801 919.941C623.426 917.879 582.186 852.582 574.167 839.981C573.938 839.752 573.938 839.523 573.709 839.294C573.709 839.294 573.709 839.294 573.709 839.064C573.251 838.148 572.792 837.232 572.334 836.544C572.334 836.315 572.105 836.315 572.105 836.086C571.876 835.628 571.647 835.17 571.647 834.711C571.647 834.482 571.647 834.253 571.418 833.795C571.418 833.795 571.418 833.795 571.418 833.566C570.272 827.838 567.752 818.215 564.544 806.989C562.712 800.574 560.65 793.7 558.817 786.827C557.213 781.328 555.609 776.059 554.234 770.789L542.779 725.883C542.55 725.196 543.008 724.738 543.695 724.738L552.86 724.05C564.544 723.363 578.978 717.406 581.957 716.032C582.415 715.802 582.644 716.032 583.102 716.261C596.62 729.778 594.1 746.733 592.267 754.981C591.58 758.875 591.351 762.77 591.58 766.665C592.496 778.808 594.329 801.49 594.558 817.299C594.558 817.757 595.245 827.151 604.181 838.377C605.785 840.21 607.617 842.272 608.992 844.334C622.281 864.954 627.092 896.571 634.653 914.213Z" fill="url(#paint1_linear)"/>
<path d="M624.571 919.712C623.196 917.65 581.956 852.353 573.937 839.752C573.708 839.523 573.708 839.293 573.479 839.064C573.479 839.064 573.479 839.064 573.479 838.835C573.021 837.919 572.562 837.002 572.104 836.315C572.104 836.086 571.875 836.086 571.875 835.857C571.646 835.399 571.417 834.94 571.417 834.482C571.417 834.253 571.417 834.024 571.188 833.566C571.188 833.566 571.188 833.566 571.188 833.337C570.042 827.838 567.522 818.215 564.314 807.218C564.314 806.989 564.314 806.76 564.314 806.531L582.872 757.042C583.101 756.584 583.331 756.355 583.789 756.355H588.6C589.287 756.355 589.746 757.042 589.517 757.501C587.913 762.541 581.727 781.099 578.977 790.035C575.77 800.574 575.083 816.841 574.624 822.797C573.937 836.086 590.204 858.31 594.786 866.558C600.056 875.722 622.738 916.275 624.571 919.712Z" fill="url(#paint2_linear)"/>
<path d="M582.185 764.832C583.56 764.145 589.059 760.937 592.724 751.085C592.954 750.627 592.724 750.169 592.266 749.94C586.997 746.503 549.422 723.134 540.487 725.883C537.738 726.799 532.468 813.862 532.468 815.695C532.468 816.611 532.468 826.005 532.468 827.15C533.155 842.043 538.196 915.816 538.883 924.064C538.883 924.523 539.341 924.752 539.571 924.981C540.945 925.21 544.611 925.668 549.651 925.668C550.11 925.439 550.339 925.21 550.568 924.752C552.859 904.819 563.169 867.703 557.899 844.334C557.899 844.105 557.899 843.646 557.67 843.417C557.67 842.959 557.67 842.272 557.441 841.584C556.296 831.274 556.067 834.253 559.045 821.193C559.045 821.193 559.045 821.193 559.045 820.964C565.46 804.697 577.374 774.913 581.269 765.061C581.956 765.061 581.956 764.832 582.185 764.832Z" fill="url(#paint3_linear)"/>
<path d="M597.765 663.336C597.765 668.376 597.536 673.187 597.078 677.999C596.619 683.727 595.932 689.454 595.016 694.495C593.183 706.409 591.35 715.344 591.579 717.635C591.808 719.01 592.266 720.155 592.725 721.53C593.641 723.363 592.266 724.508 592.266 724.508C591.35 724.738 590.663 725.196 589.746 725.425C568.668 733.215 537.967 726.57 537.967 726.57C536.592 726.57 535.447 725.654 535.905 723.134C536.363 721.301 538.196 712.366 538.196 710.533C538.196 708.7 538.654 702.972 539.571 694.724C540.029 691.745 540.258 688.767 540.716 685.33C541.174 682.581 541.633 679.373 542.091 676.395C542.549 672.729 543.236 669.293 543.695 665.856C544.153 661.961 544.84 658.066 545.298 654.4C546.215 647.985 547.36 641.799 549.193 635.613C550.568 630.573 552.401 625.761 554.921 620.95C560.649 609.724 574.854 607.891 577.374 607.662C577.603 607.662 577.832 607.662 578.061 607.891C588.601 614.993 594.099 627.136 596.39 640.883C597.536 647.985 597.765 655.775 597.765 663.336Z" fill="url(#paint4_linear)"/>
<path d="M597.765 663.336C591.808 663.107 559.732 660.816 545.069 654.171C545.986 648.673 546.902 643.403 548.277 638.134C554.005 640.425 567.064 643.632 596.849 645.694C597.536 651.422 597.765 657.379 597.765 663.336Z" fill="url(#paint5_linear)"/>
<path d="M597.078 677.999C596.62 683.727 595.932 689.454 595.016 694.495C595.016 694.495 556.983 692.662 540.716 685.33C541.175 682.581 541.633 679.374 542.091 676.395C542.549 672.729 543.237 669.293 543.695 665.856C544.153 666.085 566.148 677.999 597.078 677.999Z" fill="url(#paint6_linear)"/>
<path opacity="0.08" d="M576.687 634.009C575.771 644.548 571.876 678.228 555.838 693.349C555.838 693.349 555.609 693.349 555.609 693.578C554.693 694.037 549.881 696.328 540.488 695.182C540.029 695.182 539.571 694.724 539.571 694.037C540.259 688.996 540.946 683.039 542.091 676.853C542.091 676.624 542.091 676.624 542.321 676.395L575.084 633.551C575.542 632.406 576.916 632.864 576.687 634.009Z" fill="black"/>
<path d="M342.076 831.733C342.076 831.733 347.575 803.552 381.942 781.328C415.392 759.792 453.654 779.266 453.654 779.266L342.076 831.733Z" fill="#FFD694"/>
<path d="M322.373 833.795L460.298 770.102L452.737 811.8C450.904 822.11 444.489 830.816 435.325 835.857L391.564 859.455C380.109 865.641 366.133 864.725 355.365 857.164L322.373 833.795Z" fill="#FFD694"/>
<path d="M460.298 770.102L452.737 811.8C450.904 822.11 444.489 830.816 435.325 835.857L391.564 859.455C380.109 865.641 366.133 864.725 355.365 857.164L355.136 856.935L322.373 833.566L430.972 783.39L460.298 770.102Z" fill="url(#paint7_linear)"/>
<path d="M430.972 783.619L427.077 805.614C425.244 815.924 418.829 824.63 409.664 829.671L365.675 853.269C362.238 855.102 358.572 856.248 354.907 856.935L322.373 833.566L430.972 783.619Z" fill="url(#paint8_linear)"/>
<path d="M344.826 948.809C361.528 948.809 375.068 935.269 375.068 918.566C375.068 901.863 361.528 888.323 344.826 888.323C328.123 888.323 314.583 901.863 314.583 918.566C314.583 935.269 328.123 948.809 344.826 948.809Z" fill="#47290E"/>
<path d="M375.068 918.337C375.068 935.062 361.55 948.58 344.825 948.58C333.828 948.58 323.976 942.623 318.706 933.687C323.747 937.353 329.933 939.644 336.806 939.644C353.531 939.644 367.049 926.127 367.049 909.402C367.049 903.674 365.445 898.404 362.696 893.822C370.257 899.55 375.068 908.485 375.068 918.337Z" fill="#331C08"/>
<path d="M344.825 931.855C352.164 931.855 358.114 925.905 358.114 918.566C358.114 911.227 352.164 905.278 344.825 905.278C337.486 905.278 331.537 911.227 331.537 918.566C331.537 925.905 337.486 931.855 344.825 931.855Z" fill="#726B65"/>
<path d="M349.637 918.566C349.637 921.315 347.346 923.607 344.596 923.607C341.847 923.607 339.556 921.315 339.556 918.566C339.556 915.817 341.847 913.526 344.596 913.526C347.575 913.526 349.637 915.817 349.637 918.566Z" fill="#47290E"/>
<path d="M310.001 935.291L372.548 905.278C375.068 904.132 376.672 901.612 376.672 898.633L376.443 879.846C376.901 873.889 380.109 868.62 385.378 865.87L437.845 837.461C446.78 832.649 453.195 823.943 455.028 813.862L462.131 775.83C463.276 769.643 466.942 764.145 472.212 760.708L510.244 735.735" stroke="url(#paint9_linear)" stroke-width="2" stroke-miterlimit="10" stroke-linecap="round"/>
<path d="M380.796 869.307L464.193 924.981C467.4 927.043 471.524 924.294 470.608 920.399L448.155 828.296" stroke="url(#paint10_linear)" stroke-miterlimit="10" stroke-linecap="round"/>
<path d="M573.022 640.653C573.709 636.529 574.167 633.322 574.167 632.406C573.251 623.928 564.315 625.532 562.712 626.449C560.879 627.594 556.067 631.26 550.798 647.069C547.132 657.837 545.07 666.314 543.695 671.354C543.237 672.958 542.55 674.791 542.092 676.395L552.86 691.975C561.795 686.247 570.043 656.004 573.022 640.653Z" fill="#FFB9B0"/>
<path d="M536.134 688.767C531.323 695.64 515.285 723.821 507.266 733.444L512.078 736.88C512.307 736.422 512.536 735.964 512.994 735.506L515.743 733.673C521.013 727.945 526.97 723.134 535.218 714.427C543.924 705.492 551.943 696.328 555.151 690.6C555.609 689.912 560.191 682.352 560.42 681.435L543.008 672.729C543.466 673.187 539.571 683.726 536.134 688.767Z" fill="#FFB9B0"/>
<path d="M509.786 730.695C509.786 730.695 506.808 734.36 504.975 735.277C503.142 736.193 499.476 736.881 497.643 737.568C495.81 738.255 493.519 751.315 494.665 752.46C495.81 753.606 501.767 752.918 505.433 749.94C508.87 746.961 508.412 744.441 509.557 742.608C512.077 738.484 516.201 733.673 516.201 733.673L514.827 730.924L509.786 730.695Z" fill="#FFB9B0"/>
<path d="M578.062 607.891C577.604 608.578 577.145 609.265 576.458 609.953C572.792 613.618 565.919 614.306 563.17 614.306C562.482 614.306 562.024 613.848 562.253 613.16C562.482 612.015 562.482 609.724 561.566 606.516C561.337 606.058 560.878 605.829 560.191 605.829C555.38 607.662 550.798 608.578 547.819 607.432C547.59 607.432 547.59 607.203 547.361 607.203C545.299 604.912 543.466 602.392 542.091 599.414C541.862 598.955 541.633 598.726 541.175 598.955C539.8 599.184 537.967 599.184 537.509 598.039C537.051 596.664 537.967 591.395 538.425 589.562V589.333C538.425 587.958 538.884 586.125 538.425 584.521C538.196 584.063 537.28 583.605 537.051 583.147C534.989 579.939 534.072 575.357 533.843 573.753C533.843 573.295 533.843 573.066 534.302 572.837C536.364 571.462 544.612 565.505 545.299 565.276C545.986 565.047 565.232 561.61 565.919 561.839C566.606 562.068 576.229 573.524 577.604 585.896C578.062 590.707 577.145 594.144 575.542 596.893C575.083 596.435 574.854 605.141 578.062 607.891Z" fill="#FFB9B0"/>
<path d="M548.048 649.131C551.484 653.255 565.002 657.837 570.501 658.295C573.708 650.047 584.018 623.699 572.563 619.117C559.961 614.077 552.401 633.551 548.048 649.131Z" fill="url(#paint11_linear)"/>
<path d="M576.458 609.953C572.792 613.618 565.919 614.306 563.169 614.306C562.482 614.306 562.024 613.848 562.253 613.16C562.482 612.015 562.482 609.724 561.565 606.058C561.336 605.6 561.565 605.141 561.795 604.912C562.711 604.225 564.315 602.85 565.689 601.246C566.377 600.559 567.293 601.017 567.293 601.934L566.835 610.64C566.835 611.098 567.293 611.556 567.752 611.556C569.584 612.015 573.708 612.015 576.458 609.953Z" fill="#F2A181"/>
<path d="M535.675 577.877C542.549 581.772 554.233 577.877 557.212 579.71C560.19 581.314 561.336 588.645 562.481 588.875C563.856 589.104 563.627 587.042 563.398 584.292C563.169 581.772 562.711 578.565 567.522 579.481C569.584 579.939 570.73 585.896 572.333 590.478C573.479 593.915 574.395 595.748 575.083 596.435C575.541 596.893 576.228 596.893 576.686 596.206C584.247 583.147 582.643 554.279 562.711 554.508C562.481 554.508 562.252 554.508 562.023 554.279C560.878 553.362 556.066 549.926 549.88 550.613C549.88 550.613 549.88 550.613 549.651 550.613C537.279 551.988 529.031 573.982 535.675 577.877Z" fill="#2C1E56"/>
<path d="M581.728 569.858C581.957 571.004 580.353 571.462 580.353 571.462C573.709 573.982 566.606 576.044 559.962 577.419C559.733 577.419 558.817 577.648 557.213 578.106C556.296 578.335 555.151 578.564 554.005 579.023H553.776C545.07 581.314 530.178 584.75 528.116 584.063C525.366 582.918 532.927 578.106 532.927 578.106C530.636 571.233 527.428 554.737 548.278 547.863C549.652 547.405 551.027 546.947 552.401 546.718C573.251 542.136 578.52 560.694 579.666 568.254C579.895 568.484 581.27 568.484 581.728 569.858Z" fill="url(#paint12_linear)"/>
<path d="M581.728 569.858C581.957 571.004 580.353 571.462 580.353 571.462C573.709 573.982 566.607 576.044 559.962 577.419C559.733 577.419 558.817 577.648 557.213 578.106C569.585 574.67 574.396 569.858 574.396 569.858C568.44 544.656 553.547 546.718 552.631 546.718C573.48 542.136 578.75 560.694 579.895 568.254C579.895 568.484 581.27 568.484 581.728 569.858Z" fill="url(#paint13_linear)"/>
</g>
<defs>
<linearGradient id="paint0_linear" x1="826.551" y1="545.546" x2="533.509" y2="1132.38" gradientUnits="userSpaceOnUse">
<stop stop-color="#0129A0"/>
<stop offset="0.13" stop-color="#0053E2" stop-opacity="0.9"/>
<stop offset="0.54" stop-color="#009DF1"/>
<stop offset="0.84" stop-color="#00CBFA"/>
<stop offset="1" stop-color="#00DCFE"/>
</linearGradient>
<linearGradient id="paint1_linear" x1="588.733" y1="715.937" x2="588.733" y2="919.941" gradientUnits="userSpaceOnUse">
<stop stop-color="#245EF1"/>
<stop offset="1" stop-color="#514A9D"/>
</linearGradient>
<linearGradient id="paint2_linear" x1="594.442" y1="756.355" x2="594.442" y2="919.712" gradientUnits="userSpaceOnUse">
<stop stop-color="#245EF1"/>
<stop offset="1" stop-color="#514A9D"/>
</linearGradient>
<linearGradient id="paint3_linear" x1="562.641" y1="725.659" x2="562.641" y2="925.668" gradientUnits="userSpaceOnUse">
<stop stop-color="#245EF1"/>
<stop offset="1" stop-color="#514A9D"/>
</linearGradient>
<linearGradient id="paint4_linear" x1="566.784" y1="607.662" x2="566.784" y2="729.211" gradientUnits="userSpaceOnUse">
<stop stop-color="#245EF1"/>
<stop offset="1" stop-color="#514A9D"/>
</linearGradient>
<linearGradient id="paint5_linear" x1="571.417" y1="638.134" x2="571.417" y2="663.336" gradientUnits="userSpaceOnUse">
<stop offset="0.317708" stop-color="#FFB21E"/>
<stop offset="1" stop-color="#FFE600"/>
</linearGradient>
<linearGradient id="paint6_linear" x1="568.897" y1="665.856" x2="568.897" y2="694.495" gradientUnits="userSpaceOnUse">
<stop offset="0.317708" stop-color="#FFB21E"/>
<stop offset="1" stop-color="#FFE600"/>
</linearGradient>
<linearGradient id="paint7_linear" x1="391.335" y1="770.102" x2="391.335" y2="863.535" gradientUnits="userSpaceOnUse">
<stop offset="0.317708" stop-color="#FFB21E"/>
<stop offset="1" stop-color="#FFE600"/>
</linearGradient>
<linearGradient id="paint8_linear" x1="376.672" y1="783.619" x2="376.672" y2="856.935" gradientUnits="userSpaceOnUse">
<stop offset="0.317708" stop-color="#FFB21E"/>
<stop offset="1" stop-color="#FFE600"/>
</linearGradient>
<linearGradient id="paint9_linear" x1="410.122" y1="735.735" x2="410.122" y2="935.291" gradientUnits="userSpaceOnUse">
<stop offset="0.317708" stop-color="#FFB21E"/>
<stop offset="1" stop-color="#FFE600"/>
</linearGradient>
<linearGradient id="paint10_linear" x1="425.767" y1="828.296" x2="425.767" y2="925.685" gradientUnits="userSpaceOnUse">
<stop offset="0.317708" stop-color="#FFB21E"/>
<stop offset="1" stop-color="#FFE600"/>
</linearGradient>
<linearGradient id="paint11_linear" x1="562.941" y1="618.306" x2="562.941" y2="658.295" gradientUnits="userSpaceOnUse">
<stop stop-color="#245EF1"/>
<stop offset="1" stop-color="#514A9D"/>
</linearGradient>
<linearGradient id="paint12_linear" x1="554.632" y1="546" x2="554.632" y2="584.152" gradientUnits="userSpaceOnUse">
<stop offset="0.317708" stop-color="#FFB21E"/>
<stop offset="1" stop-color="#FFE600"/>
</linearGradient>
<linearGradient id="paint13_linear" x1="567.191" y1="546" x2="567.191" y2="578.106" gradientUnits="userSpaceOnUse">
<stop offset="0.317708" stop-color="#FFB21E"/>
<stop offset="1" stop-color="#FFE600"/>
</linearGradient>
<clipPath id="clip0">
<rect x="1083.46" width="1048" height="1048" transform="rotate(72.6766 1083.46 0)" fill="white"/>
</clipPath>
<clipPath id="clip1">
<rect x="468.203" y="108" width="1048" height="1048" transform="rotate(26.5359 468.203 108)" fill="white"/>
</clipPath>
</defs>
</svg>
