<svg width="1192" height="719" viewBox="0 0 1192 719" fill="none" xmlns="http://www.w3.org/2000/svg">
<g clip-path="url(#clip0)">
<path d="M1045.11 47.1484C943.447 -12.1163 813.931 8.26314 715.277 88.1548C709.75 92.6377 691.05 107.847 687.184 110.73C571.898 192.912 451.503 228.882 382.994 135.865C378.418 129.345 356.486 93.8729 348.206 84.3371C337.494 72.0998 324.663 61.6236 309.985 53.0666C223.818 2.83423 106.368 44.3733 47.5149 145.328C-11.5245 246.601 10.6545 369.112 96.5494 419.186C138.681 443.747 188.097 446.444 234.719 430.818C238.841 429.369 263.778 419.079 266.713 417.794C429.073 351.07 518.285 406.074 600.088 524.391C604.392 530.752 620.163 554.928 623.752 560.016C644.571 589.275 670.731 614.371 702.806 633.07C840.618 713.41 1028.88 647.233 1123.31 485.259C1217.73 323.285 1182.92 127.489 1045.11 47.1484Z" fill="#01DCFE"/>
<path d="M1040.31 87.9339C938.65 28.6691 809.134 49.0486 710.48 128.94C704.953 133.423 686.253 148.633 682.387 151.516C567.101 233.697 446.706 269.667 378.197 176.651C373.621 170.131 351.69 134.658 343.409 125.123C332.697 112.885 319.866 102.409 305.188 93.852C219.022 43.6196 101.571 85.1586 42.718 186.113C-16.3214 287.387 5.85765 409.897 91.7525 459.971C133.884 484.533 183.3 487.23 229.922 471.604C234.044 470.154 258.981 459.865 261.916 458.579C424.277 391.855 513.489 446.859 595.291 565.176C599.595 571.538 615.366 595.713 618.955 600.802C639.774 630.061 665.934 655.157 698.009 673.855C835.821 754.195 1024.09 688.018 1118.51 526.044C1212.94 364.07 1178.12 168.274 1040.31 87.9339Z" fill="url(#paint0_linear)"/>
<path d="M1015.49 186.77C1014.55 183.236 1013.02 179.923 1011.14 176.942L1015.49 170.648L1009.37 164.906L1003.26 159.164L996.559 163.36C993.268 161.593 989.741 160.157 986.097 159.274L984.569 151.875H975.87H967.17L965.642 159.274C961.88 160.157 958.354 161.593 955.18 163.36L948.479 159.164L942.366 164.906L936.253 170.648L940.72 176.942C938.84 180.034 937.311 183.346 936.371 186.77L928.495 188.205V196.377V204.548L936.371 205.984C937.311 209.517 938.84 212.83 940.72 215.811L936.253 222.106L942.366 227.848L948.479 233.59L955.18 229.394C958.471 231.16 961.998 232.596 965.642 233.479L967.17 240.878H975.87H984.569L986.097 233.479C989.859 232.596 993.385 231.16 996.559 229.394L1003.26 233.59L1009.37 227.848L1015.49 222.106L1011.02 215.811C1012.9 212.719 1014.43 209.407 1015.37 205.984L1023.24 204.548V196.377V188.316L1015.49 186.77ZM975.752 225.087C958.942 225.087 945.305 212.278 945.305 196.487C945.305 180.696 958.942 167.887 975.752 167.887C992.563 167.887 1006.2 180.696 1006.2 196.487C1006.32 212.278 992.563 225.087 975.752 225.087Z" fill="url(#paint1_linear)"/>
<path d="M1027.36 256.227C1026.89 254.57 1026.18 253.135 1025.36 251.699L1027.36 248.828L1024.54 246.178L1021.72 243.528L1018.66 245.405C1017.13 244.632 1015.6 243.97 1013.84 243.528L1013.13 240.215H1009.14H1005.14L1004.44 243.638C1002.67 244.08 1001.14 244.742 999.616 245.515L996.559 243.638L993.738 246.288L990.917 248.939L992.915 251.81C992.092 253.245 991.387 254.681 990.917 256.337L987.272 257V260.754V264.508L990.917 265.171C991.387 266.827 992.092 268.263 992.915 269.698L990.917 272.569L993.738 275.22L996.559 277.87L999.616 275.993C1001.14 276.766 1002.67 277.428 1004.44 277.87L1005.14 281.293H1009.14H1013.13L1013.84 277.87C1015.6 277.428 1017.13 276.766 1018.66 275.993L1021.72 277.87L1024.54 275.22L1027.36 272.569L1025.36 269.698C1026.18 268.263 1026.89 266.827 1027.36 265.171L1031 264.508V260.754V257L1027.36 256.227ZM1009.14 273.784C1001.38 273.784 995.149 267.932 995.149 260.644C995.149 253.356 1001.38 247.503 1009.14 247.503C1016.9 247.503 1023.13 253.356 1023.13 260.644C1023.13 267.932 1016.9 273.784 1009.14 273.784Z" fill="url(#paint2_linear)"/>
<path d="M774.645 516.462H817.435V394.443H774.645V516.462Z" fill="url(#paint3_linear)"/>
<path d="M630.138 453.224H961.998C972.343 453.224 980.807 445.274 980.807 435.556V226.081C980.807 216.363 972.343 208.413 961.998 208.413H630.138C619.793 208.413 611.329 216.363 611.329 226.081V435.556C611.329 445.384 619.793 453.224 630.138 453.224Z" fill="white"/>
<path d="M625.819 414.828L966.261 414.828V182.384L625.819 182.384V414.828Z" fill="#ECEAEA"/>
<path d="M625.788 210.511H966.23V182.463H625.788V210.511Z" fill="url(#paint4_linear)"/>
<path d="M784.136 432.464C784.136 438.648 789.426 443.617 796.009 443.617C802.592 443.617 807.882 438.648 807.882 432.464C807.882 426.28 802.592 421.311 796.009 421.311C789.426 421.201 784.136 426.28 784.136 432.464Z" fill="url(#paint5_linear)"/>
<path d="M740.758 238.78H842.444C844.677 238.78 846.558 237.013 846.558 234.915V234.363C846.558 232.265 844.677 230.498 842.444 230.498H740.758C738.524 230.498 736.643 232.265 736.643 234.363V234.915C736.526 237.013 738.407 238.78 740.758 238.78Z" fill="#DFE1E8"/>
<path d="M740.758 253.797H842.444C844.677 253.797 846.558 252.031 846.558 249.933V249.38C846.558 247.282 844.677 245.516 842.444 245.516H740.758C738.524 245.516 736.643 247.282 736.643 249.38V249.933C736.526 252.031 738.407 253.797 740.758 253.797Z" fill="#DFE1E8"/>
<path d="M740.758 268.815H842.444C844.677 268.815 846.558 267.048 846.558 264.95V264.398C846.558 262.3 844.677 260.533 842.444 260.533H740.758C738.524 260.533 736.643 262.3 736.643 264.398V264.95C736.526 267.048 738.407 268.815 740.758 268.815Z" fill="#DFE1E8"/>
<path d="M788.486 398.564H660.82C650.122 398.564 641.541 390.393 641.541 380.454V307.574C641.541 297.526 650.24 289.465 660.82 289.465H788.486C799.183 289.465 807.765 297.636 807.765 307.574V380.454C807.765 390.393 799.066 398.564 788.486 398.564ZM660.82 291.673C651.533 291.673 643.892 298.74 643.892 307.574V380.454C643.892 389.178 651.415 396.356 660.82 396.356H788.486C797.772 396.356 805.414 389.288 805.414 380.454V307.574C805.414 298.851 797.89 291.673 788.486 291.673H660.82Z" fill="#DFE1E8"/>
<path d="M670.93 316.85H778.376C783.078 316.85 786.84 313.316 786.84 308.899V307.353C786.84 302.936 783.078 299.403 778.376 299.403H670.93C666.228 299.403 662.466 302.936 662.466 307.353V308.899C662.466 313.206 666.228 316.85 670.93 316.85Z" fill="#DFE1E8"/>
<path d="M892.287 511.86H699.848V521.025H892.287V511.86Z" fill="url(#paint6_linear)"/>
<path d="M927.907 313.316C927.907 322.923 922.382 331.316 914.153 335.732C912.507 336.616 910.744 337.389 908.863 337.941C908.745 337.941 908.51 338.051 908.393 338.051C905.806 338.824 902.985 339.266 900.164 339.266C895.696 339.266 891.582 338.272 887.82 336.616C878.651 332.309 872.42 323.475 872.42 313.316C872.42 298.961 884.881 287.256 900.164 287.256C915.563 287.256 927.907 298.961 927.907 313.316Z" fill="#EEF0F7"/>
<path d="M893.698 310.556C893.698 310.556 891.817 299.072 901.927 299.292C912.037 299.513 911.919 305.145 911.802 310.887C911.567 316.519 907.687 316.077 912.154 323.917C916.504 331.757 908.393 331.757 908.393 331.757L902.045 323.586L893.698 310.556Z" fill="#3C4145"/>
<path d="M900.752 300.397C900.752 300.397 893.933 301.39 893.581 310.556C893.346 319.721 895.462 321.708 901.457 319.721C907.452 317.844 909.333 308.237 909.451 306.691C909.686 305.255 910.038 299.292 900.752 300.397Z" fill="#EEA886"/>
<path d="M912.86 332.199C912.86 334.96 911.332 336.726 908.98 337.941C908.863 337.941 908.628 338.051 908.51 338.051C905.924 338.824 903.103 339.266 900.281 339.266C895.814 339.266 891.7 338.272 887.938 336.616C887.115 335.07 888.291 332.861 890.759 329.438C892.405 327.119 894.051 324.69 896.872 323.586C901.104 322.923 905.454 322.923 908.628 324.58C911.096 325.794 912.742 328.224 912.86 332.199Z" fill="#E55353"/>
<path d="M892.17 329.328L888.996 333.966C888.996 333.966 889.231 333.193 889.584 331.205C889.701 330.763 889.701 330.432 889.819 329.88C889.819 329.77 889.819 329.549 889.936 329.438C891.229 326.567 895.461 324.359 895.697 324.248L892.17 329.328Z" fill="#E55353"/>
<path d="M914.27 335.733C912.624 336.616 910.861 337.389 908.98 337.941C908.863 337.941 908.628 338.051 908.51 338.051C907.805 336.395 907.217 334.849 907.099 334.518C907.099 334.407 906.982 334.187 906.864 333.966C906.277 332.641 904.983 329.77 904.983 327.561C904.983 326.126 905.454 324.911 907.099 324.58C907.687 324.469 908.275 324.469 908.745 324.469C910.509 324.801 911.449 326.236 912.037 327.561C912.037 327.561 912.037 327.561 912.037 327.672C912.507 328.776 912.624 329.77 912.624 329.77C912.624 329.77 912.625 329.88 912.742 330.101C912.86 330.432 912.977 331.205 913.212 332.089C913.565 332.972 913.918 334.297 914.27 335.733Z" fill="#EEA886"/>
<path d="M905.336 315.635C904.748 316.739 904.161 323.254 904.161 323.254C904.161 323.254 895.814 326.236 896.637 324.58C896.99 323.807 897.107 322.813 897.107 321.929C897.107 321.267 897.107 320.715 896.99 320.383C896.99 320.163 896.99 320.163 896.99 320.163C896.99 320.163 905.924 314.531 905.336 315.635Z" fill="#EEA886"/>
<path d="M897.93 306.912C897.93 306.912 901.457 312.322 904.631 314.42C907.805 316.519 906.159 318.285 906.159 318.285C906.159 318.285 914.505 301.722 906.629 300.617C898.635 299.513 893.816 299.403 893.581 310.556C893.698 310.556 897.225 306.912 897.93 306.912Z" fill="#3C4145"/>
<path d="M901.809 319.611C900.516 321.377 897.107 321.93 897.107 321.93C897.107 321.267 897.107 320.715 896.99 320.384C899.223 320.715 901.809 319.611 901.809 319.611Z" fill="#A77860"/>
<path d="M889.819 329.438C889.819 329.438 889.584 329.77 889.466 331.205L890.759 329.438C890.759 329.438 892.993 326.457 893.698 325.684C894.403 324.911 895.579 324.248 895.579 324.248C895.579 324.248 891.229 326.236 889.819 329.438Z" fill="#BD4444"/>
<path d="M906.629 333.855C906.629 333.855 912.037 331.868 913.565 331.757C913.565 331.757 912.507 323.586 907.217 324.469C901.927 325.353 906.629 333.855 906.629 333.855Z" fill="#E55353"/>
<path d="M896.99 323.475C896.99 323.475 892.993 329.217 894.403 329.659C895.696 330.211 902.985 328.997 906.041 323.586C906.041 323.696 901.339 321.377 896.99 323.475Z" fill="#EEA886"/>
<path d="M605.558 449.104L562.415 449.411L562.446 453.166L605.589 452.859L605.558 449.104Z" fill="#323657"/>
<path d="M614.409 413.006L601.789 451.76L605.612 452.859L618.231 414.104L614.409 413.006Z" fill="#323657"/>
<path d="M683.155 457.641H679.746V555.146H683.155V457.641Z" fill="#706865"/>
<path d="M553.443 457.694H701.446V452.173H553.443V457.694Z" fill="#B59074"/>
<path d="M572.314 555.2H575.723V457.695H572.314V555.2Z" fill="#706865"/>
<path d="M508.703 491.1H504.706V539.135H508.703V491.1Z" fill="#918783"/>
<path d="M557.488 533.503C557.488 533.503 557.488 535.601 558.311 538.141C558.899 539.907 559.957 546.975 561.25 547.968C562.661 548.962 567.128 551.502 566.423 554.263C565.717 556.913 565.247 558.79 560.427 557.244C555.608 555.698 552.434 554.704 551.493 550.839C550.553 546.864 547.966 543.331 547.966 543.331L544.44 551.392L542.559 550.729C542.559 550.729 545.38 542.005 545.145 541.232C544.91 540.46 546.438 533.503 552.198 531.736C558.076 529.748 557.488 533.503 557.488 533.503Z" fill="#1D3B54"/>
<path d="M589.581 536.043C589.581 536.043 590.404 538.03 592.167 540.018C593.343 541.564 597.222 547.637 598.868 548.079C600.514 548.521 605.686 549.404 606.156 552.054C606.627 554.815 606.862 556.692 601.807 556.913C596.752 557.134 593.343 557.465 590.992 554.042C588.523 550.729 584.644 548.3 584.644 548.3V557.023H582.645C582.645 557.023 581.705 547.969 581.235 547.306C580.647 546.643 579.354 539.687 584.056 536.043C588.641 532.399 589.581 536.043 589.581 536.043Z" fill="#1D3B54"/>
<path d="M537.857 417.336C537.857 417.336 539.032 413.582 539.15 413.03C539.267 412.588 540.325 411.594 541.618 410.6C542.912 409.607 545.263 408.723 545.498 408.834C545.733 408.944 546.086 408.834 546.556 409.386C547.026 409.938 547.144 410.711 547.144 410.711C547.144 410.711 548.084 411.152 548.084 412.036C548.084 412.036 548.907 412.478 548.789 413.471C548.789 413.471 549.612 413.913 549.377 414.686C549.377 414.686 548.319 415.68 547.966 416.122C547.731 416.563 545.263 418.441 542.676 419.986C542.794 419.986 539.502 422.305 537.857 417.336Z" fill="#EEA886"/>
<path d="M542.794 414.355C542.794 414.355 543.264 415.901 543.147 416.453C543.029 417.005 547.026 417.005 547.026 417.005C547.026 417.005 544.91 413.803 542.794 414.355Z" fill="#CF8C6C"/>
<path d="M498.24 423.741C499.886 421.311 502.002 420.207 508.703 424.624C515.521 429.041 513.875 428.158 515.521 429.593C517.167 431.029 524.22 434.452 524.22 434.452C524.22 434.452 528.335 430.587 530.333 427.826C532.567 424.734 537.269 416.453 537.269 416.453L543.852 421.09C543.852 421.09 531.156 442.844 528.452 444.39C525.748 446.046 517.754 443.286 513.64 441.629C509.408 439.973 505.058 437.875 503.178 437.433C501.297 436.992 494.126 430.145 498.24 423.741Z" fill="url(#paint7_linear)"/>
<path d="M546.319 398.545L543.145 412.135L544.408 412.396L547.583 398.805L546.319 398.545Z" fill="#EB4747"/>
<path d="M545.145 409.054C545.145 409.054 541.853 411.704 542.206 412.257C542.559 412.809 543.147 412.809 543.147 412.809L542.324 414.465C542.324 414.465 542.441 415.901 544.087 415.349C544.087 415.349 544.087 416.674 545.498 416.011C545.498 416.011 545.85 416.894 546.673 416.674C547.379 416.453 549.495 414.686 549.495 414.686C549.495 414.686 549.73 414.134 548.907 413.471C548.907 413.471 549.142 412.477 548.201 412.036C548.201 412.036 548.201 411.263 547.261 410.711C547.261 410.711 547.261 408.944 545.615 408.833C545.498 408.833 545.38 408.944 545.145 409.054Z" fill="#DB9C7C"/>
<path d="M539.15 413.14C539.15 413.14 541.383 411.263 543.029 410.711C543.382 410.6 543.852 410.49 544.087 410.821C544.322 411.152 544.205 411.815 543.264 412.698C542.324 413.582 541.618 415.017 541.618 415.017C541.618 415.017 540.443 415.68 539.15 413.14Z" fill="#EEA886"/>
<path d="M529.863 436.992C529.863 436.992 531.156 432.464 529.628 428.931C529.628 428.931 530.215 432.575 528.57 435.114C527.276 436.992 529.863 436.992 529.863 436.992Z" fill="url(#paint8_linear)"/>
<path d="M553.962 437.654C553.962 437.654 557.488 412.809 563.719 401.987H554.667C554.667 401.987 544.44 418.992 546.321 436.108L553.962 437.654Z" fill="#EDDAD3"/>
<path d="M556.195 419.103C556.195 419.103 557.253 417.226 557.488 416.674C557.724 416.121 558.782 417.115 558.664 417.888C558.429 418.551 556.195 419.103 556.195 419.103Z" fill="#EEA886"/>
<path d="M564.307 423.189C564.307 423.189 564.071 424.072 563.719 424.403C563.719 424.403 563.131 424.955 562.661 425.397C562.543 425.507 562.426 425.618 562.308 425.728C562.073 426.06 561.603 426.943 560.662 427.606C559.722 428.268 556.313 430.477 556.313 430.477L553.844 428.047L551.846 426.17C551.846 426.17 553.491 420.318 554.314 419.545C554.432 419.434 554.432 419.434 554.549 419.324C555.255 418.772 556.078 418.661 556.43 418.33C556.548 418.219 558.194 417.446 558.664 417.557C559.369 417.778 559.722 418.219 559.839 418.772C559.839 418.772 561.133 419.324 561.603 420.207C561.603 420.207 562.896 420.649 563.131 421.863C563.131 421.863 564.307 422.416 564.307 423.189Z" fill="#EEA886"/>
<path d="M580.529 487.456C580.529 487.456 574.534 500.265 570.184 509.32C569.479 510.866 568.774 512.301 568.186 513.516C567.481 514.951 566.893 516.166 566.54 517.05C563.836 522.902 557.018 535.49 557.018 535.49C557.018 535.49 551.963 535.711 551.611 531.626C551.611 531.626 556.548 522.792 556.548 516.608C556.548 510.424 557.488 492.204 563.719 488.339C571.36 483.591 576.297 482.708 580.529 487.456Z" fill="#EEA886"/>
<path d="M524.573 463.052C524.573 463.052 525.866 464.267 526.924 464.487C527.982 464.819 546.085 466.033 554.432 468.684C562.778 471.223 573.829 472.88 575.945 475.088C578.061 477.297 581.47 489.443 581.352 491.762C581.235 494.081 588.641 532.951 589.581 535.932C590.051 537.588 582.88 536.926 582.88 536.926C582.88 536.926 572.653 513.958 570.419 509.762C566.422 501.921 566.187 492.425 564.777 490.989C563.248 489.554 546.908 486.241 537.504 486.241C528.099 486.241 506.939 487.014 504.706 485.799C502.472 484.585 488.365 475.861 494.243 464.156C500.003 452.451 524.573 463.052 524.573 463.052Z" fill="#EEA886"/>
<path d="M565.365 471.444L550.435 498.498C550.435 498.498 545.968 488.449 538.092 486.793C530.215 485.026 498.828 486.02 498.828 486.02C498.828 486.02 484.486 468.904 496.712 459.96C509.055 451.015 523.397 461.395 523.397 461.395C523.397 461.395 526.336 464.377 527.864 464.487C538.327 464.929 549.494 466.696 565.365 471.444Z" fill="#1D3B54"/>
<path d="M598.75 548.079C598.75 548.079 594.166 549.183 592.402 548.079C590.639 546.975 584.761 537.588 582.763 537.036C582.763 537.036 584.644 533.392 589.463 536.043C589.581 536.043 597.457 546.533 598.75 548.079Z" fill="#EEA886"/>
<path d="M561.25 547.858C561.25 547.858 556.548 547.306 555.372 545.649C554.197 543.993 552.433 533.282 550.788 532.067C550.788 532.067 553.962 529.417 557.371 533.503C557.488 533.503 560.662 545.981 561.25 547.858Z" fill="#EEA886"/>
<path d="M513.758 378.246C517.402 378.135 525.278 379.792 526.571 388.736C526.571 388.736 526.336 391.165 525.631 393.043C525.043 394.92 526.806 400.552 526.336 400.772C525.866 400.993 523.867 401.435 523.867 401.435C523.867 401.435 521.751 407.508 519.518 407.508C517.284 407.508 508.585 405.741 504.588 398.233C500.591 390.503 499.298 378.908 513.758 378.246Z" fill="#EEA886"/>
<path d="M516.461 404.637C516.461 404.637 516.226 405.521 515.874 406.735C515.756 407.398 515.521 408.171 515.403 408.944C514.933 411.152 514.698 413.803 515.403 415.459C515.403 415.459 510.349 417.115 506.352 410.379C506.352 410.379 508.115 403.202 505.881 398.785C503.648 394.589 516.461 404.637 516.461 404.637Z" fill="#EEA886"/>
<path d="M526.571 388.736C526.571 388.736 521.046 393.374 515.286 393.043C509.408 392.711 505.529 399.668 505.529 399.668C505.529 399.668 496.712 389.288 503.765 380.896C510.819 372.393 527.864 378.246 526.571 388.736Z" fill="#1D3B54"/>
<path d="M512.582 392.932C512.582 391.828 511.289 390.282 509.526 391.718C507.645 393.153 510.113 398.122 511.642 397.681C513.052 397.239 512.582 394.037 512.582 392.932Z" fill="#EEA886"/>
<path d="M515.874 406.735C515.756 407.398 515.521 408.171 515.403 408.944C510.701 406.183 508.35 402.76 508.35 402.76C511.054 405.079 515.874 406.735 515.874 406.735Z" fill="#A77860"/>
<path d="M529.51 432.354C528.452 436.992 525.631 437.213 525.866 440.636C525.983 444.059 527.159 444.39 525.278 449.691C524.925 450.684 524.69 451.789 524.455 452.893C524.455 453.003 524.455 453.114 524.338 453.335C524.22 453.997 524.103 454.549 523.985 455.212C523.867 456.316 523.75 457.42 523.632 458.525C523.397 461.175 525.513 463.273 525.513 463.273C525.513 463.273 507.175 473.653 494.479 472.217C494.479 472.217 497.77 459.297 499.533 454.881C501.297 450.464 500.827 430.035 499.416 425.618C497.417 419.103 501.414 409.386 506.704 408.171L514.933 411.815C514.933 411.815 523.28 421.201 525.161 422.526C527.159 423.741 530.686 427.606 529.51 432.354Z" fill="url(#paint9_linear)"/>
<path d="M502.237 413.471C504.588 411.594 507.997 408.502 512.935 414.686C517.872 420.87 521.399 424.845 522.574 426.612C523.632 428.379 532.919 440.967 532.919 440.967C532.919 440.967 537.857 436.66 540.678 434.673C543.852 432.354 552.551 423.962 552.551 423.962L558.311 429.924C558.311 429.924 538.444 450.574 535.388 451.347C532.331 452.12 523.75 444.832 520.341 441.961C516.932 439.2 507.41 428.931 505.764 427.937C503.883 426.943 496.124 418.22 502.237 413.471Z" fill="url(#paint10_linear)"/>
<path d="M570.184 509.32C569.479 510.866 568.774 512.301 568.186 513.516C565.952 506.78 566.188 495.517 566.188 495.517C567.481 503.357 570.067 509.209 570.184 509.32Z" fill="#A77860"/>
<path d="M538.092 485.91H474.376V492.535H538.092V485.91Z" fill="url(#paint11_linear)"/>
<path d="M507.527 464.929C507.527 464.929 505.881 471.003 513.523 472.438C521.046 473.874 530.333 475.64 530.333 486.572H504.118L507.527 464.929Z" fill="url(#paint12_linear)"/>
<path d="M546.321 398.564L547.496 396.687L547.614 398.785L546.321 398.564Z" fill="#EEA886"/>
<path d="M474.376 492.535L452.158 404.637C452.158 404.637 492.362 398.785 497.182 415.68C502.002 432.685 509.878 483.039 519.4 486.241C529.04 489.333 474.376 492.535 474.376 492.535Z" fill="url(#paint13_linear)"/>
<path d="M526.101 446.709C526.101 446.709 525.748 448.365 525.278 449.691L515.521 437.765L526.101 446.709Z" fill="url(#paint14_linear)"/>
<path d="M501.532 392.049C501.532 392.049 505.411 401.656 504.353 404.306C504.353 404.306 510.349 401.877 509.291 395.582C508.233 389.288 501.532 392.049 501.532 392.049Z" fill="#1D3B54"/>
<path d="M515.521 412.036V410.159L506.939 406.183L504 409.496L515.521 412.036Z" fill="#1D3B54"/>
<path d="M545.968 551.612C545.968 553.379 544.44 554.704 542.676 554.704C540.795 554.704 539.385 553.269 539.385 551.612C539.385 549.846 540.913 548.521 542.676 548.521C544.557 548.41 545.968 549.846 545.968 551.612Z" fill="#BFB2AC"/>
<path d="M470.967 548.41L471.908 550.729L507.527 540.349L505.764 535.822L470.967 548.41Z" fill="#918783"/>
<path d="M542.676 548.41L541.853 550.729L506.234 540.349L507.762 535.49L542.676 548.41Z" fill="#918783"/>
<path d="M517.519 550.398V553.048L506.234 540.349L507.762 535.49L517.519 550.398Z" fill="#918783"/>
<path d="M517.872 551.612C517.872 553.379 516.344 554.704 514.58 554.704C512.699 554.704 511.289 553.269 511.289 551.612C511.289 549.846 512.817 548.521 514.58 548.521C516.344 548.41 517.872 549.846 517.872 551.612Z" fill="#BFB2AC"/>
<path d="M470.967 554.704C472.785 554.704 474.259 553.32 474.259 551.612C474.259 549.905 472.785 548.521 470.967 548.521C469.149 548.521 467.676 549.905 467.676 551.612C467.676 553.32 469.149 554.704 470.967 554.704Z" fill="#BFB2AC"/>
<path d="M938.252 237.344C938.252 245.626 935.078 253.245 929.788 259.098C928.612 260.423 927.201 261.748 925.791 262.963C925.321 263.294 924.968 263.625 924.498 263.957C924.027 264.288 923.557 264.619 922.969 264.95C918.267 268.153 912.624 270.251 906.629 270.913C905.571 271.024 904.513 271.134 903.338 271.134C902.985 271.134 902.515 271.134 902.162 271.134C900.986 271.134 899.811 271.134 898.753 271.024C897.46 270.913 896.284 270.692 894.991 270.472C889.584 269.478 884.529 267.269 880.297 264.177C879.004 263.294 877.828 262.3 876.652 261.196C876.417 260.975 876.182 260.754 875.947 260.533C875.124 259.76 874.419 258.877 873.714 257.994C869.011 252.252 866.19 245.074 866.19 237.344C866.19 218.682 882.295 203.444 902.28 203.444C922.029 203.554 938.252 218.682 938.252 237.344Z" fill="#EEF0F7"/>
<path d="M925.673 256.117L922.969 265.061C918.267 268.263 912.624 270.361 906.629 271.024C905.571 271.134 904.513 271.245 903.337 271.245C902.985 271.245 902.515 271.245 902.162 271.245C900.986 271.245 899.811 271.245 898.753 271.134C897.46 271.024 896.284 270.803 894.991 270.582C889.583 269.588 884.529 267.38 880.297 264.288C879.826 261.306 879.239 257.994 878.768 255.012C881.472 254.129 889.819 251.368 895.226 249.712C895.344 249.712 895.344 249.712 895.461 249.601C895.579 249.601 895.696 249.491 895.814 249.491C896.167 249.381 896.402 249.27 896.754 249.16C896.989 249.049 897.342 248.939 897.577 248.939C898.635 248.608 899.458 248.387 899.693 248.276C899.811 248.276 899.811 248.276 899.811 248.276H899.928L907.099 248.828L908.275 248.939H908.627C908.627 248.939 908.628 248.939 908.745 248.939C909.215 249.049 910.391 249.381 912.037 249.822C916.151 250.927 923.087 253.245 925.673 256.117Z" fill="#D9C7C1"/>
<path d="M904.043 220.56C904.043 220.56 912.624 221.885 911.214 234.584C909.803 247.172 902.162 246.068 901.692 246.068C901.222 246.068 894.051 246.178 893.698 230.829C893.58 230.719 893.463 219.345 904.043 220.56Z" fill="#EEA987"/>
<path d="M907.805 242.424C907.805 242.424 907.452 247.614 908.04 248.718C908.51 249.822 901.104 253.466 896.52 249.381C896.52 249.381 897.46 243.749 897.107 241.651C896.872 239.663 907.805 242.424 907.805 242.424Z" fill="#EEA987"/>
<path d="M911.331 230.94C911.331 230.94 912.272 230.056 912.625 230.94C912.977 231.934 911.096 236.13 911.214 236.351C911.214 236.351 911.096 236.682 910.861 236.461C910.626 236.351 911.331 230.94 911.331 230.94Z" fill="#EEA987"/>
<path d="M893.698 230.608C893.698 230.608 892.757 229.615 892.405 230.608C892.052 231.602 893.345 235.798 893.58 236.019C893.58 236.019 893.933 236.461 894.051 236.24C894.403 236.13 893.698 230.608 893.698 230.608Z" fill="#EEA987"/>
<path d="M911.919 229.946C911.566 231.713 911.331 232.927 911.331 232.927L910.038 234.473C910.038 234.473 910.156 231.05 909.921 230.608C909.803 230.388 909.803 230.056 909.686 229.615C909.568 228.952 909.45 228.289 909.333 228.069C909.215 227.737 901.927 225.75 895.579 228.51C895.579 228.51 895.579 229.062 895.579 229.615C895.579 230.277 895.461 231.05 895.226 231.161C894.639 231.381 894.874 235.136 894.874 235.136L893.933 234.032C893.933 234.032 893.698 232.044 893.345 229.835C893.228 229.283 893.228 228.731 893.11 228.179C892.993 225.86 893.228 221.774 896.402 219.345C898.518 218.462 901.927 217.799 907.57 219.345C907.57 219.345 908.863 219.456 909.215 219.787C912.624 223.431 911.919 229.946 911.919 229.946Z" fill="#E8734D"/>
<path d="M897.695 244.411C897.695 244.411 899.106 246.178 902.28 246.178C905.454 246.068 906.864 244.522 906.864 244.522C906.864 244.522 905.336 247.503 902.28 247.503C899.223 247.393 897.695 244.411 897.695 244.411Z" fill="#C78D71"/>
<path d="M895.697 249.491C895.697 249.491 898.048 253.246 902.397 253.577C905.219 253.798 907.57 250.485 908.628 248.939C908.628 248.829 902.397 246.399 895.697 249.491Z" fill="#EEA987"/>
<path d="M907.805 247.724C907.805 247.724 906.041 249.933 902.28 252.141L904.631 255.454L908.628 248.828L907.805 247.724Z" fill="#EDDAD3"/>
<path d="M896.637 248.166C896.637 248.166 898.871 250.816 902.28 252.141L899.693 255.564L895.226 249.491L896.637 248.166Z" fill="#EDDAD3"/>
<path d="M902.28 252.141L904.278 255.012C904.278 255.012 902.162 256.116 900.281 254.902L902.28 252.141Z" fill="#5073AB"/>
<path d="M927.907 255.564C927.907 255.564 927.907 255.675 927.907 255.785C927.672 256.558 926.849 259.319 925.791 263.073C925.321 263.405 924.968 263.736 924.498 264.067C924.027 264.398 923.557 264.73 922.969 265.061C918.267 268.263 912.625 270.361 906.629 271.024C907.217 259.319 908.628 248.939 908.628 248.939C909.803 249.27 910.861 249.491 911.919 249.822C921.089 252.252 925.673 254.46 927.319 255.233C927.789 255.454 927.907 255.564 927.907 255.564Z" fill="#323657"/>
<path d="M894.991 270.582C889.584 269.588 884.529 267.38 880.297 264.288C879.004 263.405 877.828 262.411 876.652 261.307C876.417 261.086 876.182 260.865 875.947 260.644C875.359 258.104 874.889 256.448 874.889 256.337C874.889 256.337 879.356 253.577 895.109 249.602C895.109 249.933 895.109 259.429 894.991 270.582Z" fill="#323657"/>
<path d="M903.455 255.343C903.338 258.435 903.338 264.398 903.338 271.245C902.985 271.245 902.515 271.245 902.162 271.245C900.986 271.245 899.811 271.245 898.753 271.134C899.458 262.742 900.634 257.441 901.104 255.343C901.222 254.681 901.339 254.35 901.339 254.35L903.455 254.681C903.455 254.791 903.455 255.012 903.455 255.343Z" fill="#5073AB"/>
<path d="M929.788 259.208C928.612 260.534 927.201 261.859 925.791 263.073C925.32 263.405 924.968 263.736 924.498 264.067L927.319 255.233C927.436 255.344 927.672 255.564 927.907 255.785C928.377 256.448 929.082 257.662 929.788 259.208Z" fill="#323657"/>
<path d="M876.535 261.196C876.3 260.975 876.065 260.754 875.83 260.533C875.007 259.76 874.301 258.877 873.596 257.994C873.949 257.11 874.419 256.448 874.772 256.227L876.535 261.196Z" fill="#323657"/>
<path d="M684.566 201.787H644.127C641.893 201.787 640.012 200.131 640.012 197.922V194.941C640.012 192.843 641.776 191.076 644.127 191.076H684.566C686.8 191.076 688.681 192.733 688.681 194.941V197.922C688.563 200.021 686.8 201.787 684.566 201.787Z" fill="#F5F7FF"/>
<path d="M660.115 271.244C662.348 272.017 664.817 272.349 667.285 272.349C674.927 272.459 681.745 269.146 685.977 263.846C689.033 260.202 690.797 255.675 690.797 250.705C690.797 250.264 690.797 249.712 690.797 249.27C690.679 247.061 690.209 244.963 689.386 242.976C686.212 234.694 677.748 228.621 667.756 228.51C662.348 228.4 657.411 230.056 653.414 232.927C647.889 236.902 644.245 243.086 644.127 250.153C644.127 259.981 650.828 268.263 660.115 271.244ZM650.122 250.264C650.24 244.963 652.826 240.326 657.058 237.454C660.115 235.246 663.876 234.031 667.873 234.031C675.397 234.142 681.627 238.559 684.096 244.853C684.684 246.288 685.036 247.945 685.154 249.601C685.154 249.932 685.154 250.374 685.154 250.705C685.154 254.46 683.743 257.773 681.51 260.533C678.218 264.509 673.163 266.938 667.403 266.938C665.522 266.938 663.759 266.607 661.995 266.054C654.942 263.846 650.005 257.552 650.122 250.264Z" fill="#01D2FC"/>
<path d="M681.392 260.533L685.977 263.846C681.627 269.036 674.809 272.459 667.285 272.349C664.817 272.349 662.348 271.907 660.115 271.244L661.995 266.054C663.641 266.607 665.522 266.938 667.403 266.938C673.046 266.938 678.101 264.508 681.392 260.533Z" fill="#1A598C"/>
<path d="M685.037 249.601L690.914 249.27C690.914 249.712 690.914 250.264 690.914 250.706C690.797 255.675 689.033 260.202 685.977 263.846L681.392 260.533C683.626 257.773 685.037 254.35 685.037 250.706C685.037 250.374 685.037 249.933 685.037 249.601Z" fill="#2273B5"/>
<path d="M685.036 249.601C684.919 247.945 684.566 246.399 683.978 244.853L689.503 242.976C690.326 244.963 690.797 247.061 690.914 249.27L685.036 249.601Z" fill="#2273B5"/>
<path d="M653.531 233.038C657.528 230.167 662.466 228.621 667.873 228.621C677.866 228.731 686.33 234.694 689.504 243.086L683.978 244.963C681.51 238.78 675.279 234.252 667.756 234.142C663.641 234.142 659.879 235.357 656.941 237.565L653.531 233.038Z" fill="#4DA8F2"/>
<path d="M841.151 314.862H825.986C822.929 314.862 820.578 312.543 820.578 309.783V295.538C820.578 292.667 823.047 290.458 825.986 290.458H841.151C844.207 290.458 846.558 292.777 846.558 295.538V309.783C846.558 312.654 844.09 314.862 841.151 314.862Z" fill="#01D2FC"/>
<path d="M832.687 308.016L826.103 302.605C825.516 302.163 825.516 301.39 825.986 300.838C826.456 300.286 827.279 300.286 827.867 300.728L832.569 304.482L839.152 297.525C839.622 296.973 840.445 296.973 841.033 297.415C841.621 297.857 841.621 298.63 841.151 299.182L832.687 308.016Z" fill="#F3F3F3"/>
<path d="M841.151 346.112H825.986C822.929 346.112 820.578 343.793 820.578 341.033V326.788C820.578 323.917 823.047 321.708 825.986 321.708H841.151C844.207 321.708 846.558 324.027 846.558 326.788V341.033C846.558 343.904 844.09 346.112 841.151 346.112Z" fill="#01D2FC"/>
<path d="M832.687 339.376L826.103 333.966C825.516 333.524 825.516 332.751 825.986 332.199C826.456 331.647 827.279 331.647 827.867 332.088L832.569 335.843L839.152 328.886C839.622 328.334 840.445 328.334 841.033 328.776C841.621 329.217 841.621 329.99 841.151 330.542L832.687 339.376Z" fill="#F3F3F3"/>
<path d="M841.151 377.473H825.986C822.929 377.473 820.578 375.154 820.578 372.393V358.149C820.578 355.278 823.047 353.069 825.986 353.069H841.151C844.207 353.069 846.558 355.388 846.558 358.149V372.393C846.558 375.154 844.09 377.473 841.151 377.473Z" fill="#01D2FC"/>
<path d="M738.289 521.908C738.289 521.908 739.112 526.877 739.582 528.975C740.053 531.073 744.99 537.147 744.872 538.141C744.755 539.134 742.756 540.349 741.698 539.576C740.64 538.693 733.822 532.178 732.294 529.307C730.883 526.436 725.946 522.792 725.476 521.467C725.005 520.252 731.236 516.497 732.764 515.945C734.292 515.393 738.289 521.908 738.289 521.908Z" fill="#1D2033"/>
<path d="M726.064 433.9C726.064 433.9 726.651 437.102 727.122 437.654C727.592 438.206 728.885 441.188 729.003 441.629C729.12 442.071 729.943 445.053 730.061 445.384C730.178 445.715 729.355 446.378 728.65 445.605C728.297 445.163 727.592 443.175 727.357 442.623C727.122 441.961 726.299 440.084 726.064 440.415C725.828 440.746 725.946 443.396 725.829 444.059C725.829 444.721 726.299 446.819 726.416 447.703C726.534 448.586 727.827 452.12 727.357 452.341C726.886 452.562 726.416 452.451 725.829 451.568C725.829 451.568 724.888 452.12 724.3 450.905C724.3 450.905 723.36 451.236 722.89 449.691C722.89 449.691 722.302 449.359 722.067 448.807C721.832 448.255 720.421 443.507 720.421 441.629C720.421 439.642 720.891 438.317 720.774 436.992C720.656 435.667 719.951 432.685 719.951 432.685L726.064 433.9Z" fill="#EEA886"/>
<path d="M734.645 515.172L732.764 515.945L738.289 521.908L740.053 520.031L734.645 515.172Z" fill="#50558A"/>
<path d="M753.689 527.65C753.689 527.65 752.513 530.411 751.455 531.515C750.397 532.619 746.518 534.497 746.518 537.699C746.518 541.233 753.101 540.239 755.687 540.128C758.274 540.018 758.509 538.141 759.567 536.153C760.625 534.165 761.8 534.497 761.918 532.951C762.153 531.405 761.095 527.761 761.095 527.761L753.689 527.65Z" fill="#1D2033"/>
<path d="M753.572 526.657L753.336 528.313C753.336 528.313 757.333 529.638 761.213 528.423L760.978 526.215L753.572 526.657Z" fill="#50558A"/>
<path d="M776.025 484.695C776.025 480.389 772.733 442.844 772.851 441.409C772.968 440.525 771.91 431.471 771.088 425.397V425.287C770.852 423.52 770.735 422.084 770.617 421.091C770.617 420.649 770.5 420.318 770.5 420.097C770.5 419.876 770.5 419.766 770.5 419.766C770.5 419.766 748.987 415.79 737.819 419.545C737.349 419.655 736.879 419.876 736.526 420.097C736.526 420.097 736.526 420.318 736.409 420.649C736.291 421.422 736.056 423.078 735.703 425.287C735.703 425.618 735.586 426.06 735.586 426.501C733.94 437.765 734.998 450.132 737.819 462.721C740.523 475.088 742.051 484.253 742.286 486.131C742.639 488.45 743.697 494.965 744.99 502.032C739.112 508.878 733.94 514.731 734.41 515.283C735.351 516.718 743.697 524.779 744.167 523.344C744.167 523.344 745.695 521.798 748.047 519.148C748.752 523.454 749.34 526.436 749.34 526.436C749.34 526.436 758.509 528.534 761.801 526.656C761.801 526.656 760.508 517.27 759.097 507.001C767.208 497.284 776.025 486.904 776.025 484.695ZM755.805 481.603C755.688 475.861 752.984 443.507 753.219 443.507C754.512 443.507 762.153 474.315 762.388 478.622C762.388 479.505 761.213 481.493 759.332 484.143C758.509 485.358 757.451 486.572 756.393 488.008C756.04 484.806 755.805 482.376 755.805 481.603Z" fill="#292C47"/>
<path d="M779.551 365.989L773.791 385.534C773.556 386.197 773.321 386.969 773.086 387.853C772.145 391.386 770.97 396.687 770.617 402.539C770.382 406.515 771.205 422.747 771.205 422.747C771.205 422.747 762.388 425.839 749.34 425.066C749.34 425.066 735.233 424.735 736.408 416.674C739.465 395.141 736.526 386.307 736.056 384.098C736.056 384.098 734.175 373.608 732.764 364.885C736.761 363.449 753.689 358.149 753.689 358.149L762.506 358.811C762.388 358.701 775.79 361.793 779.551 365.989Z" fill="#4DA8F2"/>
<path d="M758.039 330.432C758.039 330.432 766.62 331.757 765.21 344.456C763.799 357.044 756.158 355.94 755.688 355.94C755.217 355.94 748.047 356.051 747.694 340.702C747.576 340.591 747.459 329.217 758.039 330.432Z" fill="#EEA987"/>
<path d="M761.801 352.296C761.801 352.296 761.448 357.486 762.036 358.59C762.506 359.694 755.1 363.338 750.515 359.253C750.515 359.253 751.456 353.621 751.103 351.523C750.868 349.535 761.801 352.296 761.801 352.296Z" fill="#EEA987"/>
<path d="M765.327 340.812C765.327 340.812 766.268 339.929 766.62 340.812C766.973 341.806 765.092 346.002 765.21 346.223C765.21 346.223 765.092 346.554 764.857 346.333C764.504 346.223 765.327 340.812 765.327 340.812Z" fill="#EEA987"/>
<path d="M747.694 340.481C747.694 340.481 746.753 339.487 746.401 340.481C746.048 341.475 747.341 345.671 747.576 345.892C747.576 345.892 747.929 346.333 748.046 346.112C748.282 346.002 747.694 340.481 747.694 340.481Z" fill="#EEA987"/>
<path d="M765.797 339.818C765.445 341.585 765.209 342.8 765.209 342.8L763.916 344.346C763.916 344.346 764.034 340.922 763.799 340.481C763.681 340.26 763.681 339.929 763.564 339.487C763.446 338.824 763.329 338.162 763.211 337.941C763.093 337.61 755.805 335.622 749.457 338.383C749.457 338.383 749.457 338.935 749.457 339.487C749.457 340.149 749.339 340.922 748.987 341.033C748.399 341.254 748.634 345.008 748.634 345.008L747.694 343.904C747.694 343.904 747.459 341.916 747.106 339.708C746.988 339.156 746.988 338.603 746.871 338.051C746.753 335.732 746.988 331.647 750.162 329.217C752.278 328.334 755.687 327.671 761.33 329.217C761.33 329.217 762.623 329.328 762.976 329.659C766.62 333.303 765.797 339.818 765.797 339.818Z" fill="#E8734D"/>
<path d="M751.691 354.284C751.691 354.284 753.101 356.05 756.275 356.05C759.449 355.94 760.86 354.394 760.86 354.394C760.86 354.394 759.332 357.376 756.275 357.376C753.219 357.265 751.691 354.284 751.691 354.284Z" fill="#C78D71"/>
<path d="M749.575 359.363C749.575 359.363 751.926 363.118 756.275 363.449C759.097 363.67 761.448 360.357 762.506 358.811C762.506 358.701 756.393 356.271 749.575 359.363Z" fill="#EEA987"/>
<path d="M761.801 357.596C761.801 357.596 760.037 359.805 756.275 362.013L758.627 365.326L762.623 358.701L761.801 357.596Z" fill="#EDDAD3"/>
<path d="M750.633 358.038C750.633 358.038 752.866 360.688 756.275 362.013L753.689 365.436L749.222 359.363L750.633 358.038Z" fill="#EDDAD3"/>
<path d="M756.275 362.013L758.274 364.884C758.274 364.884 756.158 365.989 754.277 364.774L756.275 362.013Z" fill="url(#paint15_linear)"/>
<path d="M735.821 426.501C735.821 426.501 746.636 430.256 770.97 426.722L770.617 422.526C770.617 422.526 756.51 426.391 736.291 423.078L735.821 426.501Z" fill="#1D2033"/>
<path d="M762.506 358.701C762.506 358.701 760.037 376.369 760.39 391.607C760.743 406.846 772.968 434.562 772.968 434.562C772.968 434.562 778.376 429.704 780.61 426.943C780.61 426.943 772.263 404.306 772.381 400.22C772.498 396.135 781.785 365.326 781.785 365.326C781.785 365.326 776.73 362.234 762.506 358.701Z" fill="#323657"/>
<path d="M748.987 359.474C748.987 359.474 748.987 376.369 748.634 391.607C748.282 406.846 746.166 435.225 746.166 435.225C746.166 435.225 734.175 433.458 731.824 430.697C731.824 430.697 736.644 404.306 736.526 400.22C736.408 396.135 728.767 366.099 728.767 366.099C728.767 366.099 733.234 363.449 748.987 359.474Z" fill="#323657"/>
<path d="M757.098 423.851H750.515V428.489H757.098V423.851Z" fill="url(#paint16_linear)"/>
<path d="M755.335 364.112C755.335 364.112 752.396 373.608 752.161 392.38C751.926 411.152 752.514 416.563 752.514 416.563L754.865 420.87L757.921 416.342C757.921 416.342 756.981 373.056 757.451 364.332L755.335 364.112Z" fill="url(#paint17_linear)"/>
<path d="M772.263 434.783C772.263 434.783 772.968 434.342 773.203 434.01C773.203 434.01 773.556 433.348 773.791 433.017C773.909 432.906 773.909 432.796 774.026 432.685C774.261 432.354 774.849 431.802 775.202 430.918C775.555 430.035 775.79 426.17 775.79 426.17L773.203 425.508L770.97 424.624C770.97 424.624 766.032 428.158 765.562 428.931C765.562 429.041 765.445 429.041 765.445 429.152C765.21 429.814 765.327 430.366 765.21 430.808C765.21 430.918 764.974 432.244 765.327 432.575C765.797 433.017 766.268 433.127 766.738 433.017C766.738 433.017 767.678 433.789 768.619 433.9C768.619 433.9 769.442 434.673 770.617 434.452C770.617 434.342 771.675 435.004 772.263 434.783Z" fill="#EEA886"/>
<path d="M769.089 424.072C769.089 424.072 772.498 426.943 777.318 428.379C777.318 428.379 793.305 403.975 793.423 402.208C793.658 400.552 785.547 367.424 781.902 365.326L775.319 383.546C775.79 383.436 782.843 397.349 782.843 399.227C782.843 401.766 769.089 424.072 769.089 424.072Z" fill="#323657"/>
<path d="M727.944 437.213C727.944 437.213 724.418 437.875 719.128 437.544C719.128 437.544 721.126 406.183 720.891 404.527C720.656 402.871 725.005 368.308 728.65 366.21L735.115 384.651C734.645 384.54 730.766 403.533 730.766 405.3C730.883 407.729 727.944 437.213 727.944 437.213Z" fill="#323657"/>
<path d="M764.857 427.606L775.202 432.575L771.087 439.532L762.388 430.808L764.857 427.606Z" fill="#292C47"/>
<path d="M759.332 484.032L758.274 503.026L756.393 487.897C757.569 486.572 758.509 485.247 759.332 484.032Z" fill="#1D2033"/>
<path d="M713.838 252.693H707.842V271.134H713.838V252.693Z" fill="#01D2FC"/>
<path d="M927.907 375.264C927.907 389.619 915.563 401.324 900.164 401.324C884.881 401.324 872.42 389.619 872.42 375.264C872.42 360.909 884.881 349.204 900.164 349.204C915.563 349.315 927.907 360.909 927.907 375.264Z" fill="#EEF0F7"/>
<path d="M704.081 257.883H698.085V271.134H704.081V257.883Z" fill="#01D2FC"/>
<path d="M723.595 244.19H717.599V271.134H723.595V244.19Z" fill="#01D2FC"/>
<path d="M966.584 452.017H1005.03V449.919H966.584V452.017Z" fill="#E2D2CA"/>
<path d="M999.969 457.641H996.559V555.146H999.969V457.641Z" fill="#706865"/>
<path d="M946.018 452.383H972.703V449.291H946.018V452.383Z" fill="#CCBDB7"/>
<path d="M954.247 452.014H964.356V423.193H954.247V452.014Z" fill="#4667A8"/>
<path d="M870.921 457.566H1018.92V452.045H870.921V457.566Z" fill="#B59074"/>
<path d="M1047.34 418.551C1047.34 418.551 1048.99 439.863 1044.52 442.402C1041.7 443.948 1030.65 449.359 1031 450.353C1031.36 451.347 1037.23 459.408 1037.23 459.408C1037.23 459.408 1058.51 446.267 1059.22 442.071C1059.92 437.985 1058.16 410.821 1055.22 409.606C1052.99 408.723 1051.93 409.496 1049.11 411.373C1045.23 414.023 1047.34 418.551 1047.34 418.551Z" fill="#FFC05C"/>
<path d="M1021.13 541.785C1021.13 541.785 1021.83 546.091 1021.83 546.754C1021.95 547.416 1029.24 546.422 1029.24 546.422L1029.83 541.232C1029.83 541.232 1021.95 541.232 1021.13 541.785Z" fill="#424773"/>
<path d="M1021.72 546.202C1021.72 546.202 1019.37 548.852 1017.13 549.956C1014.9 551.06 1011.37 551.502 1010.08 552.717C1009.14 553.6 1006.55 557.244 1015.84 557.134C1025.13 557.023 1029.59 557.686 1030.53 556.25C1031.47 554.815 1029.12 545.981 1029.12 545.981C1029.12 545.981 1027.01 546.643 1021.72 546.202Z" fill="#292C47"/>
<path d="M974.459 541.785C974.459 541.785 975.164 546.091 975.164 546.754C975.282 547.416 982.57 546.422 982.57 546.422L983.158 541.232C983.158 541.232 975.399 541.232 974.459 541.785Z" fill="#424773"/>
<path d="M975.164 546.202C975.164 546.202 972.813 548.852 970.58 549.956C968.346 551.06 960.117 552.054 958.824 553.158C957.884 554.042 956.238 557.465 969.287 557.134C978.573 556.913 983.041 557.686 983.981 556.25C984.921 554.815 982.57 545.981 982.57 545.981C982.57 545.981 980.572 546.754 975.164 546.202Z" fill="#292C47"/>
<path d="M1044.64 467.248C1044.64 467.248 1018.19 471.444 1012.19 472.328C1006.2 473.211 973.754 480.83 969.757 483.149C966.583 485.026 971.403 529.086 972.578 545.981H985.392L986.332 495.517C1001.61 495.848 1012.55 492.204 1023.71 493.75C1034.88 495.296 1044.17 497.615 1051.22 488.67C1051.22 488.56 1051.46 469.236 1044.64 467.248Z" fill="#292C47"/>
<path d="M1018.54 545.981L1031 545.208L1032.18 495.406C1038.76 495.517 1041 495.185 1046.4 494.523L1056.4 472.548C1047.58 474.205 1019.37 480.83 1015.6 483.039C1012.43 484.916 1017.37 529.086 1018.54 545.981Z" fill="#292C47"/>
<path d="M1032.41 374.05C1032.41 374.05 1022.66 371.51 1019.01 378.577C1015.37 385.644 1017.01 399.116 1021.83 400.331C1026.77 401.545 1033.71 400.11 1035.82 395.693C1037.82 391.276 1039.47 384.982 1039 381.006C1038.53 377.031 1035 375.043 1032.41 374.05Z" fill="#EEA886"/>
<path d="M1024.42 398.895C1024.42 398.895 1024.54 404.306 1023.95 405.41C1023.36 406.514 1037.47 406.293 1037.47 406.293C1037.47 406.293 1035.24 399.778 1036.53 394.368C1037.7 388.957 1024.42 398.895 1024.42 398.895Z" fill="#EEA886"/>
<path d="M1037.23 392.27C1037.23 392.27 1036.53 393.705 1032.77 393.484C1029.12 393.263 1024.3 389.067 1022.77 388.736C1021.25 388.405 1021.13 387.521 1021.13 387.521L1020.31 388.846L1018.66 389.067C1018.66 389.067 1019.72 384.871 1017.37 383.436C1015.02 382 1018.42 370.185 1030.42 373.056C1030.42 373.056 1039.58 374.602 1039.7 379.35C1039.7 384.209 1039 389.73 1037.23 392.27Z" fill="#3A3F47"/>
<path d="M1023.13 405.3C1023.13 405.3 1023.13 403.091 1024.18 402.87C1025.24 402.65 1035.35 401.325 1036.65 401.877L1037.23 404.748C1037.23 404.748 1034.65 406.183 1023.13 405.3Z" fill="#E2D2CA"/>
<path d="M1020.19 386.638C1020.42 384.871 1022.66 382.773 1023.83 385.534C1025.13 388.294 1023.01 392.38 1021.6 392.159C1020.31 391.938 1019.84 389.067 1020.19 386.638Z" fill="#EEA886"/>
<path d="M1035.24 375.264C1035.24 375.264 1047.11 374.712 1037.35 392.049L1035.24 375.264Z" fill="#3A3F47"/>
<path d="M1061.57 551.833L1060.74 554.152L1023.48 543.33L1025.36 538.693L1061.57 551.833Z" fill="#918783"/>
<path d="M1022.3 541.751H1026.53V503.765H1022.3V541.751Z" fill="#918783"/>
<path d="M1011.95 503.962H1036.87V501.754H1011.95V503.962Z" fill="#5E5854"/>
<path d="M986.802 551.833L987.625 554.152L1024.89 543.33L1023.24 538.361L986.802 551.833Z" fill="#918783"/>
<path d="M1013.02 553.931V556.692L1024.89 543.33L1023.24 538.361L1013.02 553.931Z" fill="#918783"/>
<path d="M983.276 555.146C983.276 556.913 984.804 558.459 986.802 558.459C988.683 558.459 990.329 557.023 990.329 555.146C990.329 553.379 988.801 551.833 986.802 551.833C984.921 551.833 983.276 553.269 983.276 555.146Z" fill="#BFB2AC"/>
<path d="M1012.66 555.146C1012.66 556.913 1014.19 558.459 1016.19 558.459C1018.07 558.459 1019.72 557.023 1019.72 555.146C1019.72 553.379 1018.19 551.833 1016.19 551.833C1014.31 551.833 1012.66 553.269 1012.66 555.146Z" fill="#BFB2AC"/>
<path d="M1058.16 555.146C1058.16 556.913 1059.69 558.459 1061.69 558.459C1063.68 558.459 1065.21 557.023 1065.21 555.146C1065.21 553.379 1063.68 551.833 1061.69 551.833C1059.69 551.833 1058.16 553.269 1058.16 555.146Z" fill="#BFB2AC"/>
<path d="M999.146 501.7H1049.34C1051.81 501.7 1053.81 499.823 1053.81 497.504V497.394C1053.81 495.075 1051.81 493.198 1049.34 493.198H999.146C996.677 493.198 994.679 495.075 994.679 497.394V497.504C994.679 499.823 996.677 501.7 999.146 501.7Z" fill="url(#paint18_linear)"/>
<path d="M889.672 555.071H893.082V457.566H889.672V555.071Z" fill="#706865"/>
<path d="M920.031 437.102H998.558C1001.03 437.102 1003.02 435.225 1003.02 432.906V383.325C1003.02 381.006 1001.03 379.129 998.558 379.129H920.031C917.562 379.129 915.563 381.006 915.563 383.325V432.906C915.563 435.225 917.562 437.102 920.031 437.102Z" fill="#5F8BE3"/>
<path d="M918.98 427.974H999.506V382.258H918.98V427.974Z" fill="#F5F7FF"/>
<path d="M918.98 385.914H999.506V382.27H918.98V385.914Z" fill="#CECFD6"/>
<path d="M924.733 425.176H928.965C930.493 425.176 931.669 424.072 931.669 422.636V391.276C931.669 389.84 930.493 388.736 928.965 388.736H924.733C923.205 388.736 922.029 389.84 922.029 391.276V422.636C922.029 424.072 923.205 425.176 924.733 425.176Z" fill="#CECFD6"/>
<path d="M981.042 392.049H995.737C996.56 392.049 997.265 391.386 997.265 390.613V390.061C997.265 389.288 996.56 388.625 995.737 388.625H981.042C980.219 388.625 979.514 389.288 979.514 390.061V390.613C979.631 391.386 980.219 392.049 981.042 392.049Z" fill="#CECFD6"/>
<path d="M982.688 426.17H994.209C995.854 426.17 997.265 424.845 997.265 423.299V397.239C997.265 395.693 995.854 394.368 994.209 394.368H982.688C981.042 394.368 979.632 395.693 979.632 397.239V423.299C979.632 424.845 980.925 426.17 982.688 426.17Z" fill="#CECFD6"/>
<path d="M956.473 432.243C956.473 433.679 957.766 434.894 959.294 434.894C960.822 434.894 962.115 433.679 962.115 432.243C962.115 430.808 960.822 429.593 959.294 429.593C957.766 429.593 956.473 430.808 956.473 432.243Z" fill="#5C5552"/>
<path d="M941.191 452.12V451.126C941.191 451.126 942.719 444.721 953.652 444.721C964.584 444.721 964.349 452.12 964.349 452.12H941.191Z" fill="#2E436E"/>
<path d="M964.467 445.605C964.467 445.605 962.116 445.384 961.175 444.942C960.352 444.5 955.062 441.188 953.887 441.74C952.711 442.292 944.6 444.611 944.835 445.715C945.07 446.819 945.893 446.709 946.481 446.488C947.068 446.267 952.946 445.163 953.416 445.273C953.416 445.273 947.656 447.261 947.656 448.697C947.656 450.132 948.832 450.463 949.42 451.015C950.007 451.568 950.595 452.893 952.123 453.003C953.652 453.114 960.94 450.684 962.351 450.574C963.879 450.463 966.583 450.684 966.818 450.463C967.053 450.353 964.467 445.605 964.467 445.605Z" fill="#EEA886"/>
<path d="M1007.61 408.392C1015.13 407.177 1023.13 405.3 1023.13 405.3L1037.23 404.748C1037.23 404.748 1050.16 407.398 1055.22 409.606C1055.69 409.827 1055.69 420.428 1056.98 423.188L1052.75 431.581C1052.75 431.581 1050.28 448.144 1049.81 455.543C1049.58 458.966 1050.52 488.229 1050.52 488.229C1050.52 488.229 1049.22 488.781 1039.7 489.774C1030.06 490.768 1006.08 489.443 1005.96 488.339C1005.85 487.235 1010.67 448.697 1010.78 446.709C1011.14 443.617 1009.84 429.483 1009.84 429.483C1008.08 431.802 1003.38 442.071 998.558 446.93C995.737 449.801 981.747 451.568 979.044 451.678C973.283 451.899 962.821 452.893 962.468 452.451C962.233 452.12 961.528 443.727 962.233 443.507C962.821 443.286 982.218 442.292 987.273 439.752C989.153 438.869 994.561 427.716 994.561 427.716C994.561 427.716 1003.5 410.158 1007.61 408.392Z" fill="url(#paint19_linear)"/>
<path d="M1035.35 487.345H1058.98C1063.68 487.345 1067.56 483.701 1067.56 479.284V442.292C1067.56 437.875 1063.68 434.231 1058.98 434.231H1035.35C1030.65 434.231 1026.77 437.875 1026.77 442.292V479.174C1026.77 483.701 1030.65 487.345 1035.35 487.345Z" fill="url(#paint20_linear)"/>
<path d="M1034.06 499.602C1040.06 499.602 1044.87 497.725 1048.52 493.971C1056.63 485.578 1055.22 470.671 1055.1 470.009C1054.98 468.794 1053.81 468.021 1052.63 468.131C1051.34 468.242 1050.52 469.236 1050.64 470.45C1050.64 470.671 1051.93 484.032 1045.11 491.1C1042.41 493.971 1038.76 495.296 1033.94 495.296C1032.65 495.296 1031.71 496.29 1031.71 497.394C1031.71 498.608 1032.77 499.602 1034.06 499.602Z" fill="url(#paint21_linear)"/>
<path d="M960.47 400.993C960.47 403.643 959.412 405.962 957.766 407.84C957.413 408.281 956.943 408.723 956.473 409.054C956.355 409.165 956.238 409.275 956.12 409.386C956.003 409.496 955.768 409.606 955.65 409.717C954.122 410.711 952.359 411.373 950.478 411.594C950.125 411.594 949.772 411.704 949.42 411.704C949.302 411.704 949.185 411.704 949.067 411.704C948.714 411.704 948.362 411.704 948.009 411.704C947.656 411.704 947.186 411.594 946.833 411.594C945.07 411.263 943.542 410.6 942.131 409.606C941.779 409.275 941.308 408.944 940.956 408.613C940.838 408.502 940.838 408.502 940.721 408.392C940.485 408.171 940.25 407.84 940.015 407.619C938.487 405.852 937.664 403.533 937.664 401.104C937.664 395.251 942.719 390.393 949.067 390.393C955.415 390.282 960.47 395.03 960.47 400.993Z" fill="#EEF0F7"/>
<path d="M956.473 406.846L955.65 409.717C954.122 410.711 952.359 411.373 950.478 411.594C950.125 411.594 949.772 411.704 949.42 411.704C949.302 411.704 949.185 411.704 949.067 411.704C948.714 411.704 948.362 411.704 948.009 411.704C947.656 411.704 947.186 411.594 946.834 411.594C945.07 411.263 943.542 410.6 942.131 409.606C942.014 408.723 941.779 407.619 941.661 406.625C942.484 406.294 945.188 405.521 946.834 404.969C946.834 404.969 946.834 404.969 946.951 404.969H947.069C947.186 404.969 947.304 404.858 947.304 404.858C947.421 404.858 947.539 404.748 947.539 404.748C947.892 404.637 948.127 404.527 948.244 404.527L950.478 404.637H950.83H950.948C951.066 404.637 951.536 404.748 952.006 404.969C953.534 405.3 955.65 405.962 956.473 406.846Z" fill="#D9C7C1"/>
<path d="M949.655 395.693C949.655 395.693 952.359 396.135 951.888 400.11C951.418 404.085 949.067 403.754 948.832 403.754C948.714 403.754 946.481 403.754 946.363 398.895C946.363 398.895 946.363 395.251 949.655 395.693Z" fill="#EEA987"/>
<path d="M950.83 402.539C950.83 402.539 950.713 404.196 950.948 404.527C951.066 404.858 948.832 405.962 947.304 404.748C947.304 404.748 947.539 402.981 947.539 402.318C947.421 401.656 950.83 402.539 950.83 402.539Z" fill="#EEA987"/>
<path d="M952.006 399.006C952.006 399.006 952.359 398.674 952.359 399.006C952.476 399.337 951.888 400.662 951.888 400.662C951.888 400.662 951.888 400.772 951.771 400.662L952.006 399.006Z" fill="#EEA987"/>
<path d="M946.481 398.895C946.481 398.895 946.246 398.564 946.128 398.895C946.01 399.227 946.481 400.552 946.481 400.662L946.598 400.773C946.598 400.552 946.481 398.895 946.481 398.895Z" fill="#EEA987"/>
<path d="M952.123 398.674C952.006 399.226 951.888 399.668 951.888 399.668L951.536 400.11C951.536 400.11 951.536 399.006 951.536 398.895C951.536 398.785 951.536 398.674 951.418 398.564C951.418 398.343 951.3 398.122 951.3 398.012C951.3 397.901 948.949 397.239 946.951 398.122C946.951 398.122 946.951 398.233 946.951 398.453C946.951 398.674 946.951 398.895 946.833 398.895C946.598 399.006 946.716 400.11 946.716 400.11L946.363 399.779C946.363 399.779 946.246 399.116 946.128 398.453C946.128 398.233 946.128 398.122 946.01 397.901C946.01 397.239 946.01 395.914 947.068 395.141C947.774 394.92 948.832 394.589 950.595 395.141C950.595 395.141 950.948 395.141 951.065 395.251C952.358 396.576 952.123 398.674 952.123 398.674Z" fill="#E8734D"/>
<path d="M947.656 403.202C947.656 403.202 948.126 403.754 949.067 403.754C950.125 403.754 950.478 403.202 950.478 403.202C950.478 403.202 950.007 404.085 949.067 404.085C948.126 404.085 947.656 403.202 947.656 403.202Z" fill="#C78D71"/>
<path d="M947.068 404.748C947.068 404.748 947.774 405.962 949.184 406.073C950.007 406.183 950.83 405.079 951.183 404.637C951.183 404.637 949.184 403.864 947.068 404.748Z" fill="#EEA987"/>
<path d="M950.83 404.196C950.83 404.196 950.243 404.858 949.067 405.631L949.772 406.735L951.065 404.637L950.83 404.196Z" fill="#EDDAD3"/>
<path d="M947.421 404.417C947.421 404.417 948.126 405.3 949.185 405.631L948.362 406.735L946.951 404.858L947.421 404.417Z" fill="#EDDAD3"/>
<path d="M949.185 405.631L949.772 406.515C949.772 406.515 949.067 406.846 948.479 406.515L949.185 405.631Z" fill="#5073AB"/>
<path d="M957.178 406.735L956.473 409.054C956.355 409.165 956.238 409.275 956.12 409.385C956.003 409.496 955.768 409.606 955.65 409.717C954.122 410.711 952.358 411.373 950.478 411.594C950.595 407.95 951.065 404.637 951.065 404.637C951.418 404.748 951.771 404.858 952.123 404.858C953.416 405.189 956.12 406.073 957.178 406.735Z" fill="#323657"/>
<path d="M946.833 411.484C945.069 411.152 943.541 410.49 942.131 409.496C941.778 409.165 941.308 408.833 940.955 408.502C940.837 408.392 940.837 408.392 940.72 408.281C940.485 407.508 940.367 406.956 940.367 406.956C940.367 406.956 941.778 406.073 946.715 404.858C946.833 404.969 946.833 407.95 946.833 411.484Z" fill="#323657"/>
<path d="M949.537 406.625C949.537 407.619 949.537 409.496 949.537 411.594C949.42 411.594 949.302 411.594 949.184 411.594C948.832 411.594 948.479 411.594 948.126 411.594C948.362 408.944 948.714 407.287 948.832 406.625C948.832 406.404 948.949 406.293 948.949 406.293L949.655 406.404C949.537 406.514 949.537 406.514 949.537 406.625Z" fill="#5073AB"/>
<path d="M957.766 407.84C957.414 408.281 956.943 408.723 956.473 409.054C956.356 409.165 956.238 409.275 956.121 409.386L957.179 406.735C957.531 406.846 957.649 407.619 957.766 407.84Z" fill="#323657"/>
<path d="M941.073 408.502C940.956 408.392 940.956 408.392 940.838 408.281C940.603 408.06 940.368 407.729 940.133 407.508C940.25 407.177 940.368 407.066 940.485 406.956L941.073 408.502Z" fill="#323657"/>
<path d="M900.281 385.644C899.458 385.644 898.871 385.092 898.871 384.319V366.21C898.871 365.437 899.458 364.885 900.281 364.885C901.104 364.885 901.692 365.437 901.692 366.21V384.319C901.692 385.092 900.987 385.644 900.281 385.644Z" fill="#949494"/>
<path d="M909.921 376.59H890.642C889.819 376.59 889.231 376.038 889.231 375.265C889.231 374.492 889.819 373.939 890.642 373.939H909.921C910.744 373.939 911.331 374.492 911.331 375.265C911.331 376.038 910.626 376.59 909.921 376.59Z" fill="#949494"/>
</g>
<defs>
<linearGradient id="paint0_linear" x1="813.944" y1="-44.0266" x2="411.472" y2="646.357" gradientUnits="userSpaceOnUse">
<stop stop-color="#0129A0"/>
<stop offset="0.13" stop-color="#0053E2" stop-opacity="0.9"/>
<stop offset="0.54" stop-color="#009DF1"/>
<stop offset="0.84" stop-color="#00CBFA"/>
<stop offset="1" stop-color="#00DCFE"/>
</linearGradient>
<linearGradient id="paint1_linear" x1="975.87" y1="151.875" x2="975.87" y2="240.878" gradientUnits="userSpaceOnUse">
<stop offset="0.317708" stop-color="#FFB21E"/>
<stop offset="1" stop-color="#FFE600"/>
</linearGradient>
<linearGradient id="paint2_linear" x1="1009.14" y1="240.215" x2="1009.14" y2="281.293" gradientUnits="userSpaceOnUse">
<stop offset="0.317708" stop-color="#FFB21E"/>
<stop offset="1" stop-color="#FFE600"/>
</linearGradient>
<linearGradient id="paint3_linear" x1="796.04" y1="516.462" x2="796.04" y2="394.443" gradientUnits="userSpaceOnUse">
<stop stop-color="#245EF1"/>
<stop offset="1" stop-color="#514A9D"/>
</linearGradient>
<linearGradient id="paint4_linear" x1="796.031" y1="182.463" x2="796.031" y2="210.511" gradientUnits="userSpaceOnUse">
<stop stop-color="#0129A0"/>
<stop offset="0.286458" stop-color="#0053E2"/>
<stop offset="0.604167" stop-color="#009DF1"/>
<stop offset="0.84" stop-color="#00CBFA"/>
<stop offset="1" stop-color="#00DCFE"/>
</linearGradient>
<linearGradient id="paint5_linear" x1="796.009" y1="421.31" x2="796.009" y2="443.617" gradientUnits="userSpaceOnUse">
<stop stop-color="#245EF1"/>
<stop offset="1" stop-color="#514A9D"/>
</linearGradient>
<linearGradient id="paint6_linear" x1="796.068" y1="511.86" x2="796.068" y2="521.025" gradientUnits="userSpaceOnUse">
<stop stop-color="#245EF1"/>
<stop offset="1" stop-color="#514A9D"/>
</linearGradient>
<linearGradient id="paint7_linear" x1="520.419" y1="416.453" x2="520.419" y2="444.901" gradientUnits="userSpaceOnUse">
<stop offset="0.317708" stop-color="#FFB21E"/>
<stop offset="1" stop-color="#FFE600"/>
</linearGradient>
<linearGradient id="paint8_linear" x1="529.291" y1="428.931" x2="529.291" y2="436.992" gradientUnits="userSpaceOnUse">
<stop offset="0.317708" stop-color="#FFB21E"/>
<stop offset="1" stop-color="#FFE600"/>
</linearGradient>
<linearGradient id="paint9_linear" x1="512.112" y1="408.171" x2="512.112" y2="472.353" gradientUnits="userSpaceOnUse">
<stop offset="0.317708" stop-color="#FFB21E"/>
<stop offset="1" stop-color="#FFE600"/>
</linearGradient>
<linearGradient id="paint10_linear" x1="529.121" y1="411.017" x2="529.121" y2="451.404" gradientUnits="userSpaceOnUse">
<stop offset="0.317708" stop-color="#FFB21E"/>
<stop offset="1" stop-color="#FFE600"/>
</linearGradient>
<linearGradient id="paint11_linear" x1="506.234" y1="485.91" x2="506.234" y2="492.535" gradientUnits="userSpaceOnUse">
<stop stop-color="#245EF1"/>
<stop offset="1" stop-color="#514A9D"/>
</linearGradient>
<linearGradient id="paint12_linear" x1="517.226" y1="464.929" x2="517.226" y2="486.572" gradientUnits="userSpaceOnUse">
<stop stop-color="#245EF1"/>
<stop offset="1" stop-color="#514A9D"/>
</linearGradient>
<linearGradient id="paint13_linear" x1="486.349" y1="403.657" x2="486.349" y2="492.535" gradientUnits="userSpaceOnUse">
<stop stop-color="#245EF1"/>
<stop offset="1" stop-color="#514A9D"/>
</linearGradient>
<linearGradient id="paint14_linear" x1="520.811" y1="437.765" x2="520.811" y2="449.691" gradientUnits="userSpaceOnUse">
<stop offset="0.317708" stop-color="#FFB21E"/>
<stop offset="1" stop-color="#FFE600"/>
</linearGradient>
<linearGradient id="paint15_linear" x1="756.275" y1="362.013" x2="756.275" y2="365.344" gradientUnits="userSpaceOnUse">
<stop offset="0.317708" stop-color="#FFB21E"/>
<stop offset="1" stop-color="#FFE600"/>
</linearGradient>
<linearGradient id="paint16_linear" x1="753.807" y1="423.851" x2="753.807" y2="428.489" gradientUnits="userSpaceOnUse">
<stop offset="0.317708" stop-color="#FFB21E"/>
<stop offset="1" stop-color="#FFE600"/>
</linearGradient>
<linearGradient id="paint17_linear" x1="755.013" y1="364.112" x2="755.013" y2="420.87" gradientUnits="userSpaceOnUse">
<stop offset="0.317708" stop-color="#FFB21E"/>
<stop offset="1" stop-color="#FFE600"/>
</linearGradient>
<linearGradient id="paint18_linear" x1="1024.24" y1="493.198" x2="1024.24" y2="501.7" gradientUnits="userSpaceOnUse">
<stop stop-color="#245EF1"/>
<stop offset="1" stop-color="#514A9D"/>
</linearGradient>
<linearGradient id="paint19_linear" x1="1009.46" y1="404.748" x2="1009.46" y2="490.125" gradientUnits="userSpaceOnUse">
<stop offset="0.317708" stop-color="#FFB21E"/>
<stop offset="1" stop-color="#FFE600"/>
</linearGradient>
<linearGradient id="paint20_linear" x1="1047.17" y1="434.231" x2="1047.17" y2="487.345" gradientUnits="userSpaceOnUse">
<stop stop-color="#245EF1"/>
<stop offset="1" stop-color="#514A9D"/>
</linearGradient>
<linearGradient id="paint21_linear" x1="1043.49" y1="468.121" x2="1043.49" y2="499.602" gradientUnits="userSpaceOnUse">
<stop stop-color="#245EF1"/>
<stop offset="1" stop-color="#514A9D"/>
</linearGradient>
<clipPath id="clip0">
<path d="M0 0H1192V719H0V0Z" fill="white"/>
</clipPath>
</defs>
</svg>
