<svg width="1920" height="486" viewBox="0 0 1920 486" fill="none" xmlns="http://www.w3.org/2000/svg">
<g clip-path="url(#clip0)">
<path d="M-227.192 145.8L-187.592 162.051C-147.992 177.694 -68.7924 211.106 10.4076 218.7C89.6076 226.294 168.808 211.106 248.008 218.7C327.208 226.294 406.408 259.706 485.608 275.349C564.808 291.6 644.008 291.6 723.208 259.251C802.408 226.294 881.608 162.506 960.808 129.549C1040.01 97.2 1119.21 97.2 1198.41 129.549C1277.61 162.506 1356.81 226.294 1436.01 218.7C1515.21 211.106 1594.41 129.094 1673.61 113.451C1752.81 97.1999 1832.01 145.8 1911.21 153.849C1990.41 162.506 2069.61 129.094 2109.21 113.451L2148.81 97.2V486H2109.21C2069.61 486 1990.41 486 1911.21 486C1832.01 486 1752.81 486 1673.61 486C1594.41 486 1515.21 486 1436.01 486C1356.81 486 1277.61 486 1198.41 486C1119.21 486 1040.01 486 960.808 486C881.608 486 802.408 486 723.208 486C644.008 486 564.808 486 485.608 486C406.408 486 327.208 486 248.008 486C168.808 486 89.6076 486 10.4076 486C-68.7924 486 -147.992 486 -187.592 486H-227.192V145.8Z" fill="url(#paint0_linear)"/>
</g>
<defs>
<linearGradient id="paint0_linear" x1="960.958" y1="97.2018" x2="960.958" y2="486" gradientUnits="userSpaceOnUse">
<stop stop-color="#0129A0"/>
<stop offset="0.13" stop-color="#0053E2" stop-opacity="0.9"/>
<stop offset="0.54" stop-color="#009DF1"/>
<stop offset="0.84" stop-color="#00CBFA"/>
<stop offset="1" stop-color="#00DCFE"/>
</linearGradient>
<clipPath id="clip0">
<rect x="-227.192" width="2376" height="486" fill="white"/>
</clipPath>
</defs>
</svg>
